<svg width="1909" height="1274" viewBox="0 0 1909 1274" fill="none" xmlns="http://www.w3.org/2000/svg">
<path d="M741.703 140.465C736.315 109.524 714.049 77.5693 679.649 77.6554C649.927 77.7201 622.618 116.483 632.209 144.473C636.154 155.958 646.78 165.266 658.893 166.193C671.006 167.119 683.572 158.608 685.879 146.671C686.719 142.362 686.137 137.535 683.227 134.26C680.318 130.985 674.67 130.058 671.502 133.075C668.441 135.984 668.506 141.306 665.187 143.913C661.889 146.52 656.63 144.904 654.194 141.5C651.759 138.095 651.565 133.549 652.125 129.39C653.806 117.13 661.997 106.184 672.795 100.345C686.719 92.8247 699.113 98.6208 710.428 108.36C726.335 122.043 727.391 145.486 728.34 164.706C729.482 188.063 715.537 212.648 704.048 232.041C701.052 237.083 708.381 243.073 712.304 238.419C723.813 224.758 732.004 211.959 737.543 194.872C743.147 177.548 744.828 158.5 741.682 140.444L741.703 140.465Z" fill="#F9E9D3" fill-opacity="0.5"/>
<path d="M717.757 52.4022C711.678 52.4022 706.613 57.4658 706.613 63.5421C706.613 69.6184 711.678 74.682 717.757 74.682C723.835 74.682 728.9 69.6184 728.9 63.5421C728.9 57.4658 723.835 52.4022 717.757 52.4022Z" fill="#F9E9D3" fill-opacity="0.5"/>
<path d="M755.799 91.9628C749.721 91.9628 744.656 97.0264 744.656 103.103C744.656 109.179 749.721 114.243 755.799 114.243C761.878 114.243 766.943 109.179 766.943 103.103C766.943 97.0264 761.878 91.9628 755.799 91.9628Z" fill="#F9E9D3" fill-opacity="0.5"/>
<path d="M580.674 211.786C573.82 209.416 567.009 206.529 560.478 203.383C553.02 199.763 548.882 192.566 542.89 187.201C537.695 182.547 528.341 177.656 520.323 177.505C519.331 169.037 518.814 160.59 519.03 152.446C519.676 152.446 520.237 152.316 520.689 152.015C525.97 151.842 533.04 157.983 535.971 160.698C541.316 165.654 544.959 172.506 549.96 177.871C558.387 186.943 572.527 195.777 584.64 198.255C588.864 199.117 591.645 193.364 588.283 190.627C582.075 185.564 574.531 182.547 567.677 178.41C558.215 172.721 551.878 164.253 544.657 156.173C539.678 150.571 526.38 140.939 517.974 145.184C515.797 142.922 511.4 143.073 511.055 147.016C509.503 165.546 512.607 183.969 514.741 202.349C516.012 213.165 518.857 223.81 520.409 234.626C520.711 236.738 520.883 239.065 521.034 241.435C518.124 241.198 515.172 242.189 511.357 242.922C505.408 244.086 501.162 246.822 496.614 250.722C487.324 258.652 485.363 271.903 496.226 279.509C509.158 288.581 532.221 272.571 534.355 257.402C535.626 254.213 535.066 250.679 534.355 246.801C532.436 236.501 530.259 226.266 527.673 216.117C525.108 206.033 522.78 195.195 521.185 184.228C533.32 186.835 540.95 198.513 549.076 207.132C556.663 215.191 568.841 218.401 579.445 218.509C582.872 218.552 583.95 212.95 580.674 211.808V211.786Z" fill="#F9E9D3" fill-opacity="0.5"/>
<path d="M1375.8 164.857C1370.11 160.353 1364.63 155.398 1359.5 150.269C1353.64 144.387 1352.13 136.242 1348.23 129.196C1344.85 123.098 1337.65 115.384 1330.1 112.605C1331.96 104.288 1334.26 96.1429 1337.13 88.5152C1337.73 88.7522 1338.32 88.7953 1338.83 88.666C1343.88 90.2389 1348.53 98.3838 1350.39 101.896C1353.79 108.339 1355 116.009 1357.93 122.711C1362.91 134.044 1373.34 147.059 1383.97 153.372C1387.67 155.57 1392.2 151.067 1389.92 147.36C1385.73 140.53 1379.59 135.186 1374.48 129.045C1367.43 120.556 1364.22 110.472 1360.09 100.474C1357.22 93.5572 1347.84 80.0687 1338.51 81.3184C1337.19 78.4527 1332.99 77.1598 1331.38 80.7797C1323.79 97.7589 1320.66 116.182 1316.63 134.238C1314.26 144.883 1313.44 155.872 1311.35 166.581C1310.94 168.692 1310.34 170.911 1309.71 173.217C1307.04 172.032 1303.94 171.989 1300.08 171.429C1294.09 170.567 1289.17 171.773 1283.59 173.95C1272.21 178.388 1265.98 190.239 1273.72 200.991C1282.94 213.812 1309.99 206.292 1317 192.674C1319.26 190.088 1319.89 186.576 1320.49 182.676C1322.09 172.334 1323.38 161.926 1324.28 151.498C1325.19 141.133 1326.57 130.123 1328.66 119.241C1339.26 125.706 1342.63 139.259 1347.43 150.054C1351.94 160.159 1362.39 167.205 1372.37 170.782C1375.58 171.946 1378.47 167.011 1375.73 164.857H1375.8Z" fill="#F9E9D3" fill-opacity="0.5"/>
<path d="M404.471 211.399C406.281 209.481 407.704 207.025 408.803 204.956C411.217 200.431 415.054 196.768 417.511 192.179C420.162 187.223 422.834 182.375 425.852 177.634C432.124 167.809 438.181 157.294 442.966 146.649C445.574 140.832 450.186 132.105 450.014 125.598C449.949 123.594 448.656 122.581 447.234 122.474C444.518 119.263 440.056 117.733 436.306 115.083C429.602 110.342 421.067 107.067 413.933 102.779C401.194 95.1302 388.456 86.4898 374.942 79.961C377.291 78.3449 378.757 75.7808 381.02 72.7427C384.361 68.3255 385.546 63.8653 386.236 58.4354C387.68 47.3817 380.912 37.1899 368.885 38.6551C350.349 40.9391 345.995 82.0511 367.118 82.8052C370.178 85.0892 373.67 86.9638 376.666 89.0754C385.223 95.0871 393.694 101.056 402.574 106.593C408.932 110.579 415.312 114.91 422.015 118.401C412.187 130.834 402.531 143.374 392.745 155.85C387.335 162.745 382.119 169.813 376.838 176.815C373.304 181.491 368.562 186.016 367.333 191.898C367.29 192.135 367.268 192.372 367.247 192.61C365.286 191.575 363.303 190.563 361.363 189.485C353.797 185.305 346.447 180.996 339.292 176.147C333.925 172.506 328.019 169.188 322.867 165.072C326.187 163.607 327.717 160.655 330.433 157.035C333.774 152.618 334.959 148.158 335.649 142.728C337.093 131.674 330.325 121.482 318.298 122.948C300.02 125.188 295.537 165.223 315.712 167.033C324.786 177.807 339.442 186.425 350.413 193.665C364.984 203.297 382.981 214.114 399.966 218.617C404.643 219.867 406.841 214.566 404.427 211.377L404.471 211.399ZM375.481 196.854C375.481 196.854 375.653 196.725 375.718 196.639C385.525 186.727 392.767 173.196 400.397 161.582C408.932 148.61 420.916 135.553 427.49 121.138C432.383 123.68 436.823 127.214 441.888 129.369C441.004 130.877 440.013 132.385 439.539 133.441C437.362 138.462 434.818 143.31 432.189 148.115C427.038 157.531 420.787 166.753 414.601 175.523C409.105 183.323 404.039 191.381 398.586 199.203C397.207 201.185 395.245 203.168 394.125 205.344C390.676 203.836 387.141 202.457 383.822 200.905C380.998 199.591 378.239 198.212 375.481 196.833V196.854Z" fill="#F9E9D3" fill-opacity="0.5"/>
<path d="M773.301 289.507C776.211 284.379 777.978 278.906 777.483 273.196C776.125 257.79 763.645 245.465 749.894 239.841C735.323 233.894 721.313 239.97 709.264 248.223C691.655 260.311 676.395 275.954 662.061 291.662C654.108 300.388 646.025 309.136 638.072 317.992C634.3 317.497 630.55 316.937 626.799 316.204C613.867 313.661 602.335 307.413 589.08 306.034C566.146 303.62 543.709 310.99 527.414 327.322C508.554 346.241 503.662 369.145 509.567 394.549C512.757 408.318 519.676 422.367 530.065 432.322C529.181 433.097 528.298 433.894 527.414 434.692C513.425 447.922 504.459 462.574 484.673 467.465C478.465 468.995 471.632 468.909 466.007 465.87C457.493 461.281 456.135 451.218 456.437 442.427C458.937 444.625 462.364 446.176 466.912 447.297C477.193 449.861 484.198 449.495 491.505 441.307C497.368 434.735 499.114 423.315 497.325 415.019C495.083 404.59 484.888 399.678 475.081 398.967C451.048 397.221 443.074 426.935 442.88 445.875C442.642 472.27 461.416 484.142 486.009 478.346C497.411 475.653 508.447 470.094 517.65 462.875C520.538 460.613 538.794 439.174 540.799 440.294C544.743 442.47 549.033 444.129 553.645 445.099C564.163 447.297 577.484 443.742 587.7 441.07C598.24 438.333 606.84 432.343 613.996 424.22C628.071 408.21 628.308 386.361 617.294 368.844C616.518 367.615 615.634 366.43 614.729 365.267C620.656 358.286 626.239 350.959 632.101 343.935C635.14 340.294 638.309 336.76 641.52 333.269C652.06 334.627 662.665 335.424 673.162 337.277C703.574 342.642 734.375 330.382 756.273 309.395C762.072 303.836 768.926 297.049 773.236 289.485L773.301 289.507ZM605.525 356.497C594.123 348.245 578.842 344.388 565.845 348.697C548.041 354.579 530.647 374.597 533.578 394.248C534.333 399.354 541.489 398.536 541.446 393.472C541.338 378.432 555.391 366.344 567.871 360.656C572.634 358.479 581.536 359.277 586.213 360.699C590.114 361.884 593.714 363.715 596.99 366.042C596.861 366.172 596.731 366.323 596.602 366.452C588.713 374.618 580.07 382.009 572.289 390.305C565.392 397.652 559.228 405.668 552.417 413.102C548.925 416.937 544.98 420.234 540.971 423.423C530.82 414.416 525.517 401.38 522.564 388.344C519.396 374.36 520.732 361.625 528.427 349.43C536.079 337.32 546.101 328.4 559.594 323.487C583.088 314.954 604.297 325.577 626.821 330.727C623.717 334.325 620.656 337.945 617.66 341.586C613.608 346.542 609.642 351.541 605.525 356.432V356.497ZM581.989 428.766C571.858 430.792 562.051 433.076 552.804 430.339C560.197 423.767 566.642 416.377 573.087 408.749C582.7 397.372 593.369 387.31 604.017 376.945C604.728 376.256 605.396 375.545 606.086 374.834C622.079 395.756 605.849 423.983 582.01 428.745L581.989 428.766ZM743.815 299.871C733.383 307.844 722.628 316.613 710.558 321.957C696.504 328.184 680.21 323.724 665.833 321.397C661.91 320.75 657.966 320.276 654.022 319.824C656.824 316.743 659.583 313.64 662.255 310.429C671.329 299.57 681.18 289.356 691.396 279.574C701.871 269.533 714.265 258.134 727.758 252.403C741.121 246.714 753.342 255.312 761.102 265.697C771.663 279.832 753.579 292.416 743.794 299.871H743.815Z" fill="#F9E9D3" fill-opacity="0.5"/>
<path d="M391.905 348.503C386.883 334.885 382.399 320.901 376.537 307.65C370.631 294.312 367.958 280.565 360.393 267.766C358.539 264.642 354.25 267.572 355.737 270.675C361.255 282.203 364.014 293.967 366.643 306.357C368.799 316.592 372.894 326.784 375.61 336.954C376.407 339.884 377.463 342.642 378.563 345.336C371.924 345.034 364.1 348.589 359.488 351.283C350.284 356.648 344.378 364.125 342.977 374.855C340.52 393.752 359.811 407.327 376.213 398.213C392.875 388.926 398.026 365.116 391.905 348.525V348.503Z" fill="#F9E9D3" fill-opacity="0.5"/>
<path d="M1094.61 368.865C1089.22 337.924 1066.95 305.969 1032.55 306.055C1002.83 306.12 975.52 344.883 985.111 372.873C989.056 384.358 999.682 393.666 1011.8 394.593C1023.91 395.519 1036.47 387.008 1038.78 375.071C1039.62 370.761 1039.04 365.935 1036.13 362.66C1033.22 359.385 1027.57 358.458 1024.4 361.475C1021.34 364.384 1021.41 369.706 1018.09 372.313C1014.79 374.92 1009.53 373.304 1007.1 369.9C1004.66 366.474 1004.47 361.949 1005.03 357.79C1006.71 345.53 1014.9 334.584 1025.7 328.745C1039.62 321.225 1052.01 327.021 1063.33 336.76C1079.24 350.442 1080.29 373.886 1081.24 393.106C1082.38 416.463 1068.44 441.048 1056.95 460.441C1053.95 465.483 1061.28 471.473 1065.21 466.819C1076.72 453.158 1084.91 440.359 1090.45 423.272C1096.05 405.948 1097.73 386.9 1094.58 368.844L1094.61 368.865Z" fill="#F9E9D3" fill-opacity="0.5"/>
<path d="M1070.66 280.802C1064.58 280.802 1059.52 285.866 1059.52 291.942C1059.52 298.018 1064.58 303.082 1070.66 303.082C1076.74 303.082 1081.8 298.018 1081.8 291.942C1081.8 285.866 1076.74 280.802 1070.66 280.802Z" fill="#F9E9D3" fill-opacity="0.5"/>
<path d="M1108.7 320.363C1102.62 320.363 1097.56 325.426 1097.56 331.502C1097.56 337.579 1102.62 342.642 1108.7 342.642C1114.78 342.642 1119.84 337.579 1119.84 331.502C1119.84 325.426 1114.78 320.363 1108.7 320.363Z" fill="#F9E9D3" fill-opacity="0.5"/>
<path d="M839.536 153.501C845.873 157.035 852.081 161.043 857.944 165.288C864.668 170.157 867.47 177.957 872.449 184.292C876.76 189.765 885.123 196.229 892.99 197.781C892.494 206.292 891.525 214.695 889.908 222.689C889.261 222.56 888.701 222.603 888.205 222.819C882.968 222.064 877.083 214.781 874.669 211.614C870.272 205.796 867.858 198.427 863.892 192.265C857.168 181.879 844.774 170.696 833.286 166.171C829.277 164.598 825.548 169.769 828.372 173.045C833.609 179.121 840.506 183.409 846.542 188.645C854.861 195.906 859.646 205.322 865.337 214.544C869.259 220.922 880.683 232.73 889.714 230.015C891.46 232.623 895.835 233.247 896.848 229.412C901.612 211.442 901.763 192.739 902.84 174.294C903.487 163.413 902.517 152.446 902.862 141.543C902.927 139.41 903.164 137.104 903.422 134.734C906.267 135.466 909.328 135.014 913.208 134.949C919.264 134.842 923.92 132.881 929.071 129.821C939.59 123.615 943.836 110.924 934.482 101.551C923.317 90.3682 897.84 102.133 893.098 116.699C891.287 119.608 891.223 123.185 891.244 127.128C891.331 137.6 891.719 148.071 892.494 158.5C893.27 168.886 893.658 179.961 893.335 191.037C881.825 186.361 876.351 173.519 869.863 163.629C863.785 154.385 852.361 149.084 841.929 147.145C838.567 146.52 836.519 151.842 839.558 153.544L839.536 153.501Z" fill="#F9E9D3" fill-opacity="0.5"/>
<path d="M893.442 289.443C890.834 289.744 888.162 290.692 885.985 291.554C881.221 293.45 875.919 293.774 871.07 295.691C865.832 297.76 860.681 299.742 855.292 301.401C844.149 304.87 832.747 308.986 822.228 314.028C816.473 316.764 807.313 320.47 803.261 325.556C802.011 327.129 802.356 328.723 803.369 329.736C803.369 333.937 805.783 337.988 806.947 342.427C808.994 350.378 813.413 358.393 816.085 366.258C820.87 380.328 825.03 395.153 831.109 408.857C828.263 408.577 825.505 409.59 821.797 410.43C816.387 411.658 812.615 414.287 808.563 417.993C800.308 425.513 798.907 437.665 809.037 444.28C824.664 454.494 854.559 425.922 838.911 411.701C838.049 407.973 836.583 404.289 835.656 400.734C833.005 390.606 830.397 380.609 827.186 370.632C824.901 363.479 822.832 356.066 819.965 349.064C835.484 345.918 850.981 342.578 866.479 339.346C875.057 337.557 883.614 335.532 892.171 333.614C897.883 332.321 904.435 331.912 909.155 328.227C909.349 328.077 909.522 327.904 909.673 327.753C910.492 329.822 911.354 331.847 912.151 333.937C915.212 342.018 918.057 350.055 920.385 358.372C922.131 364.599 924.502 370.955 925.773 377.42C922.303 376.385 919.221 377.657 914.802 378.669C909.392 379.898 905.62 382.526 901.568 386.232C893.313 393.752 891.912 405.905 902.042 412.52C917.454 422.604 946.724 394.916 932.498 380.522C932.541 366.431 926.894 350.399 923.187 337.794C918.273 321.031 911.526 301.164 901.461 286.771C898.68 282.806 893.593 285.435 893.378 289.421L893.442 289.443ZM906.181 319.264C906.073 319.264 905.965 319.264 905.858 319.264C891.955 320.514 877.708 326.18 864.388 330.124C849.494 334.519 831.906 336.76 817.573 343.526C815.46 338.419 814.383 332.86 811.904 327.947C813.542 327.366 815.288 326.87 816.323 326.353C821.237 323.94 826.302 321.849 831.41 319.889C841.433 316.032 852.145 313.015 862.534 310.3C871.759 307.887 880.833 305 890.059 302.543C892.386 301.918 895.167 301.66 897.43 300.733C899.09 304.116 900.9 307.434 902.452 310.774C903.745 313.597 904.974 316.42 906.202 319.264H906.181Z" fill="#F9E9D3" fill-opacity="0.5"/>
<path d="M1138.73 66.5155C1133.66 63.4989 1128.21 61.6459 1122.47 62.0337C1107.04 63.0895 1094.5 75.3499 1088.61 89.0108C1082.38 103.469 1088.2 117.582 1096.24 129.778C1108.01 147.598 1123.36 163.133 1138.81 177.764C1147.39 185.865 1155.99 194.118 1164.72 202.22C1164.16 205.969 1163.53 209.718 1162.74 213.446C1159.96 226.309 1153.49 237.751 1151.85 250.959C1149.01 273.842 1155.97 296.402 1172.01 312.972C1190.58 332.17 1213.41 337.471 1238.91 332.063C1252.72 329.132 1266.91 322.474 1277.06 312.282C1277.81 313.187 1278.59 314.092 1279.39 314.976C1292.34 329.218 1306.85 338.441 1311.37 358.307C1312.8 364.534 1312.58 371.365 1309.43 376.924C1304.67 385.349 1294.6 386.534 1285.81 386.06C1288.05 383.604 1289.67 380.199 1290.88 375.674C1293.63 365.461 1293.4 358.436 1285.36 350.981C1278.89 345.013 1267.51 343.052 1259.17 344.689C1248.69 346.758 1243.61 356.842 1242.7 366.624C1240.5 390.606 1270.1 399.139 1289.02 399.656C1315.43 400.389 1327.65 381.837 1322.3 357.144C1319.82 345.702 1314.46 334.562 1307.43 325.232C1305.23 322.302 1284.11 303.664 1285.27 301.66C1287.53 297.76 1289.26 293.515 1290.31 288.925C1292.71 278.453 1289.39 265.073 1286.91 254.816C1284.37 244.215 1278.55 235.51 1270.53 228.227C1254.77 213.877 1232.94 213.209 1215.2 223.896C1213.95 224.65 1212.74 225.512 1211.58 226.395C1204.7 220.341 1197.48 214.631 1190.56 208.619C1186.99 205.516 1183.52 202.284 1180.07 199.009C1181.62 188.494 1182.61 177.914 1184.66 167.464C1190.58 137.169 1178.88 106.141 1158.3 83.861C1152.84 77.9571 1146.18 70.9974 1138.68 66.5371L1138.73 66.5155ZM1202.63 235.445C1194.16 246.693 1190.02 261.884 1194.1 274.963C1199.66 292.868 1219.36 310.623 1239.08 308.038C1244.21 307.37 1243.52 300.194 1238.46 300.151C1223.41 300.001 1211.58 285.715 1206.13 273.131C1204.03 268.326 1205 259.449 1206.51 254.795C1207.76 250.916 1209.68 247.361 1212.05 244.129C1212.18 244.258 1212.31 244.387 1212.46 244.517C1220.48 252.554 1227.72 261.323 1235.87 269.253C1243.09 276.277 1250.98 282.59 1258.31 289.529C1262.08 293.105 1265.29 297.092 1268.44 301.164C1259.23 311.14 1246.11 316.204 1233.02 318.919C1218.99 321.828 1206.28 320.255 1194.23 312.347C1182.24 304.482 1173.51 294.291 1168.86 280.716C1160.75 257.079 1171.79 236.07 1177.35 213.661C1180.89 216.829 1184.46 219.953 1188.04 223.034C1192.91 227.193 1197.85 231.244 1202.68 235.424L1202.63 235.445ZM1274.47 260.289C1276.33 270.438 1278.42 280.285 1275.51 289.486C1269.06 281.987 1261.8 275.394 1254.3 268.822C1243.11 258.996 1233.24 248.158 1223.05 237.32C1222.38 236.609 1221.67 235.919 1220.98 235.208C1242.19 219.608 1270.12 236.35 1274.45 260.268L1274.47 260.289ZM1148.55 96.186C1156.34 106.766 1164.91 117.668 1170.02 129.821C1175.99 143.978 1171.23 160.181 1168.62 174.531C1167.91 178.453 1167.35 182.375 1166.83 186.296C1163.81 183.43 1160.75 180.608 1157.61 177.893C1146.92 168.628 1136.89 158.587 1127.28 148.201C1117.43 137.557 1106.27 124.951 1100.79 111.355C1095.36 97.8882 1104.18 85.8433 1114.69 78.2803C1129.03 67.9807 1141.27 86.2958 1148.55 96.2075V96.186Z" fill="#F9E9D3" fill-opacity="0.5"/>
<path d="M1023.11 156.927C1016.49 169.834 1009.23 182.612 1003.45 195.906C997.634 209.287 989.314 220.556 985.047 234.799C984.012 238.268 989.077 239.453 990.349 236.242C995.091 224.37 1001.88 214.372 1009.23 204.051C1015.29 195.518 1020.03 185.628 1025.65 176.729C1027.27 174.165 1028.56 171.515 1029.81 168.886C1034.1 173.971 1041.99 177.311 1047.1 178.884C1057.27 182.03 1066.78 181.319 1075.64 175.07C1091.2 164.081 1088.14 140.681 1070.31 134.82C1052.19 128.851 1031.19 141.198 1023.11 156.927Z" fill="#F9E9D3" fill-opacity="0.5"/>
<path d="M1360.6 359.988C1357.35 374.123 1353.47 388.279 1351.12 402.608C1348.77 417.002 1343.47 429.973 1342.82 444.819C1342.67 448.439 1347.86 448.331 1348.32 444.927C1350 432.257 1354.11 420.902 1358.71 409.094C1362.5 399.333 1364.65 388.581 1367.93 378.583C1368.88 375.696 1369.48 372.808 1370.02 369.964C1375.41 373.843 1383.9 375.136 1389.25 375.416C1399.9 375.954 1408.93 372.938 1415.97 364.707C1428.37 350.227 1419.64 328.314 1400.91 326.999C1381.88 325.663 1364.55 342.793 1360.6 360.031V359.988Z" fill="#F9E9D3" fill-opacity="0.5"/>
<path d="M741.703 534.778C736.315 503.837 714.049 471.882 679.649 471.968C649.927 472.033 622.618 510.796 632.209 538.786C636.154 550.271 646.78 559.579 658.893 560.506C671.006 561.432 683.572 552.921 685.879 540.984C686.719 536.675 686.137 531.848 683.227 528.573C680.318 525.298 674.67 524.371 671.502 527.388C668.441 530.297 668.506 535.619 665.187 538.226C661.889 540.833 656.63 539.217 654.194 535.813C651.759 532.408 651.565 527.862 652.125 523.703C653.806 511.443 661.997 500.497 672.795 494.658C686.719 487.138 699.113 492.934 710.428 502.673C726.335 516.356 727.391 539.799 728.34 559.019C729.482 582.376 715.537 606.961 704.048 626.354C701.052 631.396 708.381 637.386 712.304 632.732C723.813 619.071 732.004 606.272 737.543 589.185C743.147 571.861 744.828 552.813 741.682 534.757L741.703 534.778Z" fill="#F9E9D3" fill-opacity="0.5"/>
<path d="M717.757 446.715C711.678 446.715 706.613 451.779 706.613 457.855C706.613 463.931 711.678 468.995 717.757 468.995C723.835 468.995 728.9 463.931 728.9 457.855C728.9 451.779 723.835 446.715 717.757 446.715Z" fill="#F9E9D3" fill-opacity="0.5"/>
<path d="M755.799 486.276C749.721 486.276 744.656 491.339 744.656 497.416C744.656 503.492 749.721 508.555 755.799 508.555C761.878 508.555 766.943 503.492 766.943 497.416C766.943 491.339 761.878 486.276 755.799 486.276Z" fill="#F9E9D3" fill-opacity="0.5"/>
<path d="M580.674 631.956C573.82 629.586 567.009 626.699 560.478 623.553C553.02 619.933 548.882 612.736 542.89 607.371C537.695 602.717 528.341 597.825 520.323 597.674C519.331 589.206 518.814 580.76 519.03 572.615C519.676 572.615 520.237 572.486 520.689 572.184C525.97 572.012 533.04 578.153 535.971 580.868C541.316 585.824 544.959 592.676 549.96 598.041C558.387 607.112 572.527 615.946 584.64 618.424C588.864 619.286 591.645 613.533 588.283 610.797C582.075 605.733 574.531 602.717 567.677 598.579C558.215 592.891 551.878 584.423 544.657 576.343C539.678 570.741 526.38 561.109 517.974 565.354C515.797 563.091 511.4 563.242 511.055 567.185C509.503 585.716 512.607 604.139 514.741 622.518C516.012 633.335 518.857 643.979 520.409 654.796C520.711 656.908 520.883 659.235 521.034 661.605C518.124 661.368 515.172 662.359 511.357 663.092C505.408 664.255 501.162 666.992 496.614 670.892C487.324 678.821 485.363 692.073 496.226 699.679C509.158 708.75 532.221 692.741 534.355 677.571C535.626 674.382 535.066 670.849 534.355 666.97C532.436 656.671 530.259 646.436 527.673 636.287C525.108 626.203 522.78 615.365 521.185 604.397C533.32 607.004 540.95 618.683 549.076 627.302C556.663 635.36 568.841 638.571 579.445 638.679C582.872 638.722 583.95 633.12 580.674 631.978V631.956Z" fill="#F9E9D3" fill-opacity="0.5"/>
<path d="M1355.82 555.55C1350.13 551.047 1344.65 546.091 1339.52 540.962C1333.66 535.08 1332.15 526.935 1328.25 519.889C1324.87 513.791 1317.67 506.078 1310.12 503.298C1311.98 494.981 1314.28 486.836 1317.15 479.208C1317.75 479.445 1318.34 479.488 1318.85 479.359C1323.9 480.932 1328.55 489.077 1330.41 492.589C1333.81 499.032 1335.02 506.702 1337.95 513.404C1342.93 524.737 1353.36 537.752 1363.99 544.065C1367.69 546.263 1372.22 541.76 1369.94 538.054C1365.75 531.223 1359.61 525.879 1354.5 519.738C1347.45 511.249 1344.24 501.165 1340.1 491.167C1337.24 484.25 1327.86 470.762 1318.53 472.012C1317.21 469.146 1313.01 467.853 1311.39 471.473C1303.81 488.452 1300.68 506.875 1296.65 524.931C1294.28 535.576 1293.46 546.565 1291.37 557.274C1290.96 559.385 1290.36 561.605 1289.73 563.91C1287.06 562.725 1283.96 562.682 1280.1 562.122C1274.11 561.26 1269.19 562.467 1263.61 564.643C1252.23 569.081 1246 580.932 1253.74 591.684C1262.96 604.505 1290.01 596.985 1297.02 583.367C1299.28 580.782 1299.91 577.269 1300.51 573.369C1302.1 563.027 1303.4 552.619 1304.3 542.191C1305.21 531.826 1306.59 520.816 1308.68 509.935C1319.28 516.399 1322.65 529.952 1327.45 540.747C1331.96 550.853 1342.41 557.899 1352.39 561.475C1355.6 562.639 1358.49 557.705 1355.75 555.55H1355.82Z" fill="#F9E9D3" fill-opacity="0.5"/>
<path d="M404.471 631.568C406.281 629.65 407.704 627.194 408.803 625.125C411.217 620.601 415.054 616.938 417.511 612.348C420.162 607.392 422.834 602.544 425.852 597.804C432.124 587.978 438.181 577.463 442.966 566.819C445.574 561.001 450.186 552.275 450.014 545.767C449.949 543.763 448.656 542.751 447.234 542.643C444.518 539.432 440.056 537.903 436.306 535.252C429.602 530.512 421.067 527.237 413.933 522.949C401.194 515.3 388.456 506.659 374.942 500.13C377.291 498.514 378.757 495.95 381.02 492.912C384.361 488.495 385.546 484.035 386.236 478.605C387.68 467.551 380.912 457.359 368.885 458.825C350.349 461.109 345.995 502.221 367.118 502.975C370.178 505.259 373.67 507.133 376.666 509.245C385.223 515.257 393.694 521.225 402.574 526.763C408.932 530.749 415.312 535.08 422.015 538.571C412.187 551.003 402.531 563.544 392.745 576.02C387.335 582.915 382.119 589.982 376.838 596.985C373.304 601.661 368.562 606.186 367.333 612.068C367.29 612.305 367.268 612.542 367.247 612.779C365.286 611.745 363.303 610.732 361.363 609.655C353.797 605.474 346.447 601.165 339.292 596.317C333.925 592.675 328.019 589.357 322.867 585.242C326.187 583.777 327.717 580.825 330.433 577.205C333.774 572.787 334.959 568.327 335.649 562.897C337.093 551.844 330.325 541.652 318.298 543.117C300.02 545.358 295.537 585.393 315.712 587.203C324.786 597.976 339.442 606.595 350.413 613.835C364.984 623.466 382.981 634.283 399.966 638.786C404.643 640.036 406.841 634.736 404.427 631.547L404.471 631.568ZM375.481 617.024C375.481 617.024 375.653 616.894 375.718 616.808C385.525 606.897 392.767 593.365 400.397 581.751C408.932 568.78 420.916 555.722 427.49 541.307C432.383 543.85 436.823 547.383 441.888 549.538C441.004 551.046 440.013 552.555 439.539 553.611C437.362 558.631 434.818 563.479 432.189 568.284C427.038 577.7 420.787 586.922 414.601 595.692C409.105 603.492 404.039 611.551 398.586 619.372C397.207 621.355 395.245 623.337 394.125 625.513C390.676 624.005 387.141 622.626 383.822 621.075C380.998 619.76 378.239 618.381 375.481 617.002V617.024Z" fill="#F9E9D3" fill-opacity="0.5"/>
<path d="M773.301 709.677C776.211 704.548 777.978 699.075 777.483 693.365C776.125 677.959 763.645 665.634 749.894 660.01C735.323 654.063 721.313 660.14 709.264 668.392C691.655 680.48 676.395 696.123 662.061 711.831C654.108 720.558 646.025 729.306 638.072 738.162C634.3 737.666 630.55 737.106 626.799 736.373C613.867 733.831 602.335 727.582 589.08 726.203C566.146 723.79 543.709 731.159 527.414 747.492C508.554 766.41 503.662 789.315 509.567 814.719C512.757 828.488 519.676 842.536 530.065 852.491C529.181 853.267 528.298 854.064 527.414 854.861C513.425 868.091 504.459 882.743 484.673 887.635C478.465 889.164 471.632 889.078 466.007 886.04C457.493 881.451 456.135 871.388 456.437 862.597C458.937 864.795 462.364 866.346 466.912 867.466C477.193 870.03 484.198 869.664 491.505 861.476C497.368 854.904 499.114 843.484 497.325 835.189C495.083 824.76 484.888 819.847 475.081 819.136C451.048 817.391 443.074 847.104 442.88 866.044C442.642 892.44 461.416 904.312 486.009 898.516C497.411 895.822 508.447 890.263 517.65 883.045C520.538 880.783 538.794 859.343 540.799 860.464C544.743 862.64 549.033 864.299 553.645 865.269C564.163 867.466 577.484 863.911 587.7 861.239C598.24 858.503 606.84 852.513 613.996 844.389C628.071 828.38 628.308 806.531 617.294 789.013C616.518 787.785 615.634 786.6 614.729 785.436C620.656 778.455 626.239 771.129 632.101 764.105C635.14 760.463 638.309 756.93 641.52 753.439C652.06 754.796 662.665 755.594 673.162 757.447C703.574 762.812 734.375 750.552 756.273 729.565C762.072 724.005 768.926 717.218 773.236 709.655L773.301 709.677ZM605.525 776.667C594.123 768.414 578.842 764.557 565.845 768.867C548.041 774.749 530.647 794.766 533.578 814.417C534.333 819.524 541.489 818.705 541.446 813.642C541.338 798.602 555.391 786.514 567.871 780.825C572.634 778.649 581.536 779.446 586.213 780.868C590.114 782.054 593.714 783.885 596.99 786.212C596.861 786.341 596.731 786.492 596.602 786.621C588.713 794.788 580.07 802.179 572.289 810.474C565.392 817.822 559.228 825.837 552.417 833.271C548.925 837.106 544.98 840.403 540.971 843.592C530.82 834.585 525.517 821.549 522.564 808.513C519.396 794.529 520.732 781.795 528.427 769.599C536.079 757.49 546.101 748.569 559.594 743.656C583.088 735.124 604.297 745.747 626.821 750.896C623.717 754.495 620.656 758.115 617.66 761.756C613.608 766.712 609.642 771.711 605.525 776.602V776.667ZM581.989 848.936C571.858 850.961 562.051 853.245 552.804 850.509C560.197 843.937 566.642 836.546 573.087 828.919C582.7 817.542 593.369 807.479 604.017 797.115C604.728 796.425 605.396 795.714 606.086 795.003C622.079 815.926 605.849 844.152 582.01 848.914L581.989 848.936ZM743.815 720.041C733.383 728.013 722.628 736.783 710.558 742.127C696.504 748.354 680.21 743.893 665.833 741.566C661.91 740.92 657.966 740.446 654.022 739.993C656.824 736.912 659.583 733.809 662.255 730.599C671.329 719.739 681.18 709.526 691.396 699.743C701.871 689.702 714.265 678.304 727.758 672.572C741.121 666.884 753.342 675.481 761.102 685.867C771.663 700.002 753.579 712.585 743.794 720.041H743.815Z" fill="#F9E9D3" fill-opacity="0.5"/>
<path d="M391.905 768.673C386.883 755.055 382.399 741.071 376.537 727.819C370.631 714.482 367.958 700.735 360.393 687.936C358.539 684.811 354.25 687.742 355.737 690.844C361.255 702.372 364.014 714.137 366.643 726.527C368.799 736.762 372.894 746.953 375.61 757.124C376.407 760.054 377.463 762.812 378.563 765.505C371.924 765.204 364.1 768.759 359.488 771.452C350.284 776.818 344.378 784.294 342.977 795.025C340.52 813.922 359.811 827.497 376.213 818.382C392.875 809.095 398.026 785.286 391.905 768.694V768.673Z" fill="#F9E9D3" fill-opacity="0.5"/>
<path d="M1094.61 789.035C1089.22 758.093 1066.95 726.139 1032.55 726.225C1002.83 726.289 975.52 765.053 985.111 793.043C989.056 804.527 999.682 813.836 1011.8 814.762C1023.91 815.689 1036.47 807.177 1038.78 795.24C1039.62 790.931 1039.04 786.104 1036.13 782.829C1033.22 779.554 1027.57 778.627 1024.4 781.644C1021.34 784.553 1021.41 789.875 1018.09 792.482C1014.79 795.09 1009.53 793.473 1007.1 790.069C1004.66 786.643 1004.47 782.118 1005.03 777.96C1006.71 765.699 1014.9 754.753 1025.7 748.914C1039.62 741.394 1052.01 747.19 1063.33 756.929C1079.24 770.612 1080.29 794.055 1081.24 813.275C1082.38 836.632 1068.44 861.218 1056.95 880.61C1053.95 885.652 1061.28 891.642 1065.21 886.988C1076.72 873.327 1084.91 860.528 1090.45 843.441C1096.05 826.117 1097.73 807.07 1094.58 789.013L1094.61 789.035Z" fill="#F9E9D3" fill-opacity="0.5"/>
<path d="M1070.66 700.972C1064.58 700.972 1059.52 706.035 1059.52 712.111C1059.52 718.188 1064.58 723.251 1070.66 723.251C1076.74 723.251 1081.8 718.188 1081.8 712.111C1081.8 706.035 1076.74 700.972 1070.66 700.972Z" fill="#F9E9D3" fill-opacity="0.5"/>
<path d="M1108.7 740.532C1102.62 740.532 1097.56 745.596 1097.56 751.672C1097.56 757.748 1102.62 762.812 1108.7 762.812C1114.78 762.812 1119.84 757.748 1119.84 751.672C1119.84 745.596 1114.78 740.532 1108.7 740.532Z" fill="#F9E9D3" fill-opacity="0.5"/>
<path d="M842.403 560.743C848.74 564.276 854.947 568.284 860.81 572.529C867.535 577.399 870.337 585.199 875.316 591.534C879.627 597.007 887.99 603.471 895.857 605.022C895.361 613.533 894.391 621.937 892.774 629.931C892.128 629.801 891.567 629.844 891.072 630.06C885.834 629.306 879.95 622.023 877.536 618.855C873.139 613.038 870.725 605.669 866.759 599.506C860.034 589.12 847.641 577.937 836.152 573.412C832.143 571.839 828.415 577.011 831.238 580.286C836.476 586.362 843.373 590.65 849.408 595.886C857.728 603.148 862.513 612.564 868.203 621.786C872.126 628.164 883.549 639.972 892.581 637.257C894.326 639.864 898.702 640.489 899.715 636.653C904.478 618.683 904.629 599.98 905.707 581.536C906.353 570.654 905.384 559.687 905.728 548.784C905.793 546.651 906.03 544.345 906.289 541.975C909.134 542.708 912.195 542.255 916.074 542.191C922.131 542.083 926.787 540.122 931.938 537.062C942.456 530.857 946.702 518.166 937.348 508.793C926.183 497.61 900.706 509.374 895.965 523.94C894.154 526.849 894.089 530.426 894.111 534.369C894.197 544.841 894.585 555.313 895.361 565.742C896.137 576.127 896.525 587.203 896.202 598.278C884.692 593.602 879.217 580.76 872.729 570.87C866.651 561.626 855.228 556.326 844.795 554.386C841.433 553.761 839.385 559.084 842.425 560.786L842.403 560.743Z" fill="#F9E9D3" fill-opacity="0.5"/>
<path d="M897.754 703.148C895.146 703.449 892.473 704.398 890.296 705.259C885.533 707.156 880.23 707.479 875.381 709.396C870.143 711.465 864.992 713.447 859.603 715.106C848.46 718.576 837.058 722.691 826.539 727.733C820.785 730.47 811.624 734.176 807.572 739.261C806.322 740.834 806.667 742.428 807.68 743.441C807.68 747.643 810.094 751.694 811.258 756.132C813.305 764.083 817.724 772.099 820.397 779.963C825.182 794.034 829.341 808.858 835.42 822.562C832.575 822.282 829.816 823.295 826.108 824.135C820.698 825.363 816.926 827.992 812.874 831.698C804.619 839.218 803.218 851.371 813.348 857.986C828.975 868.199 858.87 839.627 843.222 825.406C842.36 821.679 840.894 817.994 839.968 814.439C837.316 804.312 834.708 794.314 831.497 784.337C829.212 777.184 827.143 769.772 824.276 762.769C839.795 759.623 855.292 756.283 870.79 753.051C879.368 751.263 887.925 749.237 896.482 747.319C902.194 746.027 908.746 745.617 913.466 741.933C913.66 741.782 913.833 741.609 913.984 741.459C914.803 743.527 915.665 745.553 916.462 747.643C919.523 755.723 922.368 763.76 924.696 772.077C926.442 778.304 928.813 784.661 930.084 791.125C926.614 790.091 923.532 791.362 919.114 792.375C913.703 793.603 909.932 796.231 905.879 799.938C897.624 807.458 896.223 819.61 906.354 826.225C921.765 836.309 951.035 808.621 936.809 794.228C936.852 780.136 931.205 764.105 927.498 751.5C922.584 734.736 915.837 714.869 905.772 700.476C902.991 696.511 897.904 699.14 897.689 703.126L897.754 703.148ZM910.492 732.969C910.384 732.969 910.276 732.969 910.169 732.969C896.266 734.219 882.019 739.886 868.699 743.829C853.805 748.224 836.217 750.465 821.884 757.231C819.771 752.125 818.694 746.565 816.215 741.653C817.853 741.071 819.599 740.575 820.634 740.058C825.548 737.645 830.613 735.555 835.721 733.594C845.744 729.737 856.456 726.72 866.845 724.005C876.07 721.592 885.145 718.705 894.37 716.248C896.697 715.624 899.478 715.365 901.741 714.439C903.401 717.821 905.211 721.14 906.763 724.479C908.056 727.302 909.285 730.125 910.514 732.969H910.492Z" fill="#F9E9D3" fill-opacity="0.5"/>
<path d="M1138.73 486.685C1133.66 483.668 1128.21 481.815 1122.47 482.203C1107.04 483.259 1094.5 495.519 1088.61 509.18C1082.38 523.638 1088.2 537.752 1096.24 549.948C1108.01 567.767 1123.36 583.303 1138.81 597.933C1147.39 606.035 1155.99 614.287 1164.72 622.389C1164.16 626.138 1163.53 629.887 1162.74 633.615C1159.96 646.479 1153.49 657.92 1151.85 671.129C1149.01 694.012 1155.97 716.572 1172.01 733.141C1190.58 752.34 1213.41 757.641 1238.91 752.232C1252.72 749.302 1266.91 742.644 1277.06 732.452C1277.81 733.357 1278.59 734.262 1279.39 735.145C1292.34 749.388 1306.85 758.61 1311.37 778.477C1312.8 784.704 1312.58 791.534 1309.43 797.093C1304.67 805.518 1294.6 806.703 1285.81 806.229C1288.05 803.773 1289.67 800.369 1290.88 795.844C1293.63 785.63 1293.4 778.606 1285.36 771.151C1278.89 765.182 1267.51 763.221 1259.17 764.859C1248.69 766.927 1243.61 777.012 1242.7 786.794C1240.5 810.776 1270.1 819.309 1289.02 819.826C1315.43 820.558 1327.65 802.006 1322.3 777.313C1319.82 765.872 1314.46 754.732 1307.43 745.402C1305.23 742.471 1284.11 723.833 1285.27 721.829C1287.53 717.929 1289.26 713.684 1290.31 709.095C1292.71 698.623 1289.39 685.242 1286.91 674.986C1284.37 664.385 1278.55 655.679 1270.53 648.397C1254.77 634.046 1232.94 633.378 1215.2 644.066C1213.95 644.82 1212.74 645.682 1211.58 646.565C1204.7 640.51 1197.48 634.8 1190.56 628.789C1186.99 625.686 1183.52 622.454 1180.07 619.179C1181.62 608.664 1182.61 598.084 1184.66 587.634C1190.58 557.338 1178.88 526.31 1158.3 504.031C1152.84 498.127 1146.18 491.167 1138.68 486.707L1138.73 486.685ZM1202.63 655.615C1194.16 666.862 1190.02 682.053 1194.1 695.132C1199.66 713.038 1219.36 730.793 1239.08 728.207C1244.21 727.539 1243.52 720.364 1238.46 720.321C1223.41 720.17 1211.58 705.884 1206.13 693.301C1204.03 688.496 1205 679.618 1206.51 674.964C1207.76 671.086 1209.68 667.53 1212.05 664.298C1212.18 664.428 1212.31 664.557 1212.46 664.686C1220.48 672.723 1227.72 681.493 1235.87 689.422C1243.09 696.447 1250.98 702.76 1258.31 709.698C1262.08 713.275 1265.29 717.261 1268.44 721.334C1259.23 731.31 1246.11 736.374 1233.02 739.089C1218.99 741.997 1206.28 740.424 1194.23 732.517C1182.24 724.652 1173.51 714.46 1168.86 700.885C1160.75 677.248 1171.79 656.24 1177.35 633.831C1180.89 636.998 1184.46 640.122 1188.04 643.204C1192.91 647.362 1197.85 651.413 1202.68 655.593L1202.63 655.615ZM1274.47 680.459C1276.33 690.607 1278.42 700.454 1275.51 709.655C1269.06 702.157 1261.8 695.563 1254.3 688.991C1243.11 679.166 1233.24 668.328 1223.05 657.489C1222.38 656.778 1221.67 656.089 1220.98 655.378C1242.19 639.778 1270.12 656.52 1274.45 680.437L1274.47 680.459ZM1148.55 516.356C1156.34 526.935 1164.91 537.838 1170.02 549.991C1175.99 564.147 1171.23 580.351 1168.62 594.701C1167.91 598.623 1167.35 602.544 1166.83 606.466C1163.81 603.6 1160.75 600.777 1157.61 598.062C1146.92 588.797 1136.89 578.756 1127.28 568.37C1117.43 557.726 1106.27 545.121 1100.79 531.525C1095.36 518.058 1104.18 506.013 1114.69 498.45C1129.03 488.15 1141.27 506.465 1148.55 516.377V516.356Z" fill="#F9E9D3" fill-opacity="0.5"/>
<path d="M1023.11 577.097C1016.49 590.004 1009.23 602.781 1003.45 616.076C997.634 629.457 989.314 640.726 985.047 654.968C984.012 658.437 989.077 659.623 990.349 656.412C995.091 644.54 1001.88 634.542 1009.23 624.221C1015.29 615.688 1020.03 605.798 1025.65 596.899C1027.27 594.335 1028.56 591.684 1029.81 589.056C1034.1 594.141 1041.99 597.481 1047.1 599.054C1057.27 602.199 1066.78 601.488 1075.64 595.24C1091.2 584.251 1088.14 560.85 1070.31 554.99C1052.19 549.021 1031.19 561.368 1023.11 577.097Z" fill="#F9E9D3" fill-opacity="0.5"/>
<path d="M1360.6 722.713C1357.35 736.848 1353.47 751.004 1351.12 765.333C1348.77 779.726 1343.47 792.698 1342.82 807.544C1342.67 811.164 1347.86 811.056 1348.32 807.652C1350 794.982 1354.11 783.627 1358.71 771.819C1362.5 762.058 1364.65 751.306 1367.93 741.308C1368.88 738.421 1369.48 735.533 1370.02 732.689C1375.41 736.568 1383.9 737.86 1389.25 738.14C1399.9 738.679 1408.93 735.663 1415.97 727.432C1428.37 712.952 1419.64 691.038 1400.91 689.724C1381.88 688.388 1364.55 705.518 1360.6 722.756V722.713Z" fill="#F9E9D3" fill-opacity="0.5"/>
<path d="M726.615 911.854C721.227 880.912 698.962 848.957 664.562 849.044C634.839 849.108 607.53 887.872 617.122 915.861C621.066 927.346 631.692 936.654 643.805 937.581C655.919 938.507 668.485 929.996 670.791 918.059C671.631 913.75 671.049 908.923 668.14 905.648C665.23 902.373 659.583 901.446 656.414 904.463C653.354 907.372 653.418 912.694 650.099 915.301C646.801 917.908 641.542 916.292 639.107 912.888C636.671 909.483 636.477 904.937 637.037 900.778C638.719 888.518 646.909 877.572 657.708 871.733C671.631 864.213 684.025 870.009 695.341 879.748C711.247 893.431 712.304 916.874 713.252 936.094C714.394 959.451 700.449 984.037 688.961 1003.43C685.965 1008.47 693.293 1014.46 697.216 1009.81C708.726 996.146 716.916 983.347 722.456 966.26C728.06 948.936 729.741 929.889 726.594 911.832L726.615 911.854Z" fill="#F9E9D3" fill-opacity="0.5"/>
<path d="M702.669 823.79C696.591 823.79 691.526 828.854 691.526 834.93C691.526 841.006 696.591 846.07 702.669 846.07C708.747 846.07 713.812 841.006 713.812 834.93C713.812 828.854 708.747 823.79 702.669 823.79Z" fill="#F9E9D3" fill-opacity="0.5"/>
<path d="M740.712 863.351C734.634 863.351 729.568 868.414 729.568 874.491C729.568 880.567 734.634 885.631 740.712 885.631C746.79 885.631 751.855 880.567 751.855 874.491C751.855 868.414 746.79 863.351 740.712 863.351Z" fill="#F9E9D3" fill-opacity="0.5"/>
<path d="M585.567 1010.91C578.713 1008.54 571.902 1005.65 565.371 1002.5C557.913 998.883 553.775 991.686 547.783 986.321C542.588 981.666 533.234 976.775 525.216 976.624C524.224 968.156 523.707 959.71 523.922 951.565C524.569 951.565 525.13 951.436 525.582 951.134C530.863 950.962 537.933 957.103 540.864 959.818C546.209 964.774 549.852 971.626 554.852 976.991C563.28 986.062 577.419 994.896 589.533 997.374C593.757 998.236 596.538 992.483 593.175 989.747C586.968 984.683 579.424 981.666 572.57 977.529C563.108 971.841 556.771 963.373 549.572 955.293C544.593 949.69 531.294 940.059 522.888 944.304C520.711 942.041 516.314 942.192 515.969 946.135C514.417 964.666 517.521 983.089 519.655 1001.47C520.926 1012.28 523.772 1022.93 525.324 1033.75C525.625 1035.86 525.798 1038.18 525.949 1040.55C523.039 1040.32 520.086 1041.31 516.271 1042.04C510.322 1043.21 506.076 1045.94 501.528 1049.84C492.238 1057.77 490.277 1071.02 501.14 1078.63C514.072 1087.7 537.135 1071.69 539.269 1056.52C540.541 1053.33 539.98 1049.8 539.269 1045.92C537.351 1035.62 535.174 1025.39 532.587 1015.24C530.022 1005.15 527.694 994.315 526.099 983.347C538.234 985.954 545.864 997.633 553.99 1006.25C561.577 1014.31 573.755 1017.52 584.36 1017.63C587.787 1017.67 588.864 1012.07 585.588 1010.93L585.567 1010.91Z" fill="#F9E9D3" fill-opacity="0.5"/>
<path d="M1412.57 969.837C1406.88 965.334 1401.4 960.378 1396.27 955.25C1390.41 949.367 1388.9 941.222 1385 934.176C1381.62 928.079 1374.42 920.365 1366.87 917.585C1368.73 909.268 1371.03 901.123 1373.9 893.495C1374.5 893.732 1375.09 893.776 1375.6 893.646C1380.65 895.219 1385.3 903.364 1387.16 906.876C1390.56 913.319 1391.77 920.99 1394.7 927.691C1399.68 939.025 1410.11 952.039 1420.74 958.352C1424.45 960.55 1428.97 956.047 1426.69 952.341C1422.51 945.51 1416.36 940.167 1411.25 934.026C1404.21 925.536 1400.99 915.452 1396.86 905.454C1393.99 898.537 1384.61 885.049 1375.28 886.299C1373.97 883.433 1369.76 882.14 1368.15 885.76C1360.56 902.739 1357.43 921.162 1353.4 939.218C1351.03 949.863 1350.21 960.852 1348.12 971.561C1347.71 973.672 1347.11 975.892 1346.48 978.197C1343.81 977.012 1340.71 976.969 1336.85 976.409C1330.86 975.547 1325.94 976.754 1320.36 978.93C1308.98 983.369 1302.75 995.219 1310.49 1005.97C1319.71 1018.79 1346.76 1011.27 1353.77 997.654C1356.03 995.069 1356.66 991.556 1357.26 987.656C1358.86 977.314 1360.15 966.907 1361.05 956.478C1361.96 946.114 1363.34 935.103 1365.43 924.222C1376.03 930.686 1379.4 944.239 1384.2 955.034C1388.71 965.14 1399.16 972.186 1409.14 975.762C1412.35 976.926 1415.24 971.992 1412.5 969.837H1412.57Z" fill="#F9E9D3" fill-opacity="0.5"/>
<path d="M404.471 1051.74C406.281 1049.82 407.704 1047.36 408.803 1045.29C411.217 1040.77 415.054 1037.11 417.511 1032.52C420.162 1027.56 422.834 1022.71 425.852 1017.97C432.124 1008.15 438.181 997.633 442.966 986.988C445.574 981.171 450.186 972.444 450.014 965.937C449.949 963.933 448.656 962.92 447.234 962.812C444.518 959.602 440.056 958.072 436.306 955.422C429.602 950.681 421.067 947.406 413.933 943.118C401.194 935.469 388.456 926.829 374.942 920.3C377.291 918.684 378.757 916.12 381.02 913.082C384.361 908.664 385.546 904.204 386.236 898.774C387.68 887.721 380.912 877.529 368.885 878.994C350.349 881.278 345.995 922.39 367.118 923.144C370.178 925.428 373.67 927.303 376.666 929.414C385.223 935.426 393.694 941.395 402.574 946.932C408.932 950.918 415.312 955.249 422.015 958.74C412.187 971.173 402.531 983.713 392.745 996.189C387.335 1003.08 382.119 1010.15 376.838 1017.15C373.304 1021.83 368.562 1026.35 367.333 1032.24C367.29 1032.47 367.268 1032.71 367.247 1032.95C365.286 1031.91 363.303 1030.9 361.363 1029.82C353.797 1025.64 346.447 1021.33 339.292 1016.49C333.925 1012.84 328.019 1009.53 322.867 1005.41C326.187 1003.95 327.717 1000.99 330.433 997.374C333.774 992.957 334.959 988.497 335.649 983.067C337.093 972.013 330.325 961.821 318.298 963.286C300.02 965.527 295.537 1005.56 315.712 1007.37C324.786 1018.15 339.442 1026.76 350.413 1034C364.984 1043.64 382.981 1054.45 399.966 1058.96C404.643 1060.21 406.841 1054.9 404.427 1051.72L404.471 1051.74ZM375.481 1037.19C375.481 1037.19 375.653 1037.06 375.718 1036.98C385.525 1027.07 392.767 1013.53 400.397 1001.92C408.932 988.949 420.916 975.892 427.49 961.476C432.383 964.019 436.823 967.553 441.888 969.707C441.004 971.216 440.013 972.724 439.539 973.78C437.362 978.8 434.818 983.649 432.189 988.454C427.038 997.87 420.787 1007.09 414.601 1015.86C409.105 1023.66 404.039 1031.72 398.586 1039.54C397.207 1041.52 395.245 1043.51 394.125 1045.68C390.676 1044.17 387.141 1042.8 383.822 1041.24C380.998 1039.93 378.239 1038.55 375.481 1037.17V1037.19Z" fill="#F9E9D3" fill-opacity="0.5"/>
<path d="M778.323 1083.67C781.233 1078.54 783 1073.07 782.505 1067.36C781.147 1051.95 768.667 1039.63 754.916 1034C740.345 1028.06 726.335 1034.13 714.287 1042.39C696.677 1054.47 681.417 1070.12 667.083 1085.83C659.13 1094.55 651.047 1103.3 643.094 1112.16C639.322 1111.66 635.572 1111.1 631.821 1110.37C618.889 1107.82 607.358 1101.58 594.102 1100.2C571.169 1097.78 548.731 1105.15 532.436 1121.49C513.576 1140.4 508.684 1163.31 514.589 1188.71C517.779 1202.48 524.698 1216.53 535.087 1226.49C534.204 1227.26 533.32 1228.06 532.436 1228.86C518.448 1242.09 509.481 1256.74 489.695 1261.63C483.487 1263.16 476.655 1263.07 471.029 1260.03C462.515 1255.44 461.157 1245.38 461.459 1236.59C463.959 1238.79 467.386 1240.34 471.934 1241.46C482.215 1244.02 489.221 1243.66 496.527 1235.47C502.39 1228.9 504.136 1217.48 502.347 1209.18C500.105 1198.75 489.91 1193.84 480.103 1193.13C456.071 1191.38 448.096 1221.1 447.902 1240.04C447.665 1266.43 466.438 1278.31 491.031 1272.51C502.433 1269.82 513.469 1264.26 522.672 1257.04C525.56 1254.78 543.817 1233.34 545.821 1234.46C549.765 1236.63 554.055 1238.29 558.667 1239.26C569.186 1241.46 582.506 1237.91 592.722 1235.23C603.262 1232.5 611.862 1226.51 619.018 1218.38C633.093 1202.37 633.33 1180.53 622.316 1163.01C621.54 1161.78 620.656 1160.59 619.751 1159.43C625.678 1152.45 631.261 1145.12 637.123 1138.1C640.163 1134.46 643.331 1130.92 646.543 1127.43C657.082 1128.79 667.687 1129.59 678.184 1131.44C708.596 1136.81 739.397 1124.55 761.296 1103.56C767.094 1098 773.948 1091.21 778.259 1083.65L778.323 1083.67ZM610.526 1150.66C599.124 1142.41 583.842 1138.55 570.845 1142.86C553.042 1148.74 535.648 1168.76 538.579 1188.41C539.333 1193.52 546.489 1192.7 546.446 1187.64C546.338 1172.6 560.392 1160.51 572.871 1154.82C577.635 1152.64 586.536 1153.44 591.214 1154.86C595.115 1156.05 598.714 1157.88 601.991 1160.21C601.861 1160.34 601.732 1160.49 601.603 1160.62C593.714 1168.78 585.071 1176.17 577.29 1184.47C570.393 1191.82 564.228 1199.83 557.417 1207.27C553.925 1211.1 549.981 1214.4 545.972 1217.59C535.82 1208.58 530.518 1195.54 527.565 1182.51C524.397 1168.52 525.733 1155.79 533.428 1143.59C541.079 1131.48 551.102 1122.56 564.595 1117.65C588.088 1109.12 609.297 1119.74 631.821 1124.89C628.717 1128.49 625.657 1132.11 622.661 1135.75C618.609 1140.71 614.643 1145.7 610.526 1150.6V1150.66ZM587.011 1222.93C576.88 1224.96 567.073 1227.24 557.827 1224.5C565.22 1217.93 571.664 1210.54 578.109 1202.91C587.722 1191.54 598.391 1181.47 609.039 1171.11C609.75 1170.42 610.418 1169.71 611.108 1169C627.101 1189.92 610.871 1218.15 587.032 1222.91L587.011 1222.93ZM748.837 1094.03C738.405 1102.01 727.65 1110.78 715.58 1116.12C701.527 1122.35 685.232 1117.89 670.855 1115.56C666.933 1114.91 662.988 1114.44 659.044 1113.99C661.846 1110.91 664.605 1107.8 667.277 1104.59C676.352 1093.73 686.223 1083.52 696.418 1073.74C706.894 1063.7 719.287 1052.3 732.78 1046.57C746.143 1040.88 758.364 1049.48 766.124 1059.86C776.685 1074 758.601 1086.58 748.816 1094.03H748.837Z" fill="#F9E9D3" fill-opacity="0.5"/>
<path d="M391.905 1188.84C386.883 1175.22 382.399 1161.24 376.537 1147.99C370.631 1134.65 367.958 1120.9 360.393 1108.11C358.539 1104.98 354.25 1107.91 355.737 1111.01C361.255 1122.54 364.014 1134.31 366.643 1146.7C368.799 1156.93 372.894 1167.12 375.61 1177.29C376.407 1180.22 377.463 1182.98 378.563 1185.67C371.924 1185.37 364.1 1188.93 359.488 1191.62C350.284 1196.99 344.378 1204.46 342.977 1215.19C340.52 1234.09 359.811 1247.67 376.213 1238.55C392.875 1229.26 398.026 1205.46 391.905 1188.86V1188.84Z" fill="#F9E9D3" fill-opacity="0.5"/>
<path d="M1706.39 211.786C1699.54 209.416 1692.73 206.529 1686.2 203.383C1678.74 199.763 1674.6 192.566 1668.61 187.201C1663.41 182.547 1654.06 177.656 1646.04 177.505C1645.05 169.037 1644.53 160.59 1644.75 152.446C1645.39 152.446 1645.95 152.316 1646.41 152.015C1651.69 151.842 1658.76 157.983 1661.69 160.698C1667.03 165.654 1670.68 172.506 1675.68 177.871C1684.11 186.943 1698.24 195.777 1710.36 198.255C1714.58 199.117 1717.36 193.364 1714 190.627C1707.79 185.564 1700.25 182.547 1693.39 178.41C1683.93 172.721 1677.6 164.253 1670.38 156.173C1665.4 150.571 1652.1 140.939 1643.69 145.184C1641.51 142.922 1637.12 143.073 1636.77 147.016C1635.22 165.546 1638.32 183.969 1640.46 202.349C1641.73 213.165 1644.58 223.81 1646.13 234.626C1646.43 236.738 1646.6 239.065 1646.75 241.435C1643.84 241.198 1640.89 242.189 1637.07 242.922C1631.13 244.086 1626.88 246.822 1622.33 250.722C1613.04 258.652 1611.08 271.903 1621.94 279.509C1634.88 288.581 1657.94 272.571 1660.07 257.402C1661.34 254.213 1660.78 250.679 1660.07 246.801C1658.15 236.501 1655.98 226.266 1653.39 216.117C1650.83 206.033 1648.5 195.195 1646.9 184.228C1659.04 186.835 1666.67 198.513 1674.79 207.132C1682.38 215.191 1694.56 218.401 1705.16 218.509C1708.59 218.552 1709.67 212.95 1706.39 211.808V211.786Z" fill="#F9E9D3" fill-opacity="0.5"/>
<path d="M1530.17 211.399C1531.98 209.481 1533.4 207.025 1534.5 204.956C1536.91 200.431 1540.75 196.768 1543.21 192.179C1545.86 187.223 1548.53 182.375 1551.55 177.634C1557.82 167.809 1563.88 157.294 1568.66 146.649C1571.27 140.832 1575.88 132.105 1575.71 125.598C1575.65 123.594 1574.35 122.581 1572.93 122.474C1570.21 119.263 1565.75 117.733 1562 115.083C1555.3 110.342 1546.76 107.067 1539.63 102.779C1526.89 95.1302 1514.15 86.4898 1500.64 79.961C1502.99 78.3449 1504.45 75.7808 1506.72 72.7427C1510.06 68.3255 1511.24 63.8653 1511.93 58.4354C1513.38 47.3817 1506.61 37.1899 1494.58 38.6551C1476.05 40.9391 1471.69 82.0511 1492.81 82.8052C1495.87 85.0892 1499.37 86.9638 1502.36 89.0754C1510.92 95.0871 1519.39 101.056 1528.27 106.593C1534.63 110.579 1541.01 114.91 1547.71 118.401C1537.88 130.834 1528.23 143.374 1518.44 155.85C1513.03 162.745 1507.82 169.813 1502.54 176.815C1499 181.491 1494.26 186.016 1493.03 191.898C1492.99 192.135 1492.97 192.372 1492.94 192.61C1490.98 191.575 1489 190.563 1487.06 189.485C1479.49 185.305 1472.14 180.996 1464.99 176.147C1459.62 172.506 1453.72 169.188 1448.56 165.072C1451.88 163.607 1453.41 160.655 1456.13 157.035C1459.47 152.618 1460.66 148.158 1461.35 142.728C1462.79 131.674 1456.02 121.482 1443.99 122.948C1425.72 125.188 1421.23 165.223 1441.41 167.033C1450.48 177.807 1465.14 186.425 1476.11 193.665C1490.68 203.297 1508.68 214.114 1525.66 218.617C1530.34 219.867 1532.54 214.566 1530.12 211.377L1530.17 211.399ZM1501.18 196.854C1501.18 196.854 1501.35 196.725 1501.41 196.639C1511.22 186.727 1518.46 173.196 1526.09 161.582C1534.63 148.61 1546.61 135.553 1553.19 121.138C1558.08 123.68 1562.52 127.214 1567.58 129.369C1566.7 130.877 1565.71 132.385 1565.24 133.441C1563.06 138.462 1560.52 143.31 1557.89 148.115C1552.73 157.531 1546.48 166.753 1540.3 175.523C1534.8 183.323 1529.74 191.381 1524.28 199.203C1522.9 201.185 1520.94 203.168 1519.82 205.344C1516.37 203.836 1512.84 202.457 1509.52 200.905C1506.69 199.591 1503.94 198.212 1501.18 196.833V196.854Z" fill="#F9E9D3" fill-opacity="0.5"/>
<path d="M1899 289.507C1901.91 284.379 1903.67 278.906 1903.18 273.196C1901.82 257.79 1889.34 245.465 1875.59 239.841C1861.02 233.894 1847.01 239.97 1834.96 248.223C1817.35 260.311 1802.09 275.954 1787.76 291.662C1779.8 300.388 1771.72 309.136 1763.77 317.992C1760 317.497 1756.25 316.937 1752.5 316.204C1739.56 313.661 1728.03 307.413 1714.78 306.034C1691.84 303.62 1669.41 310.99 1653.11 327.322C1634.25 346.241 1629.36 369.145 1635.26 394.549C1638.45 408.318 1645.37 422.367 1655.76 432.322C1654.88 433.097 1653.99 433.894 1653.11 434.692C1639.12 447.922 1630.16 462.574 1610.37 467.465C1604.16 468.995 1597.33 468.909 1591.7 465.87C1583.19 461.281 1581.83 451.218 1582.13 442.427C1584.63 444.625 1588.06 446.176 1592.61 447.297C1602.89 449.861 1609.89 449.495 1617.2 441.307C1623.06 434.735 1624.81 423.315 1623.02 415.019C1620.78 404.59 1610.58 399.678 1600.78 398.967C1576.74 397.221 1568.77 426.935 1568.58 445.875C1568.34 472.27 1587.11 484.142 1611.71 478.346C1623.11 475.653 1634.14 470.094 1643.35 462.875C1646.23 460.613 1664.49 439.174 1666.5 440.294C1670.44 442.47 1674.73 444.129 1679.34 445.099C1689.86 447.297 1703.18 443.742 1713.4 441.07C1723.94 438.333 1732.54 432.343 1739.69 424.22C1753.77 408.21 1754 386.361 1742.99 368.844C1742.21 367.615 1741.33 366.43 1740.43 365.267C1746.35 358.286 1751.94 350.959 1757.8 343.935C1760.84 340.294 1764.01 336.76 1767.22 333.269C1777.76 334.627 1788.36 335.424 1798.86 337.277C1829.27 342.642 1860.07 330.382 1881.97 309.395C1887.77 303.836 1894.62 297.049 1898.93 289.485L1899 289.507ZM1731.22 356.497C1719.82 348.245 1704.54 344.388 1691.54 348.697C1673.74 354.579 1656.34 374.597 1659.27 394.248C1660.03 399.354 1667.19 398.536 1667.14 393.472C1667.03 378.432 1681.09 366.344 1693.57 360.656C1698.33 358.479 1707.23 359.277 1711.91 360.699C1715.81 361.884 1719.41 363.715 1722.69 366.042C1722.56 366.172 1722.43 366.323 1722.3 366.452C1714.41 374.618 1705.77 382.009 1697.99 390.305C1691.09 397.652 1684.92 405.668 1678.11 413.102C1674.62 416.937 1670.68 420.234 1666.67 423.423C1656.52 414.416 1651.21 401.38 1648.26 388.344C1645.09 374.36 1646.43 361.625 1654.12 349.43C1661.78 337.32 1671.8 328.4 1685.29 323.487C1708.78 314.954 1729.99 325.577 1752.52 330.727C1749.41 334.325 1746.35 337.945 1743.36 341.586C1739.3 346.542 1735.34 351.541 1731.22 356.432V356.497ZM1707.69 428.766C1697.55 430.792 1687.75 433.076 1678.5 430.339C1685.89 423.767 1692.34 416.377 1698.78 408.749C1708.4 397.372 1719.07 387.31 1729.71 376.945C1730.42 376.256 1731.09 375.545 1731.78 374.834C1747.78 395.756 1731.55 423.983 1707.71 428.745L1707.69 428.766ZM1869.51 299.871C1859.06 307.844 1848.32 316.613 1836.25 321.957C1822.2 328.184 1805.91 323.724 1791.53 321.397C1787.61 320.75 1783.66 320.276 1779.72 319.824C1782.52 316.743 1785.28 313.64 1787.95 310.429C1797.03 299.57 1806.88 289.356 1817.09 279.574C1827.57 269.533 1839.96 258.134 1853.45 252.403C1866.82 246.714 1879.04 255.312 1886.8 265.697C1897.36 279.832 1879.28 292.416 1869.49 299.871H1869.51Z" fill="#F9E9D3" fill-opacity="0.5"/>
<path d="M1517.62 348.503C1512.6 334.885 1508.12 320.901 1502.25 307.65C1496.35 294.312 1493.68 280.565 1486.11 267.766C1484.26 264.642 1479.97 267.572 1481.45 270.675C1486.97 282.203 1489.73 293.967 1492.36 306.357C1494.52 316.592 1498.61 326.784 1501.33 336.954C1502.13 339.884 1503.18 342.642 1504.28 345.336C1497.64 345.034 1489.82 348.589 1485.21 351.283C1476 356.648 1470.1 364.125 1468.7 374.855C1466.24 393.752 1485.53 407.327 1501.93 398.213C1518.59 388.926 1523.74 365.116 1517.62 348.525V348.503Z" fill="#F9E9D3" fill-opacity="0.5"/>
<path d="M1706.39 631.956C1699.54 629.586 1692.73 626.699 1686.2 623.553C1678.74 619.933 1674.6 612.736 1668.61 607.371C1663.41 602.717 1654.06 597.825 1646.04 597.674C1645.05 589.206 1644.53 580.76 1644.75 572.615C1645.39 572.615 1645.95 572.486 1646.41 572.184C1651.69 572.012 1658.76 578.153 1661.69 580.868C1667.03 585.824 1670.68 592.676 1675.68 598.041C1684.11 607.112 1698.24 615.946 1710.36 618.424C1714.58 619.286 1717.36 613.533 1714 610.797C1707.79 605.733 1700.25 602.717 1693.39 598.579C1683.93 592.891 1677.6 584.423 1670.38 576.343C1665.4 570.741 1652.1 561.109 1643.69 565.354C1641.51 563.091 1637.12 563.242 1636.77 567.185C1635.22 585.716 1638.32 604.139 1640.46 622.518C1641.73 633.335 1644.58 643.979 1646.13 654.796C1646.43 656.908 1646.6 659.235 1646.75 661.605C1643.84 661.368 1640.89 662.359 1637.07 663.092C1631.13 664.255 1626.88 666.992 1622.33 670.892C1613.04 678.821 1611.08 692.073 1621.94 699.679C1634.88 708.75 1657.94 692.741 1660.07 677.571C1661.34 674.382 1660.78 670.849 1660.07 666.97C1658.15 656.671 1655.98 646.436 1653.39 636.287C1650.83 626.203 1648.5 615.365 1646.9 604.397C1659.04 607.004 1666.67 618.683 1674.79 627.302C1682.38 635.36 1694.56 638.571 1705.16 638.679C1708.59 638.722 1709.67 633.12 1706.39 631.978V631.956Z" fill="#F9E9D3" fill-opacity="0.5"/>
<path d="M1530.17 631.568C1531.98 629.65 1533.4 627.194 1534.5 625.125C1536.91 620.601 1540.75 616.938 1543.21 612.348C1545.86 607.392 1548.53 602.544 1551.55 597.804C1557.82 587.978 1563.88 577.463 1568.66 566.819C1571.27 561.001 1575.88 552.275 1575.71 545.767C1575.65 543.763 1574.35 542.751 1572.93 542.643C1570.21 539.432 1565.75 537.903 1562 535.252C1555.3 530.512 1546.76 527.237 1539.63 522.949C1526.89 515.3 1514.15 506.659 1500.64 500.13C1502.99 498.514 1504.45 495.95 1506.72 492.912C1510.06 488.495 1511.24 484.035 1511.93 478.605C1513.38 467.551 1506.61 457.359 1494.58 458.825C1476.05 461.109 1471.69 502.221 1492.81 502.975C1495.87 505.259 1499.37 507.133 1502.36 509.245C1510.92 515.257 1519.39 521.225 1528.27 526.763C1534.63 530.749 1541.01 535.08 1547.71 538.571C1537.88 551.003 1528.23 563.544 1518.44 576.02C1513.03 582.915 1507.82 589.982 1502.54 596.985C1499 601.661 1494.26 606.186 1493.03 612.068C1492.99 612.305 1492.97 612.542 1492.94 612.779C1490.98 611.745 1489 610.732 1487.06 609.655C1479.49 605.474 1472.14 601.165 1464.99 596.317C1459.62 592.675 1453.72 589.357 1448.56 585.242C1451.88 583.777 1453.41 580.825 1456.13 577.205C1459.47 572.787 1460.66 568.327 1461.35 562.897C1462.79 551.844 1456.02 541.652 1443.99 543.117C1425.72 545.358 1421.23 585.393 1441.41 587.203C1450.48 597.976 1465.14 606.595 1476.11 613.835C1490.68 623.466 1508.68 634.283 1525.66 638.786C1530.34 640.036 1532.54 634.736 1530.12 631.547L1530.17 631.568ZM1501.18 617.024C1501.18 617.024 1501.35 616.894 1501.41 616.808C1511.22 606.897 1518.46 593.365 1526.09 581.751C1534.63 568.78 1546.61 555.722 1553.19 541.307C1558.08 543.85 1562.52 547.383 1567.58 549.538C1566.7 551.046 1565.71 552.555 1565.24 553.611C1563.06 558.631 1560.52 563.479 1557.89 568.284C1552.73 577.7 1546.48 586.922 1540.3 595.692C1534.8 603.492 1529.74 611.551 1524.28 619.372C1522.9 621.355 1520.94 623.337 1519.82 625.513C1516.37 624.005 1512.84 622.626 1509.52 621.075C1506.69 619.76 1503.94 618.381 1501.18 617.002V617.024Z" fill="#F9E9D3" fill-opacity="0.5"/>
<path d="M1899 709.677C1901.91 704.548 1903.67 699.075 1903.18 693.365C1901.82 677.959 1889.34 665.634 1875.59 660.01C1861.02 654.063 1847.01 660.14 1834.96 668.392C1817.35 680.48 1802.09 696.123 1787.76 711.831C1779.8 720.558 1771.72 729.306 1763.77 738.162C1760 737.666 1756.25 737.106 1752.5 736.373C1739.56 733.831 1728.03 727.582 1714.78 726.203C1691.84 723.79 1669.41 731.159 1653.11 747.492C1634.25 766.41 1629.36 789.315 1635.26 814.719C1638.45 828.488 1645.37 842.536 1655.76 852.491C1654.88 853.267 1653.99 854.064 1653.11 854.861C1639.12 868.091 1630.16 882.743 1610.37 887.635C1604.16 889.164 1597.33 889.078 1591.7 886.04C1583.19 881.451 1581.83 871.388 1582.13 862.597C1584.63 864.795 1588.06 866.346 1592.61 867.466C1602.89 870.03 1609.89 869.664 1617.2 861.476C1623.06 854.904 1624.81 843.484 1623.02 835.189C1620.78 824.76 1610.58 819.847 1600.78 819.136C1576.74 817.391 1568.77 847.104 1568.58 866.044C1568.34 892.44 1587.11 904.312 1611.71 898.516C1623.11 895.822 1634.14 890.263 1643.35 883.045C1646.23 880.783 1664.49 859.343 1666.5 860.464C1670.44 862.64 1674.73 864.299 1679.34 865.269C1689.86 867.466 1703.18 863.911 1713.4 861.239C1723.94 858.503 1732.54 852.513 1739.69 844.389C1753.77 828.38 1754 806.531 1742.99 789.013C1742.21 787.785 1741.33 786.6 1740.43 785.436C1746.35 778.455 1751.94 771.129 1757.8 764.105C1760.84 760.463 1764.01 756.93 1767.22 753.439C1777.76 754.796 1788.36 755.594 1798.86 757.447C1829.27 762.812 1860.07 750.552 1881.97 729.565C1887.77 724.005 1894.62 717.218 1898.93 709.655L1899 709.677ZM1731.22 776.667C1719.82 768.414 1704.54 764.557 1691.54 768.867C1673.74 774.749 1656.34 794.766 1659.27 814.417C1660.03 819.524 1667.19 818.705 1667.14 813.642C1667.03 798.602 1681.09 786.514 1693.57 780.825C1698.33 778.649 1707.23 779.446 1711.91 780.868C1715.81 782.054 1719.41 783.885 1722.69 786.212C1722.56 786.341 1722.43 786.492 1722.3 786.621C1714.41 794.788 1705.77 802.179 1697.99 810.474C1691.09 817.822 1684.92 825.837 1678.11 833.271C1674.62 837.106 1670.68 840.403 1666.67 843.592C1656.52 834.585 1651.21 821.549 1648.26 808.513C1645.09 794.529 1646.43 781.795 1654.12 769.599C1661.78 757.49 1671.8 748.569 1685.29 743.656C1708.78 735.124 1729.99 745.747 1752.52 750.896C1749.41 754.495 1746.35 758.115 1743.36 761.756C1739.3 766.712 1735.34 771.711 1731.22 776.602V776.667ZM1707.69 848.936C1697.55 850.961 1687.75 853.245 1678.5 850.509C1685.89 843.937 1692.34 836.546 1698.78 828.919C1708.4 817.542 1719.07 807.479 1729.71 797.115C1730.42 796.425 1731.09 795.714 1731.78 795.003C1747.78 815.926 1731.55 844.152 1707.71 848.914L1707.69 848.936ZM1869.51 720.041C1859.06 728.013 1848.32 736.783 1836.25 742.127C1822.2 748.354 1805.91 743.893 1791.53 741.566C1787.61 740.92 1783.66 740.446 1779.72 739.993C1782.52 736.912 1785.28 733.809 1787.95 730.599C1797.03 719.739 1806.88 709.526 1817.09 699.743C1827.57 689.702 1839.96 678.304 1853.45 672.572C1866.82 666.884 1879.04 675.481 1886.8 685.867C1897.36 700.002 1879.28 712.585 1869.49 720.041H1869.51Z" fill="#F9E9D3" fill-opacity="0.5"/>
<path d="M1517.62 768.673C1512.6 755.055 1508.12 741.071 1502.25 727.819C1496.35 714.482 1493.68 700.735 1486.11 687.936C1484.26 684.811 1479.97 687.742 1481.45 690.844C1486.97 702.372 1489.73 714.137 1492.36 726.527C1494.52 736.762 1498.61 746.953 1501.33 757.124C1502.13 760.054 1503.18 762.812 1504.28 765.505C1497.64 765.204 1489.82 768.759 1485.21 771.452C1476 776.818 1470.1 784.294 1468.7 795.025C1466.24 813.922 1485.53 827.497 1501.93 818.382C1518.59 809.095 1523.74 785.286 1517.62 768.694V768.673Z" fill="#F9E9D3" fill-opacity="0.5"/>
<path d="M1852.33 911.854C1846.95 880.912 1824.68 848.957 1790.28 849.044C1760.56 849.108 1733.25 887.872 1742.84 915.861C1746.78 927.346 1757.41 936.654 1769.52 937.581C1781.64 938.507 1794.2 929.996 1796.51 918.059C1797.35 913.75 1796.77 908.923 1793.86 905.648C1790.95 902.373 1785.3 901.446 1782.13 904.463C1779.07 907.372 1779.14 912.694 1775.82 915.301C1772.52 917.908 1767.26 916.292 1764.82 912.888C1762.39 909.483 1762.2 904.937 1762.76 900.778C1764.44 888.518 1772.63 877.572 1783.43 871.733C1797.35 864.213 1809.74 870.009 1821.06 879.748C1836.97 893.431 1838.02 916.874 1838.97 936.094C1840.11 959.451 1826.17 984.037 1814.68 1003.43C1811.68 1008.47 1819.01 1014.46 1822.93 1009.81C1834.44 996.146 1842.63 983.347 1848.17 966.26C1853.78 948.936 1855.46 929.889 1852.31 911.832L1852.33 911.854Z" fill="#F9E9D3" fill-opacity="0.5"/>
<path d="M1828.37 823.79C1822.29 823.79 1817.22 828.854 1817.22 834.93C1817.22 841.006 1822.29 846.07 1828.37 846.07C1834.44 846.07 1839.51 841.006 1839.51 834.93C1839.51 828.854 1834.44 823.79 1828.37 823.79Z" fill="#F9E9D3" fill-opacity="0.5"/>
<path d="M1866.41 863.351C1860.33 863.351 1855.26 868.414 1855.26 874.491C1855.26 880.567 1860.33 885.631 1866.41 885.631C1872.49 885.631 1877.55 880.567 1877.55 874.491C1877.55 868.414 1872.49 863.351 1866.41 863.351Z" fill="#F9E9D3" fill-opacity="0.5"/>
<path d="M1711.26 1010.91C1704.41 1008.54 1697.6 1005.65 1691.07 1002.5C1683.61 998.883 1679.47 991.686 1673.48 986.321C1668.28 981.666 1658.93 976.775 1650.91 976.624C1649.92 968.156 1649.4 959.71 1649.62 951.565C1650.27 951.565 1650.83 951.436 1651.28 951.134C1656.56 950.962 1663.63 957.103 1666.56 959.818C1671.91 964.774 1675.55 971.626 1680.55 976.991C1688.98 986.062 1703.12 994.896 1715.23 997.374C1719.45 998.236 1722.23 992.483 1718.87 989.747C1712.66 984.683 1705.12 981.666 1698.27 977.529C1688.8 971.841 1682.47 963.373 1675.25 955.293C1670.27 949.69 1656.97 940.059 1648.56 944.304C1646.39 942.041 1641.99 942.192 1641.64 946.135C1640.09 964.666 1643.2 983.089 1645.33 1001.47C1646.6 1012.28 1649.45 1022.93 1651 1033.75C1651.3 1035.86 1651.47 1038.18 1651.62 1040.55C1648.71 1040.32 1645.76 1041.31 1641.95 1042.04C1636 1043.21 1631.75 1045.94 1627.2 1049.84C1617.91 1057.77 1615.95 1071.02 1626.82 1078.63C1639.75 1087.7 1662.81 1071.69 1664.94 1056.52C1666.22 1053.33 1665.66 1049.8 1664.94 1045.92C1663.03 1035.62 1660.85 1025.39 1658.24 1015.24C1655.68 1005.15 1653.35 994.315 1651.75 983.347C1663.89 985.954 1671.52 997.633 1679.64 1006.25C1687.23 1014.31 1699.41 1017.52 1710.01 1017.63C1713.44 1017.67 1714.52 1012.07 1711.24 1010.93L1711.26 1010.91Z" fill="#F9E9D3" fill-opacity="0.5"/>
<path d="M1530.17 1051.74C1531.98 1049.82 1533.4 1047.36 1534.5 1045.29C1536.91 1040.77 1540.75 1037.11 1543.21 1032.52C1545.86 1027.56 1548.53 1022.71 1551.55 1017.97C1557.82 1008.15 1563.88 997.633 1568.66 986.988C1571.27 981.171 1575.88 972.444 1575.71 965.937C1575.65 963.933 1574.35 962.92 1572.93 962.812C1570.21 959.602 1565.75 958.072 1562 955.422C1555.3 950.681 1546.76 947.406 1539.63 943.118C1526.89 935.469 1514.15 926.829 1500.64 920.3C1502.99 918.684 1504.45 916.12 1506.72 913.082C1510.06 908.664 1511.24 904.204 1511.93 898.774C1513.38 887.721 1506.61 877.529 1494.58 878.994C1476.05 881.278 1471.69 922.39 1492.81 923.144C1495.87 925.428 1499.37 927.303 1502.36 929.414C1510.92 935.426 1519.39 941.395 1528.27 946.932C1534.63 950.918 1541.01 955.249 1547.71 958.74C1537.88 971.173 1528.23 983.713 1518.44 996.189C1513.03 1003.08 1507.82 1010.15 1502.54 1017.15C1499 1021.83 1494.26 1026.35 1493.03 1032.24C1492.99 1032.47 1492.97 1032.71 1492.94 1032.95C1490.98 1031.91 1489 1030.9 1487.06 1029.82C1479.49 1025.64 1472.14 1021.33 1464.99 1016.49C1459.62 1012.84 1453.72 1009.53 1448.56 1005.41C1451.88 1003.95 1453.41 1000.99 1456.13 997.374C1459.47 992.957 1460.66 988.497 1461.35 983.067C1462.79 972.013 1456.02 961.821 1443.99 963.286C1425.72 965.527 1421.23 1005.56 1441.41 1007.37C1450.48 1018.15 1465.14 1026.76 1476.11 1034C1490.68 1043.64 1508.68 1054.45 1525.66 1058.96C1530.34 1060.21 1532.54 1054.9 1530.12 1051.72L1530.17 1051.74ZM1501.18 1037.19C1501.18 1037.19 1501.35 1037.06 1501.41 1036.98C1511.22 1027.07 1518.46 1013.53 1526.09 1001.92C1534.63 988.949 1546.61 975.892 1553.19 961.476C1558.08 964.019 1562.52 967.553 1567.58 969.707C1566.7 971.216 1565.71 972.724 1565.24 973.78C1563.06 978.8 1560.52 983.649 1557.89 988.454C1552.73 997.87 1546.48 1007.09 1540.3 1015.86C1534.8 1023.66 1529.74 1031.72 1524.28 1039.54C1522.9 1041.52 1520.94 1043.51 1519.82 1045.68C1516.37 1044.17 1512.84 1042.8 1509.52 1041.24C1506.69 1039.93 1503.94 1038.55 1501.18 1037.17V1037.19Z" fill="#F9E9D3" fill-opacity="0.5"/>
<path d="M1904.02 1083.67C1906.95 1078.54 1908.7 1073.07 1908.2 1067.36C1906.84 1051.95 1894.36 1039.63 1880.61 1034C1866.04 1028.06 1852.03 1034.13 1839.98 1042.39C1822.37 1054.47 1807.11 1070.12 1792.78 1085.83C1784.83 1094.55 1776.74 1103.3 1768.79 1112.16C1765.02 1111.66 1761.27 1111.1 1757.52 1110.37C1744.59 1107.82 1733.05 1101.58 1719.8 1100.2C1696.87 1097.78 1674.43 1105.15 1658.13 1121.49C1639.27 1140.4 1634.38 1163.31 1640.29 1188.71C1643.48 1202.48 1650.39 1216.53 1660.78 1226.49C1659.9 1227.26 1659.02 1228.06 1658.13 1228.86C1644.14 1242.09 1635.18 1256.74 1615.39 1261.63C1609.18 1263.16 1602.35 1263.07 1596.73 1260.03C1588.21 1255.44 1586.85 1245.38 1587.16 1236.59C1589.66 1238.79 1593.08 1240.34 1597.63 1241.46C1607.91 1244.02 1614.92 1243.66 1622.22 1235.47C1628.09 1228.9 1629.83 1217.48 1628.04 1209.18C1625.8 1198.75 1615.61 1193.84 1605.8 1193.13C1581.77 1191.38 1573.79 1221.1 1573.6 1240.04C1573.36 1266.43 1592.13 1278.31 1616.73 1272.51C1628.13 1269.82 1639.17 1264.26 1648.37 1257.04C1651.26 1254.78 1669.51 1233.34 1671.52 1234.46C1675.46 1236.63 1679.75 1238.29 1684.36 1239.26C1694.88 1241.46 1708.2 1237.91 1718.42 1235.23C1728.96 1232.5 1737.56 1226.51 1744.71 1218.38C1758.79 1202.37 1759.03 1180.53 1748.01 1163.01C1747.24 1161.78 1746.35 1160.59 1745.45 1159.43C1751.37 1152.45 1756.96 1145.12 1762.82 1138.1C1765.86 1134.46 1769.03 1130.92 1772.24 1127.43C1782.78 1128.79 1793.38 1129.59 1803.88 1131.44C1834.29 1136.81 1865.09 1124.55 1886.99 1103.56C1892.79 1098 1899.64 1091.21 1903.96 1083.65L1904.02 1083.67ZM1736.24 1150.66C1724.84 1142.41 1709.56 1138.55 1696.56 1142.86C1678.76 1148.74 1661.37 1168.76 1664.3 1188.41C1665.05 1193.52 1672.21 1192.7 1672.16 1187.64C1672.06 1172.6 1686.11 1160.51 1698.59 1154.82C1703.35 1152.64 1712.25 1153.44 1716.93 1154.86C1720.83 1156.05 1724.43 1157.88 1727.71 1160.21C1727.58 1160.34 1727.45 1160.49 1727.32 1160.62C1719.43 1168.78 1710.79 1176.17 1703.01 1184.47C1696.11 1191.82 1689.95 1199.83 1683.14 1207.27C1679.64 1211.1 1675.7 1214.4 1671.69 1217.59C1661.54 1208.58 1656.24 1195.54 1653.28 1182.51C1650.11 1168.52 1651.45 1155.79 1659.15 1143.59C1666.8 1131.48 1676.82 1122.56 1690.31 1117.65C1713.81 1109.12 1735.02 1119.74 1757.54 1124.89C1754.44 1128.49 1751.37 1132.11 1748.38 1135.75C1744.33 1140.71 1740.36 1145.7 1736.24 1150.6V1150.66ZM1712.71 1222.93C1702.58 1224.96 1692.77 1227.24 1683.52 1224.5C1690.92 1217.93 1697.36 1210.54 1703.81 1202.91C1713.42 1191.54 1724.09 1181.47 1734.74 1171.11C1735.45 1170.42 1736.11 1169.71 1736.8 1169C1752.8 1189.92 1736.57 1218.15 1712.73 1222.91L1712.71 1222.93ZM1874.53 1094.03C1864.08 1102.01 1853.35 1110.78 1841.28 1116.12C1827.22 1122.35 1810.93 1117.89 1796.55 1115.56C1792.63 1114.91 1788.68 1114.44 1784.74 1113.99C1787.54 1110.91 1790.3 1107.8 1792.97 1104.59C1802.05 1093.73 1811.92 1083.52 1822.11 1073.74C1832.59 1063.7 1844.98 1052.3 1858.48 1046.57C1871.84 1040.88 1884.06 1049.48 1891.82 1059.86C1902.38 1074 1884.3 1086.58 1874.51 1094.03H1874.53Z" fill="#F9E9D3" fill-opacity="0.5"/>
<path d="M1517.62 1188.84C1512.6 1175.22 1508.12 1161.24 1502.25 1147.99C1496.35 1134.65 1493.68 1120.9 1486.11 1108.11C1484.26 1104.98 1479.97 1107.91 1481.45 1111.01C1486.97 1122.54 1489.73 1134.31 1492.36 1146.7C1494.52 1156.93 1498.61 1167.12 1501.33 1177.29C1502.13 1180.22 1503.18 1182.98 1504.28 1185.67C1497.64 1185.37 1489.82 1188.93 1485.21 1191.62C1476 1196.99 1470.1 1204.46 1468.7 1215.19C1466.24 1234.09 1485.53 1247.67 1501.93 1238.55C1518.59 1229.26 1523.74 1205.46 1517.62 1188.86V1188.84Z" fill="#F9E9D3" fill-opacity="0.5"/>
<path d="M1089.04 1104.92C1083.66 1073.97 1061.39 1042.02 1026.99 1042.11C997.268 1042.17 969.959 1080.93 979.551 1108.92C983.495 1120.41 994.121 1129.72 1006.23 1130.64C1018.35 1131.57 1030.91 1123.06 1033.22 1111.12C1034.06 1106.81 1033.48 1101.99 1030.57 1098.71C1027.66 1095.44 1022.01 1094.51 1018.84 1097.53C1015.78 1100.43 1015.85 1105.76 1012.53 1108.36C1009.23 1110.97 1003.97 1109.35 1001.54 1105.95C999.1 1102.52 998.906 1098 999.467 1093.84C1001.15 1081.58 1009.34 1070.63 1020.14 1064.8C1034.06 1057.28 1046.45 1063.07 1057.77 1072.81C1073.68 1086.49 1074.73 1109.94 1075.68 1129.16C1076.82 1152.51 1062.88 1177.1 1051.39 1196.49C1048.39 1201.53 1055.72 1207.52 1059.65 1202.87C1071.15 1189.21 1079.35 1176.41 1084.88 1159.32C1090.49 1142 1092.17 1122.95 1089.02 1104.89L1089.04 1104.92Z" fill="#F9E9D3" fill-opacity="0.5"/>
<path d="M1065.08 1016.83C1059 1016.83 1053.93 1021.89 1053.93 1027.97C1053.93 1034.05 1059 1039.11 1065.08 1039.11C1071.15 1039.11 1076.22 1034.05 1076.22 1027.97C1076.22 1021.89 1071.15 1016.83 1065.08 1016.83Z" fill="#F9E9D3" fill-opacity="0.5"/>
<path d="M1103.14 1056.39C1097.06 1056.39 1092 1061.46 1092 1067.53C1092 1073.61 1097.06 1078.67 1103.14 1078.67C1109.22 1078.67 1114.28 1073.61 1114.28 1067.53C1114.28 1061.46 1109.22 1056.39 1103.14 1056.39Z" fill="#F9E9D3" fill-opacity="0.5"/>
<path d="M823.716 934.241C830.053 937.775 836.26 941.783 842.123 946.027C848.848 950.897 851.65 958.697 856.629 965.032C860.939 970.505 869.302 976.969 877.169 978.52C876.674 987.032 875.704 995.435 874.087 1003.43C873.441 1003.3 872.88 1003.34 872.384 1003.56C867.147 1002.8 861.263 995.521 858.849 992.354C854.452 986.536 852.038 979.167 848.072 973.004C841.347 962.619 828.953 951.436 817.465 946.911C813.456 945.338 809.727 950.509 812.551 953.784C817.788 959.861 824.686 964.148 830.721 969.384C839.041 976.646 843.825 986.062 849.516 995.284C853.439 1001.66 864.862 1013.47 873.893 1010.75C875.639 1013.36 880.015 1013.99 881.028 1010.15C885.791 992.181 885.942 973.478 887.02 955.034C887.666 944.153 886.696 933.164 887.041 922.261C887.106 920.128 887.343 917.822 887.602 915.452C890.447 916.185 893.507 915.732 897.387 915.667C903.444 915.56 908.099 913.599 913.251 910.539C923.769 904.334 928.015 891.642 918.661 882.269C907.496 871.086 882.019 882.851 877.277 897.417C875.467 900.326 875.402 903.903 875.424 907.846C875.51 918.318 875.898 928.79 876.674 939.24C877.45 949.626 877.838 960.701 877.514 971.776C866.004 967.1 860.53 954.258 854.042 944.368C847.964 935.124 836.54 929.824 826.108 927.885C822.746 927.26 820.698 932.582 823.737 934.284L823.716 934.241Z" fill="#F9E9D3" fill-opacity="0.5"/>
<path d="M900.62 1052.21C898.012 1052.51 895.339 1053.46 893.162 1054.32C888.399 1056.22 883.097 1056.54 878.247 1058.46C873.009 1060.53 867.858 1062.51 862.47 1064.17C851.326 1067.64 839.924 1071.75 829.406 1076.8C823.651 1079.53 814.491 1083.24 810.438 1088.32C809.188 1089.9 809.533 1091.49 810.546 1092.5C810.546 1096.71 812.96 1100.76 814.124 1105.2C816.172 1113.15 820.59 1121.16 823.263 1129.03C828.048 1143.1 832.208 1157.92 838.286 1171.63C835.441 1171.35 832.682 1172.36 828.975 1173.2C823.565 1174.43 819.793 1177.06 815.741 1180.76C807.486 1188.28 806.085 1200.43 816.215 1207.05C831.841 1217.26 861.737 1188.69 846.089 1174.47C845.226 1170.74 843.761 1167.06 842.834 1163.5C840.183 1153.38 837.575 1143.38 834.363 1133.4C832.079 1126.25 830.009 1118.84 827.143 1111.83C842.661 1108.69 858.159 1105.35 873.678 1102.11C882.256 1100.33 890.813 1098.3 899.37 1096.38C905.082 1095.09 911.634 1094.68 916.354 1091C916.548 1090.85 916.721 1090.67 916.872 1090.52C917.691 1092.59 918.553 1094.62 919.35 1096.71C922.411 1104.79 925.256 1112.82 927.584 1121.14C929.33 1127.37 931.701 1133.72 932.972 1140.19C929.502 1139.15 926.42 1140.43 922.001 1141.44C916.591 1142.67 912.819 1145.3 908.767 1149C900.512 1156.52 899.111 1168.67 909.242 1175.29C924.653 1185.37 953.923 1157.69 939.697 1143.29C939.74 1129.2 934.093 1113.17 930.386 1100.56C925.472 1083.8 918.725 1063.93 908.66 1049.54C905.879 1045.58 900.792 1048.2 900.577 1052.19L900.62 1052.21ZM913.38 1082.03C913.272 1082.03 913.164 1082.03 913.057 1082.03C899.154 1083.28 884.907 1088.95 871.565 1092.89C856.672 1097.29 839.084 1099.53 824.75 1106.29C822.638 1101.19 821.56 1095.63 819.082 1090.72C820.72 1090.13 822.465 1089.64 823.5 1089.12C828.414 1086.71 833.48 1084.62 838.588 1082.66C848.61 1078.8 859.323 1075.78 869.712 1073.07C878.937 1070.66 888.011 1067.77 897.236 1065.31C899.564 1064.69 902.344 1064.43 904.607 1063.5C906.267 1066.89 908.078 1070.2 909.63 1073.54C910.923 1076.37 912.151 1079.19 913.38 1082.03Z" fill="#F9E9D3" fill-opacity="0.5"/>
<path d="M1159.55 861.606C1154.48 858.589 1149.03 856.736 1143.3 857.124C1127.86 858.18 1115.32 870.44 1109.43 884.101C1103.21 898.559 1109.03 912.672 1117.06 924.868C1128.83 942.688 1144.18 958.223 1159.63 972.854C1168.21 980.955 1176.81 989.208 1185.54 997.31C1184.98 1001.06 1184.36 1004.81 1183.56 1008.54C1180.78 1021.4 1174.31 1032.84 1172.67 1046.05C1169.83 1068.93 1176.79 1091.49 1192.83 1108.06C1211.41 1127.26 1234.23 1132.56 1259.73 1127.15C1273.55 1124.22 1287.73 1117.56 1297.88 1107.37C1298.63 1108.28 1299.41 1109.18 1300.21 1110.07C1313.16 1124.31 1327.67 1133.53 1332.19 1153.4C1333.62 1159.62 1333.4 1166.45 1330.25 1172.01C1325.49 1180.44 1315.43 1181.62 1306.63 1181.15C1308.87 1178.69 1310.49 1175.29 1311.7 1170.76C1314.46 1160.55 1314.22 1153.53 1306.16 1146.07C1299.69 1140.1 1288.31 1138.14 1279.97 1139.78C1269.49 1141.85 1264.41 1151.93 1263.5 1161.71C1261.3 1185.7 1290.9 1194.23 1309.82 1194.75C1336.22 1195.48 1348.45 1176.93 1343.1 1152.23C1340.62 1140.79 1335.25 1129.65 1328.23 1120.32C1326.03 1117.39 1304.91 1098.75 1306.07 1096.75C1308.33 1092.85 1310.06 1088.6 1311.11 1084.02C1313.51 1073.54 1310.19 1060.16 1307.71 1049.91C1305.17 1039.31 1299.35 1030.6 1291.33 1023.32C1275.57 1008.97 1253.74 1008.3 1236 1018.99C1234.75 1019.74 1233.54 1020.6 1232.38 1021.49C1225.5 1015.43 1218.28 1009.72 1211.36 1003.71C1207.79 1000.61 1204.31 997.374 1200.87 994.099C1202.42 983.584 1203.41 973.004 1205.46 962.554C1211.38 932.259 1199.68 901.231 1179.1 878.951C1173.64 873.047 1166.98 866.087 1159.48 861.627L1159.55 861.606ZM1223.48 1030.54C1215.01 1041.78 1210.87 1056.97 1214.94 1070.05C1220.5 1087.96 1240.2 1105.71 1259.92 1103.13C1265.05 1102.46 1264.36 1095.28 1259.3 1095.24C1244.25 1095.09 1232.42 1080.8 1226.97 1068.22C1224.88 1063.42 1225.85 1054.54 1227.36 1049.88C1228.61 1046.01 1230.52 1042.45 1232.9 1039.22C1233.02 1039.35 1233.15 1039.48 1233.3 1039.61C1241.32 1047.64 1248.57 1056.41 1256.71 1064.34C1263.93 1071.37 1271.82 1077.68 1279.15 1084.62C1282.92 1088.2 1286.13 1092.18 1289.28 1096.25C1280.08 1106.23 1266.95 1111.29 1253.87 1114.01C1239.84 1116.92 1227.1 1115.34 1215.07 1107.44C1203.09 1099.57 1194.36 1089.38 1189.7 1075.81C1181.6 1052.17 1192.61 1031.16 1198.19 1008.75C1201.73 1011.92 1205.31 1015.04 1208.88 1018.12C1213.76 1022.28 1218.69 1026.33 1223.52 1030.51L1223.48 1030.54ZM1295.32 1055.38C1297.17 1065.53 1299.26 1075.37 1296.35 1084.58C1289.91 1077.08 1282.64 1070.48 1275.14 1063.91C1263.95 1054.09 1254.08 1043.25 1243.89 1032.41C1243.22 1031.7 1242.51 1031.01 1241.82 1030.3C1263.03 1014.7 1290.96 1031.44 1295.29 1055.36L1295.32 1055.38ZM1169.4 891.276C1177.18 901.856 1185.76 912.759 1190.87 924.911C1196.84 939.068 1192.07 955.271 1189.46 969.622C1188.75 973.543 1188.19 977.465 1187.68 981.386C1184.66 978.521 1181.6 975.698 1178.45 972.983C1167.76 963.718 1157.74 953.677 1148.12 943.291C1138.27 932.647 1127.11 920.042 1121.63 906.445C1116.2 892.978 1125 880.933 1135.54 873.37C1149.87 863.071 1162.11 881.386 1169.4 891.298V891.276Z" fill="#F9E9D3" fill-opacity="0.5"/>
<path d="M997.246 943.399C990.629 956.305 983.366 969.083 977.589 982.378C971.77 995.758 963.45 1007.03 959.182 1021.27C958.147 1024.74 963.213 1025.92 964.484 1022.71C969.226 1010.84 976.016 1000.84 983.366 990.522C989.422 981.99 994.164 972.1 999.79 963.201C1001.41 960.636 1002.7 957.986 1003.95 955.357C1008.24 960.443 1016.13 963.782 1021.24 965.355C1031.41 968.501 1040.91 967.79 1049.77 961.541C1065.34 950.552 1062.27 927.152 1044.45 921.291C1026.32 915.323 1005.33 927.669 997.246 943.399Z" fill="#F9E9D3" fill-opacity="0.5"/>
<path d="M1367.07 1109.83C1363.81 1123.96 1359.93 1138.12 1357.59 1152.45C1355.24 1166.84 1349.93 1179.81 1349.29 1194.66C1349.14 1198.28 1354.33 1198.17 1354.78 1194.77C1356.46 1182.1 1360.58 1170.74 1365.17 1158.93C1368.97 1149.17 1371.12 1138.42 1374.4 1128.42C1375.35 1125.54 1375.95 1122.65 1376.49 1119.81C1381.88 1123.68 1390.37 1124.98 1395.71 1125.26C1406.36 1125.8 1415.39 1122.78 1422.44 1114.55C1434.83 1100.07 1426.1 1078.15 1407.37 1076.84C1388.34 1075.5 1371.01 1092.63 1367.07 1109.87V1109.83Z" fill="#F9E9D3" fill-opacity="0.5"/>
<path d="M290.364 103.426C284.674 98.9225 279.199 93.9666 274.069 88.8384C268.207 82.956 266.698 74.8112 262.797 67.7653C259.413 61.6675 252.214 53.9536 244.67 51.174C246.523 42.8568 248.83 34.712 251.696 27.0843C252.3 27.3213 252.882 27.3644 253.399 27.2351C258.443 28.808 263.098 36.9529 264.952 40.4651C268.357 46.9077 269.564 54.5784 272.496 61.2796C277.475 72.6134 287.907 85.6279 298.533 91.9412C302.24 94.139 306.767 89.6357 304.482 85.9295C300.3 79.0991 294.157 73.7554 289.049 67.6145C282.001 59.1249 278.79 49.0408 274.651 39.0429C271.785 32.1263 262.409 18.6378 253.076 19.8875C251.761 17.0217 247.558 15.7289 245.941 19.3488C238.354 36.328 235.229 54.7508 231.199 72.8073C228.828 83.4516 228.009 94.4407 225.918 105.15C225.508 107.261 224.905 109.481 224.28 111.786C221.607 110.601 218.503 110.558 214.645 109.998C208.653 109.136 203.739 110.342 198.156 112.519C186.776 116.957 180.547 128.808 188.285 139.56C197.51 152.381 224.56 144.861 231.565 131.243C233.828 128.658 234.453 125.145 235.057 121.245C236.652 110.903 237.945 100.495 238.85 90.0666C239.755 79.7024 241.135 68.6918 243.226 57.8105C253.83 64.2747 257.193 77.8278 261.999 88.6229C266.504 98.7286 276.957 105.774 286.937 109.351C290.148 110.515 293.037 105.581 290.299 103.426H290.364Z" fill="#F9E9D3" fill-opacity="0.5"/>
<path d="M53.2925 5.08479C48.2274 2.08973 42.7742 0.215129 37.0409 0.602978C21.6083 1.68034 9.06391 13.9407 3.17969 27.58C-3.04939 42.0382 2.77017 56.1515 10.8098 68.3472C22.5782 86.1667 37.9246 101.702 53.3788 116.333C61.9572 124.434 70.5572 132.687 79.2866 140.789C78.7262 144.538 78.1011 148.287 77.3036 152.015C74.5232 164.878 68.057 176.32 66.4189 189.528C63.5738 212.411 70.5357 234.971 86.5718 251.541C105.151 270.74 127.977 276.04 153.475 270.632C167.291 267.702 181.474 261.043 191.626 250.852C192.38 251.757 193.156 252.662 193.953 253.545C206.907 267.788 221.413 277.01 225.939 296.876C227.362 303.104 227.146 309.934 224 315.493C219.236 323.918 209.17 325.103 200.376 324.629C202.618 322.173 204.235 318.768 205.442 314.243C208.201 304.03 207.963 297.006 199.924 289.55C193.458 283.582 182.077 281.621 173.736 283.259C163.261 285.327 158.174 295.411 157.269 305.194C155.07 329.176 184.664 337.708 203.588 338.225C229.992 338.958 242.213 320.406 236.867 295.713C234.389 284.271 229.022 273.131 221.995 263.801C219.797 260.871 198.674 242.233 199.838 240.229C202.101 236.329 203.825 232.084 204.881 227.495C207.274 217.001 203.954 203.642 201.476 193.385C198.932 182.784 193.113 174.079 185.095 166.796C169.339 152.446 147.505 151.778 129.766 162.465C128.516 163.219 127.309 164.081 126.145 164.965C119.269 158.91 112.049 153.2 105.13 147.188C101.552 144.085 98.0816 140.853 94.633 137.578C96.1848 127.063 97.1763 116.484 99.2239 106.033C105.151 75.7379 93.4475 44.71 72.8635 22.4302C67.4104 16.5263 60.7502 9.56659 53.2494 5.10633L53.2925 5.08479ZM117.2 174.036C108.729 185.284 104.591 200.474 108.665 213.554C114.225 231.459 133.926 249.214 153.648 246.628C158.777 245.96 158.088 238.785 153.023 238.742C137.978 238.591 126.145 224.306 120.692 211.722C118.601 206.917 119.571 198.04 121.08 193.385C122.33 189.507 124.248 185.952 126.619 182.72C126.748 182.849 126.878 182.978 127.028 183.107C135.047 191.144 142.289 199.914 150.436 207.844C157.657 214.868 165.545 221.181 172.874 228.119C176.646 231.696 179.857 235.682 183.004 239.755C173.801 249.731 160.674 254.795 147.591 257.51C133.559 260.419 120.843 258.846 108.794 250.938C96.8099 243.073 88.0806 232.881 83.4249 219.307C75.3206 195.669 86.3563 174.661 91.9172 152.252C95.452 155.419 99.03 158.544 102.608 161.625C107.479 165.783 112.415 169.834 117.243 174.014L117.2 174.036ZM189.061 198.858C190.914 209.007 193.005 218.854 190.095 228.055C183.651 220.556 176.387 213.963 168.886 207.391C157.7 197.566 147.828 186.727 137.633 175.889C136.965 175.178 136.254 174.489 135.564 173.777C156.773 158.177 184.707 174.919 189.039 198.837L189.061 198.858ZM63.1211 34.7552C70.9021 45.3349 79.4806 56.2377 84.5888 68.3903C90.5593 82.5468 85.7959 98.7503 83.1878 113.101C82.4766 117.022 81.9162 120.944 81.3989 124.865C78.3813 122 75.3207 119.177 72.1738 116.462C61.483 107.197 51.4605 97.1558 41.8474 86.77C31.9973 76.1257 20.8323 63.5207 15.3577 49.9244C9.92607 36.4574 18.7416 24.4126 29.2599 16.8495C43.5933 6.54999 55.8359 24.8651 63.1211 34.7768V34.7552Z" fill="#F9E9D3" fill-opacity="0.5"/>
<path d="M275.169 298.578C271.914 312.713 268.034 326.87 265.685 341.199C263.335 355.592 258.033 368.564 257.387 383.41C257.236 387.029 262.43 386.922 262.883 383.517C264.564 370.848 268.681 359.492 273.272 347.684C277.065 337.924 279.221 327.172 282.497 317.174C283.445 314.286 284.049 311.399 284.588 308.555C289.976 312.433 298.468 313.726 303.814 314.006C314.461 314.545 323.492 311.528 330.541 303.297C342.934 288.818 334.205 266.904 315.474 265.59C296.442 264.254 279.113 281.384 275.169 298.622V298.578Z" fill="#F9E9D3" fill-opacity="0.5"/>
<path d="M270.405 494.119C264.715 489.616 259.24 484.66 254.11 479.532C248.248 473.649 246.739 465.504 242.838 458.458C239.454 452.361 232.255 444.647 224.711 441.867C226.565 433.55 228.871 425.405 231.737 417.777C232.341 418.014 232.923 418.058 233.44 417.928C238.484 419.501 243.139 427.646 244.993 431.158C248.399 437.601 249.606 445.272 252.537 451.973C257.516 463.307 267.948 476.321 278.574 482.634C282.281 484.832 286.808 480.329 284.523 476.623C280.342 469.792 274.199 464.449 269.09 458.308C262.042 449.818 258.831 439.734 254.692 429.736C251.826 422.819 242.45 409.331 233.117 410.581C231.802 407.715 227.599 406.422 225.983 410.042C218.396 427.021 215.27 445.444 211.24 463.5C208.869 474.145 208.05 485.134 205.959 495.843C205.549 497.954 204.946 500.174 204.321 502.479C201.648 501.294 198.544 501.251 194.686 500.691C188.694 499.829 183.78 501.036 178.198 503.212C166.817 507.651 160.588 519.502 168.326 530.254C177.551 543.074 204.601 535.554 211.606 521.936C213.869 519.351 214.494 515.839 215.098 511.938C216.693 501.596 217.986 491.189 218.891 480.76C219.797 470.396 221.176 459.385 223.267 448.504C233.871 454.968 237.234 468.521 242.04 479.316C246.545 489.422 256.999 496.468 266.978 500.044C270.19 501.208 273.078 496.274 270.341 494.119H270.405Z" fill="#F9E9D3" fill-opacity="0.5"/>
<path d="M53.2924 425.254C48.2273 422.238 42.7741 420.385 37.0408 420.772C21.6082 421.828 9.06379 434.088 3.17957 447.749C-3.04951 462.208 2.77004 476.321 10.8097 488.517C22.5781 506.336 37.9245 521.872 53.3786 536.502C61.9571 544.604 70.5571 552.856 79.2865 560.958C78.7261 564.707 78.101 568.457 77.3035 572.184C74.523 585.048 68.0569 596.489 66.4188 609.698C63.5736 632.581 70.5356 655.141 86.5717 671.711C105.151 690.909 127.977 696.21 153.475 690.801C167.291 687.871 181.474 681.213 191.625 671.021C192.38 671.926 193.156 672.831 193.953 673.714C206.907 687.957 221.413 697.179 225.939 717.046C227.362 723.273 227.146 730.103 223.999 735.663C219.236 744.087 209.17 745.273 200.376 744.798C202.618 742.342 204.235 738.938 205.442 734.413C208.2 724.199 207.963 717.175 199.924 709.72C193.458 703.751 182.077 701.79 173.736 703.428C163.261 705.496 158.174 715.581 157.269 725.363C155.07 749.345 184.664 757.878 203.588 758.395C229.991 759.127 242.213 740.575 236.867 715.882C234.388 704.441 229.022 693.301 221.995 683.971C219.796 681.04 198.674 662.402 199.838 660.398C202.101 656.498 203.825 652.253 204.881 647.664C207.274 637.17 203.954 623.811 201.476 613.555C198.932 602.954 193.113 594.249 185.095 586.966C169.339 572.615 147.505 571.947 129.766 582.635C128.516 583.389 127.309 584.251 126.145 585.134C119.269 579.079 112.048 573.369 105.13 567.358C101.552 564.255 98.0815 561.023 94.6328 557.748C96.1847 547.233 97.1762 536.653 99.2238 526.203C105.151 495.907 93.4474 464.879 72.8634 442.6C67.4102 436.696 60.7501 429.736 53.2493 425.276L53.2924 425.254ZM117.2 594.205C108.729 605.453 104.591 620.644 108.664 633.723C114.225 651.629 133.926 669.383 153.647 666.798C158.777 666.13 158.088 658.955 153.022 658.912C137.978 658.761 126.145 644.475 120.692 631.891C118.601 627.086 119.571 618.209 121.079 613.555C122.33 609.676 124.248 606.121 126.619 602.889C126.748 603.018 126.877 603.147 127.028 603.277C135.046 611.314 142.289 620.084 150.436 628.013C157.656 635.037 165.545 641.351 172.874 648.289C176.646 651.866 179.857 655.852 183.004 659.924C173.8 669.901 160.674 674.964 147.591 677.679C133.559 680.588 120.842 679.015 108.794 671.107C96.8098 663.243 88.0804 653.051 83.4248 639.476C75.3205 615.839 86.3561 594.83 91.917 572.421C95.4519 575.589 99.0298 578.713 102.608 581.794C107.479 585.953 112.415 590.004 117.243 594.184L117.2 594.205ZM189.061 619.028C190.914 629.176 193.005 639.023 190.095 648.224C183.651 640.726 176.387 634.132 168.886 627.56C157.7 617.735 147.828 606.897 137.633 596.058C136.965 595.347 136.253 594.658 135.564 593.947C156.773 578.347 184.707 595.089 189.039 619.006L189.061 619.028ZM63.121 454.925C70.902 465.504 79.4804 476.407 84.5887 488.56C90.5592 502.716 85.7957 518.92 83.1877 533.27C82.4764 537.192 81.916 541.113 81.3987 545.035C78.3812 542.169 75.3205 539.346 72.1737 536.631C61.4829 527.366 51.4603 517.325 41.8473 506.939C31.9972 496.295 20.8322 483.69 15.3575 470.094C9.92595 456.627 18.7415 444.582 29.2598 437.019C43.5932 426.719 55.8358 445.034 63.121 454.946V454.925Z" fill="#F9E9D3" fill-opacity="0.5"/>
<path d="M275.169 661.282C271.914 675.417 268.034 689.573 265.685 703.902C263.335 718.296 258.033 731.267 257.387 746.113C257.236 749.733 262.43 749.625 262.883 746.221C264.564 733.551 268.681 722.196 273.272 710.388C277.065 700.627 279.221 689.875 282.497 679.877C283.445 676.99 284.049 674.102 284.588 671.258C289.976 675.137 298.468 676.429 303.814 676.709C314.461 677.248 323.492 674.232 330.541 666.001C342.934 651.521 334.205 629.607 315.474 628.293C296.442 626.957 279.113 644.087 275.169 661.325V661.282Z" fill="#F9E9D3" fill-opacity="0.5"/>
<path d="M327.135 908.428C321.445 903.924 315.97 898.969 310.84 893.84C304.978 887.958 303.469 879.813 299.568 872.767C296.184 866.669 288.985 858.956 281.441 856.176C283.294 847.859 285.601 839.714 288.467 832.086C289.071 832.323 289.653 832.366 290.17 832.237C295.214 833.81 299.869 841.955 301.723 845.467C305.129 851.91 306.336 859.58 309.267 866.282C314.246 877.615 324.678 890.63 335.304 896.943C339.011 899.141 343.538 894.638 341.253 890.931C337.071 884.101 330.929 878.757 325.82 872.616C318.772 864.127 315.561 854.043 311.422 844.045C308.556 837.128 299.18 823.64 289.847 824.889C288.532 822.024 284.329 820.731 282.712 824.351C275.125 841.33 272 859.753 267.97 877.809C265.599 888.454 264.78 899.443 262.689 910.152C262.279 912.263 261.676 914.483 261.051 916.788C258.378 915.603 255.274 915.56 251.416 915C245.424 914.138 240.51 915.344 234.927 917.521C223.547 921.959 217.318 933.81 225.056 944.562C234.281 957.383 261.331 949.863 268.336 936.245C270.599 933.66 271.224 930.147 271.828 926.247C273.423 915.905 274.716 905.497 275.621 895.069C276.527 884.704 277.906 873.694 279.997 862.812C290.601 869.277 293.964 882.83 298.77 893.625C303.275 903.731 313.729 910.776 323.708 914.353C326.92 915.517 329.808 910.582 327.07 908.428H327.135Z" fill="#F9E9D3" fill-opacity="0.5"/>
<path d="M74.1352 800.175C69.07 797.158 63.6168 795.305 57.8835 795.693C42.4509 796.749 29.9065 809.009 24.0223 822.67C17.7932 837.128 23.6128 851.241 31.6524 863.437C43.4208 881.257 58.7672 896.792 74.2214 911.423C82.7998 919.524 91.3998 927.777 100.129 935.879C99.5688 939.628 98.9437 943.377 98.1462 947.105C95.3658 959.968 88.8996 971.41 87.2615 984.618C84.4164 1007.5 91.3783 1030.06 107.414 1046.63C125.994 1065.83 148.819 1071.13 174.318 1065.72C188.134 1062.79 202.316 1056.13 212.468 1045.94C213.223 1046.85 213.999 1047.75 214.796 1048.64C227.75 1062.88 242.256 1072.1 246.782 1091.97C248.205 1098.19 247.989 1105.02 244.842 1110.58C240.079 1119.01 230.013 1120.19 221.219 1119.72C223.461 1117.26 225.077 1113.86 226.284 1109.33C229.043 1099.12 228.806 1092.1 220.745 1084.64C214.279 1078.67 202.898 1076.71 194.557 1078.35C184.082 1080.42 178.995 1090.5 178.09 1100.28C175.891 1124.27 205.485 1132.8 224.409 1133.32C250.813 1134.05 263.034 1115.5 257.688 1090.8C255.21 1079.36 249.843 1068.22 242.816 1058.89C240.618 1055.96 219.495 1037.32 220.659 1035.32C222.922 1031.42 224.646 1027.17 225.702 1022.58C228.095 1012.09 224.775 998.732 222.297 988.475C219.753 977.874 213.934 969.169 205.916 961.886C190.16 947.536 168.326 946.868 150.587 957.555C149.337 958.309 148.13 959.171 146.966 960.055C140.09 954 132.87 948.29 125.951 942.278C122.373 939.175 118.903 935.943 115.454 932.668C117.006 922.153 117.997 911.574 120.045 901.123C125.972 870.828 114.269 839.8 93.6846 817.52C88.2314 811.616 81.5713 804.657 74.0705 800.196L74.1352 800.175ZM138.043 969.126C129.572 980.374 125.433 995.564 129.507 1008.64C135.068 1026.55 154.768 1044.3 174.49 1041.72C179.62 1041.05 178.93 1033.88 173.865 1033.83C158.821 1033.68 146.987 1019.4 141.534 1006.81C139.444 1002.01 140.413 993.13 141.922 988.475C143.172 984.597 145.091 981.042 147.462 977.81C147.591 977.939 147.72 978.068 147.871 978.197C155.889 986.234 163.131 995.004 171.279 1002.93C178.499 1009.96 186.388 1016.27 193.716 1023.21C197.488 1026.79 200.7 1030.77 203.847 1034.84C194.643 1044.82 181.517 1049.88 168.434 1052.6C154.402 1055.51 141.664 1053.94 129.637 1046.03C117.653 1038.16 108.923 1027.97 104.268 1014.4C96.1633 990.759 107.177 969.751 112.76 947.342C116.295 950.509 119.873 953.634 123.451 956.715C128.322 960.873 133.258 964.924 138.086 969.104L138.043 969.126ZM209.882 993.948C211.735 1004.1 213.826 1013.94 210.916 1023.14C204.472 1015.65 197.208 1009.05 189.707 1002.48C178.521 992.655 168.649 981.817 158.454 970.979C157.786 970.268 157.075 969.579 156.385 968.867C177.594 953.267 205.528 970.009 209.86 993.927L209.882 993.948ZM83.9637 829.845C91.7447 840.425 100.323 851.328 105.431 863.48C111.402 877.637 106.638 893.84 104.03 908.191C103.319 912.112 102.759 916.034 102.241 919.955C99.2239 917.09 96.1633 914.267 93.0164 911.552C82.3256 902.287 72.3031 892.246 62.69 881.86C52.8399 871.216 41.675 858.611 36.2003 845.014C30.7687 831.547 39.5627 819.503 50.1025 811.939C64.4359 801.64 76.6785 819.955 83.9637 829.867V829.845Z" fill="#F9E9D3" fill-opacity="0.5"/>
<path d="M281.635 1048.42C278.38 1062.55 274.5 1076.71 272.151 1091.04C269.802 1105.43 264.499 1118.4 263.853 1133.25C263.702 1136.87 268.896 1136.76 269.349 1133.36C271.03 1120.69 275.147 1109.33 279.738 1097.53C283.531 1087.76 285.687 1077.01 288.963 1067.01C289.911 1064.13 290.515 1061.24 291.054 1058.4C296.442 1062.27 304.935 1063.57 310.28 1063.85C320.928 1064.39 329.959 1061.37 337.007 1053.14C349.4 1038.66 340.671 1016.74 321.941 1015.43C302.908 1014.09 285.579 1031.22 281.635 1048.46V1048.42Z" fill="#F9E9D3" fill-opacity="0.5"/>
</svg>
