<?xml version="1.0" encoding="UTF-8"?>
<svg id="OBJECTS" xmlns="http://www.w3.org/2000/svg" viewBox="0 0 216.84 262.99">
  <defs>
    <style>
      .cls-1 {
        fill: #51302a;
      }

      .cls-2, .cls-3 {
        fill: #ffcaca;
      }

      .cls-4 {
        fill: none;
      }

      .cls-4, .cls-3 {
        stroke: #51302a;
        stroke-linecap: round;
        stroke-linejoin: round;
        stroke-width: 4.02px;
      }

      .cls-5 {
        fill: #f3f3f3;
      }

      .cls-6 {
        fill: #eab394;
      }
    </style>
  </defs>
  <circle class="cls-2" cx="108.42" cy="154.57" r="108.42"/>
  <g>
    <path class="cls-5" d="M176.81,157.76c1.17-9.29,1.36-20.72-1.28-33.26-1.46-6.92-8.02-38.05-22.2-39.67-8.69-.99-19.27,9.12-26.31,26-5.92-1.67-12.1-2.57-18.4-2.6-6.42-.04-12.7.82-18.74,2.48-7.04-16.97-17.66-27.16-26.37-26.16-14.18,1.62-20.74,32.75-22.2,39.67-2.59,12.31-2.45,23.55-1.34,32.74-.86,7.5-1.38,21.62,5.64,35.53,16.06,31.83,56.29,32.23,63.01,32.15,3.09-.04,49.43-1.34,64.32-36.57,4.98-11.77,4.69-23.21,3.87-30.32Z"/>
    <path class="cls-6" d="M77.78,109.31c2.01,4.72,3.87,9.61,4.43,14.78.12,1.16.18,2.36-.19,3.46-.3.91-.88,1.69-1.52,2.35-2.52,2.61-20.41,7.99-25.93,9.72-4,1.25-6.1-2.75-6.18-6.09-.19-7.85,1.58-21.82,10.27-32.56,2.57-3.18,7.28-8,12.15-2.64,2.83,3.11,5.6,7.77,6.96,10.98Z"/>
    <path class="cls-6" d="M138.53,109.31c-2.01,4.72-3.87,9.61-4.43,14.78-.12,1.16-.18,2.36.19,3.46.3.91.88,1.69,1.52,2.35,2.52,2.61,20.41,7.99,25.93,9.72,4,1.25,6.1-2.75,6.18-6.09.19-7.85-1.58-21.82-10.27-32.56-2.57-3.18-7.28-8-12.15-2.64-2.83,3.11-5.6,7.77-6.96,10.98Z"/>
    <circle class="cls-6" cx="62.18" cy="180.86" r="9.74" transform="translate(-128.1 200.04) rotate(-76.78)"/>
    <circle class="cls-6" cx="154.66" cy="180.86" r="9.74" transform="translate(-82.59 162.33) rotate(-45)"/>
    <circle class="cls-1" cx="145.12" cy="169.85" r="9.13" transform="translate(-60.14 81.65) rotate(-26.24)"/>
    <circle class="cls-1" cx="71.72" cy="169.85" r="9.13" transform="translate(-67.7 49.21) rotate(-26.24)"/>
    <path class="cls-5" d="M150.47,170.55c-2.83.64-4.01,1.82-4.65,4.65-.17.76-1.26.76-1.43,0-.64-2.83-1.82-4.01-4.65-4.65-.76-.17-.76-1.26,0-1.43,2.83-.64,4.01-1.82,4.65-4.65.17-.76,1.26-.76,1.43,0,.64,2.83,1.82,4.01,4.65,4.65.76.17.76,1.26,0,1.43Z"/>
    <path class="cls-5" d="M77.09,170.55c-2.83.64-4.01,1.82-4.65,4.65-.17.76-1.26.76-1.43,0-.64-2.83-1.82-4.01-4.65-4.65-.76-.17-.76-1.26,0-1.43,2.83-.64,4.01-1.82,4.65-4.65.17-.76,1.26-.76,1.43,0,.64,2.83,1.82,4.01,4.65,4.65.76.17.76,1.26,0,1.43Z"/>
    <g>
      <path class="cls-1" d="M113.37,170.62c0,1.46-2.21,2.64-4.95,2.64s-4.95-1.18-4.95-2.64,2.21-2.64,4.95-2.64,4.95,1.18,4.95,2.64Z"/>
      <path class="cls-4" d="M95.8,177.47c1.03,2.1,3.1,3.6,5.54,3.84.23.03.47.05.71.05,2.6,0,4.87-1.42,6.06-3.54.2-.33.67-.33.85,0,1.18,2.11,3.45,3.54,6.04,3.54.17,0,.34-.01.52-.01,2.37-.18,4.41-1.53,5.53-3.48"/>
      <path class="cls-3" d="M116.17,182.03h0c0,5.89-3.48,10.66-7.75,10.66s-7.75-4.76-7.75-10.64v-.05c.25.04.52.05.78.05,2.84,0,5.33-1.56,6.62-3.87.21-.36.73-.36.93,0,1.29,2.31,3.77,3.87,6.61,3.87.19,0,.38-.01.57-.01Z"/>
    </g>
    <g>
      <path class="cls-1" d="M138.76,156.07c-.08.35-.35.63-.82.81-1.25.48-2.61.77-3.95.71-1.24-.06-2.51-.51-3.33-1.44-1.56-1.76-.67-4.8,1.74-5.17.96-.15,1.95.12,2.82.57,1.49.76,2.71,2.04,3.4,3.57.16.35.21.68.15.95Z"/>
      <path class="cls-1" d="M78.11,156.42c.11.34.4.6.88.74,1.28.38,2.67.55,4,.38,1.23-.16,2.46-.71,3.21-1.71,1.41-1.88.27-4.84-2.15-5.01-.97-.07-1.93.28-2.76.79-1.43.88-2.54,2.26-3.1,3.84-.13.37-.15.69-.07.96Z"/>
    </g>
  </g>
  <g>
    <path class="cls-5" d="M144.56,36.14c0-19.96-16.18-36.14-36.14-36.14s-36.14,16.18-36.14,36.14c0,16.39,10.91,30.22,25.86,34.65l9.95,19.98,11.43-20.23c14.53-4.68,25.04-18.31,25.04-34.4Z"/>
    <g>
      <path d="M106.23,36.46c-.02-.65-.05-1.31-.19-1.99-.14-.78-.28-1.59-.63-2.33-.37-.84-.77-1.64-1.17-2.45-.13-.26-.3-.5-.48-.69-.17-.18-.33-.36-.49-.54-.42-.48-.86-.97-1.4-1.38l-.43-.32c-.35-.26-.69-.52-1.06-.76-.68-.42-1.34-.67-1.95-.74-.21-.03-.43-.08-.64-.13-.45-.1-.91-.2-1.4-.18-.02,0-.1-.02-.11-.03-.53-.22-1.06-.27-1.55-.16-.03.02-.11-.02-.16-.03l-.16-.04c-.12-.02-.25-.05-.37-.08-.43-.09-.89-.12-1.37-.14-.47-.02-.95-.04-1.43.09-.25.05-.56.06-.89.02-.51-.04-.94.14-1.33.59-.32.41-.47.85-.47,1.32-.03.72-.13,1.5-.33,2.53-.04.21-.08.48-.04.73.02.19,0,.41-.04.63l-.08.7c-.06.46-.12.93-.12,1.41,0,.56-.02,1.22-.19,1.87-.17.69-.25,1.22-.25,1.7-.03,1.27-.03,2.54-.03,3.8,0,.19.03.37.07.56l.03.14c0,.06,0,.12,0,.17,0,.05,0,.09.01.09-.14.49-.14,1.01,0,1.65.08.32.09.68.05,1.15l-.06.85c-.05.31-.03.58.05.84l.12.36c.14.45.28.91.56,1.35l-.07.35-.13.07-.05.24c-.06.29.02.59.21.84.2.29.49.5.82.6.31.1.66.2,1.03.2.27,0,.55-.05.83-.18.26-.12.51-.14.77-.07.38.1.75.08,1.04-.03.1-.03.2-.05.32-.05.74-.07,1.5-.23,2.31-.5.12-.05.24-.09.33-.1.69-.04,1.27-.29,1.84-.54.38-.17.69-.25.96-.25.5,0,1.08-.06,1.64-.45.08-.02.2-.05.31-.1l.28-.14c.54-.26,1.09-.53,1.57-.98.45-.43,1.29-1.24,1.81-1.93l.5-.82c.66-.85.97-1.79,1.18-2.6.37-1.28.52-2.54.45-3.75v-.38ZM90.65,45.57c-.04-.24-.04-.5-.04-.77,0-.72,0-1.46-.18-2.19-.02-.1-.02-.2,0-.33.11-.74.11-1.5,0-2.22-.03-.28-.03-.56-.03-.84,0-1.14.1-2.31.18-3.36.14-.52.2-1.03.24-1.52l.04-.4c.02-.09.07-.26.01-.44-.07-.26-.04-.55,0-.88.03-.26.06-.52.05-.8-.03-.59-.03-1.18-.03-1.77,0-.06,0-.12.02-.19.14-.59.18-1.15.21-1.73.12-.05.24-.1.31-.11l.83-.07c.53-.08,1.06,0,1.72.13h.05s.1,0,.1,0c.39.07.83.14,1.28.14.27,0,.53.05.76.16.72.32,1.46.46,2.17.6.45.09.87.24,1.26.45.52.28.99.57,1.42.87.14.09.28.26.42.42l.18.23c.18.24.35.47.56.68.11.11.22.24.27.34.07.14.14.27.21.41.2.37.39.73.49,1.16l.12.34c.43.98.55,1.97.36,3.04l-.1.71c-.06.42-.13.84-.23,1.29-.1.48-.19.94-.37,1.35-.1.24-.25.46-.41.7-.12.18-.24.37-.34.55-.32.58-.69,1.06-1.15,1.49-.23.23-.46.38-.78.5-.31.14-.62.31-.96.5-.23.15-.48.25-.71.3-.62.13-1.26.27-1.86.53-.37.05-.72.16-1.06.27-.22.07-.45.14-.68.19-.55.13-1.1.23-1.64.32-.2.02-.46.06-.65,0-.35-.08-.71-.12-1.1-.12-.31,0-.63.03-.97.08Z"/>
      <path d="M133.95,35.44c-.04-.32-.07-.63-.14-.96l-.09-.34c-.07-.26-.14-.5-.16-.7,0-.21-.05-.42-.15-.62-.17-.35-.26-.74-.37-1.18-.08-.28-.2-.51-.32-.75-.04-.06-.08-.13-.12-.19-.06-.09-.12-.18-.15-.25-.42-.97-1.09-1.75-1.74-2.49l-.31-.37c-.14-.19-.32-.32-.47-.43l-.24-.18c-.33-.25-.67-.52-1.04-.71-.37-.21-.77-.36-1.16-.51l-.99-.38c-1.2-.52-2.44-.8-3.79-.87-.57-.04-1.06.02-1.53.22-.17.09-.38.14-.55.19l-.6.14c-.52.13-1.01.25-1.52.31-.99.15-1.86.58-2.65,1.02-.96.5-1.97,1.06-2.76,1.96l-.63.66c-.83.87-1.51,1.86-2.06,3.04-.44.98-.67,1.97-.86,2.88-.07.29-.08.56-.1.83,0,.17-.02.34-.05.52-.08.63-.06,1.18.08,1.7.04.13.05.25.06.38,0,.08.02.17.03.24l.1.82c.13.79.3,1.62.65,2.4.18.89.62,1.64,1.05,2.37.1.17.2.34.25.43.06.17.16.33.31.48l.24.22c.26.24.51.47.8.68l.16.11c.38.27.74.52.98.86.2.3.49.53.77.62.41.16.73.36.99.62.15.15.33.21.41.23.18.08.36.17.53.26.56.29,1.14.59,1.89.65.02,0,.08.02.12.03.06.02.11.04.17.05.79.2,1.49.28,2.12.25.1,0,.21,0,.31.02.13,0,.26.02.38.02h.31c.11,0,.22,0,.33,0,.24,0,.48,0,.74-.05.77-.13,1.51-.33,2.23-.53.14-.02.25-.07.28-.09.58-.2,1.08-.52,1.57-.83.2-.13.41-.26.61-.38.21-.12.36-.27.49-.41.06-.06.12-.12.19-.18l1.23-1.11c.47-.43.95-.87,1.31-1.5l.09-.08c.35-.39.58-.83.77-1.21.19-.38.37-.74.6-1,.17-.17.26-.39.35-.61.14-.38.24-.8.34-1.19.29-1,.59-2.16.51-3.45l.18-.12v-.27c0-.13,0-.26,0-.39,0-.28.01-.57,0-.87ZM131.16,37.2c.08.88-.16,1.93-.72,3.21l-.16.37c-.48.94-1.06,1.76-1.73,2.43-.03.02-.05.04-.08.07-.09.07-.19.15-.28.28-.23.34-.58.59-.95.85l-.21.15c-.36.25-.77.43-1.24.56-.52.14-1.04.3-1.56.47-.25.08-.5.16-.76.24-.31.09-.63.19-.97.26-.92.23-1.88.2-2.97-.11l-.14-.03c-.12-.03-.27-.07-.38-.07,0,0,0,0-.01,0-.33-.04-.66-.16-1.01-.29-.14-.05-.28-.1-.41-.15-1.05-.37-1.9-1.05-2.53-1.6-.1-.09-.2-.18-.29-.27-.17-.16-.33-.32-.53-.46-.21-.14-.41-.35-.6-.63-.53-.77-.86-1.47-1.07-2.24l-.19-.58c-.54-1.86-.52-3.7.06-5.46.33-.99.72-1.73,1.26-2.36l.36-.5c.23-.31.52-.65.92-.85l.13-.08c.1-.06.22-.13.35-.27.18-.2.44-.34.71-.48l.22-.11c.4-.22.72-.29,1.07-.24.38.04.78-.03,1.18-.23.15-.09.28-.17.46-.23.14-.06.27-.11.4-.14l.43-.08c.6-.11,1.17-.22,1.73-.15.31.03.73.05,1.15-.14.36-.16.72-.11,1.28.03.24.06.46.12.66.23.54.27,1.09.47,1.63.67l.47.18c.58.23,1.06.6,1.45.95.6.51,1.15,1.15,1.67,1.96.05.08.08.13.11.22.07.2.15.4.22.6.17.45.34.88.43,1.36.07.27.14.57.26.85.12.27.19.6.19.96v.88ZM112.27,44.71h0s0,0,0,0h0Z"/>
    </g>
  </g>
</svg>