<?xml version="1.0" encoding="UTF-8"?>
<svg id="OBJECTS" xmlns="http://www.w3.org/2000/svg" viewBox="0 0 216.84 260.99">
  <defs>
    <style>
      .cls-1 {
        fill: #f7e1ca;
      }

      .cls-2 {
        fill: #51302a;
      }

      .cls-3, .cls-4 {
        fill: #ffcaca;
      }

      .cls-5 {
        fill: none;
      }

      .cls-5, .cls-4 {
        stroke: #51302a;
        stroke-linecap: round;
        stroke-linejoin: round;
        stroke-width: 4.02px;
      }

      .cls-6 {
        fill: #f3f3f3;
      }

      .cls-7 {
        fill: #eab394;
      }
    </style>
  </defs>
  <g>
    <circle class="cls-3" cx="108.42" cy="152.57" r="108.42"/>
    <g>
      <path class="cls-6" d="M176.81,155.76c1.17-9.29,1.36-20.72-1.28-33.26-1.46-6.92-8.02-38.05-22.2-39.67-8.69-.99-19.27,9.12-26.31,26-5.92-1.67-12.1-2.57-18.4-2.6-6.42-.04-12.7.82-18.74,2.48-7.04-16.97-17.66-27.16-26.37-26.16-14.18,1.62-20.74,32.75-22.2,39.67-2.59,12.31-2.45,23.55-1.34,32.74-.86,7.5-1.38,21.62,5.64,35.53,16.06,31.83,56.29,32.23,63.01,32.15,3.09-.04,49.43-1.34,64.32-36.57,4.98-11.77,4.69-23.21,3.87-30.32Z"/>
      <path class="cls-7" d="M172.94,185.8c4.98-11.77,4.69-23.21,3.87-30.32,1.17-9.29,1.36-20.72-1.28-33.26-1.46-6.92-8.02-38.05-22.2-39.67-8.69-.99-19.27,9.12-26.31,26-3.99-1.12-8.09-1.89-12.27-2.28-3.36,41.66,7.85,79.56,34.29,89.54,4.77,1.8,10.01,2.91,15.58,3.36,3.29-3.8,6.14-8.22,8.32-13.38Z"/>
      <path class="cls-1" d="M77.78,107.31c2.01,4.72,3.87,9.61,4.43,14.78.12,1.16.18,2.36-.19,3.46-.3.91-.88,1.69-1.52,2.35-2.52,2.61-20.41,7.99-25.93,9.72-4,1.25-6.1-2.75-6.18-6.09-.19-7.85,1.58-21.82,10.27-32.56,2.57-3.18,7.28-8,12.15-2.64,2.83,3.11,5.6,7.77,6.96,10.98Z"/>
      <path class="cls-1" d="M138.53,107.31c-2.01,4.72-3.87,9.61-4.43,14.78-.12,1.16-.18,2.36.19,3.46.3.91.88,1.69,1.52,2.35,2.52,2.61,20.41,7.99,25.93,9.72,4,1.25,6.1-2.75,6.18-6.09.19-7.85-1.58-21.82-10.27-32.56-2.57-3.18-7.28-8-12.15-2.64-2.83,3.11-5.6,7.77-6.96,10.98Z"/>
      <circle class="cls-1" cx="62.18" cy="178.86" r="9.74" transform="translate(-126.15 198.49) rotate(-76.78)"/>
      <circle class="cls-1" cx="154.66" cy="178.86" r="9.74" transform="translate(-81.17 161.75) rotate(-45)"/>
      <circle class="cls-2" cx="145.12" cy="167.85" r="9.13" transform="translate(-59.25 81.45) rotate(-26.24)"/>
      <circle class="cls-2" cx="71.72" cy="167.85" r="9.13" transform="translate(-66.81 49) rotate(-26.24)"/>
      <path class="cls-6" d="M150.47,168.55c-2.83.64-4.01,1.82-4.65,4.65-.17.76-1.26.76-1.43,0-.64-2.83-1.82-4.01-4.65-4.65-.76-.17-.76-1.26,0-1.43,2.83-.64,4.01-1.82,4.65-4.65.17-.76,1.26-.76,1.43,0,.64,2.83,1.82,4.01,4.65,4.65.76.17.76,1.26,0,1.43Z"/>
      <path class="cls-6" d="M77.09,168.55c-2.83.64-4.01,1.82-4.65,4.65-.17.76-1.26.76-1.43,0-.64-2.83-1.82-4.01-4.65-4.65-.76-.17-.76-1.26,0-1.43,2.83-.64,4.01-1.82,4.65-4.65.17-.76,1.26-.76,1.43,0,.64,2.83,1.82,4.01,4.65,4.65.76.17.76,1.26,0,1.43Z"/>
      <g>
        <path class="cls-2" d="M113.37,168.62c0,1.46-2.21,2.64-4.95,2.64s-4.95-1.18-4.95-2.64,2.21-2.64,4.95-2.64,4.95,1.18,4.95,2.64Z"/>
        <path class="cls-5" d="M95.8,175.47c1.03,2.1,3.1,3.6,5.54,3.84.23.03.47.05.71.05,2.6,0,4.87-1.42,6.06-3.54.2-.33.67-.33.85,0,1.18,2.11,3.45,3.54,6.04,3.54.17,0,.34-.01.52-.01,2.37-.18,4.41-1.53,5.53-3.48"/>
        <path class="cls-4" d="M116.17,180.03h0c0,5.89-3.48,10.66-7.75,10.66s-7.75-4.76-7.75-10.64v-.05c.25.04.52.05.78.05,2.84,0,5.33-1.56,6.62-3.87.21-.36.73-.36.93,0,1.29,2.31,3.77,3.87,6.61,3.87.19,0,.38-.01.57-.01Z"/>
      </g>
      <g>
        <path class="cls-2" d="M138.76,154.07c-.08.35-.35.63-.82.81-1.25.48-2.61.77-3.95.71-1.24-.06-2.51-.51-3.33-1.44-1.56-1.76-.67-4.8,1.74-5.17.96-.15,1.95.12,2.82.57,1.49.76,2.71,2.04,3.4,3.57.16.35.21.68.15.95Z"/>
        <path class="cls-2" d="M78.11,154.42c.11.34.4.6.88.74,1.28.38,2.67.55,4,.38,1.23-.16,2.46-.71,3.21-1.71,1.41-1.88.27-4.84-2.15-5.01-.97-.07-1.93.28-2.76.79-1.43.88-2.54,2.26-3.1,3.84-.13.37-.15.69-.07.96Z"/>
      </g>
    </g>
  </g>
  <g>
    <path class="cls-6" d="M144.56,36.14c0-19.96-16.18-36.14-36.14-36.14s-36.14,16.18-36.14,36.14c0,16.39,10.91,30.22,25.86,34.65l9.95,19.98,11.43-20.23c14.53-4.68,25.04-18.31,25.04-34.4Z"/>
    <g>
      <path class="cls-2" d="M105.34,38.01c0-.07-.01-.13-.03-.2,0-.03-.01-.05-.01-.08v-.05c-.07-.55-.39-.93-.96-1.09-1.03-.23-1.95-.3-2.82-.22-.57.05-1.14.08-1.65.1-.31.01-.6.03-.83.04l-2.29.03-.07-.14h-.31c-.42.01-.85-.01-1.3-.03-.03-.34-.06-.66-.07-.98v-.6c-.02-1.18-.03-2.41-.2-3.62-.05-.39-.04-.79-.03-1.21,0-.21,0-.42,0-.65l.12-.04c.33-.12.64-.23.95-.24l1.92-.03c.26,0,.52,0,.77,0,.52,0,1.06,0,1.61-.03.6-.05,1.21-.02,1.85.02.31.02.61.04.92.05.52.13,1.02.13,1.5.14.16,0,.31,0,.49.01h.37c.57-.07,1.09-.38,1.38-.85.26-.41.31-.88.14-1.34-.03-.06-.04-.14-.05-.24-.01-.07-.02-.14-.03-.17-.08-.57-.51-.85-.67-.95-.57-.34-1.76-.52-2.53-.38-.41.09-.87.11-1.47.08-.25-.01-.5-.03-.75-.05-.83-.07-1.72-.06-2.6-.07-1.13-.02-2.31-.04-3.48.16-.17.03-.36.03-.56.04-.25,0-.48.05-.68.08-.49.05-.9.28-1.26.7-.31.41-.47.86-.51,1.37-.01.15-.02.29-.02.44-.01.28-.02.54-.06.8-.1.68-.09,1.35-.08,2,0,.43.05.85.1,1.26.03.26.06.53.07.78.04.96.07,2.1-.06,3.24-.07.77-.05,1.48.07,2.16.11.62.07,1.25.02,1.77,0,.06-.02.11-.03.17-.03.21-.07.45-.03.7.05.39.04.79.03,1.21,0,.22,0,.44,0,.66,0,.57.02,1.15.06,1.77.03.24.04.49.01.74-.09.9-.09,1.84,0,2.86.05.7.34,1.29.57,1.71.09.18.28.37.53.4.25.07.5.13.77.17h.07c.28,0,.51-.2.59-.29l.04-.04c.35-.45.49-.96.44-1.55-.03-.38-.03-.77-.02-1.17,0-.21,0-.41,0-.61,0-.07,0-.15.01-.22,0-.11.02-.21.01-.35-.01-.18-.03-.37-.05-.55-.04-.35-.07-.69-.08-1.02l-.04-2.77c0-.48.02-.98.05-1.44,0-.05.01-.07.01-.07,0,0,.04-.02.09-.03h.51c.2-.01.41,0,.61,0,.33.01.67.03,1.02,0,.52-.04,1.05-.09,1.57-.09l1.92-.03c.22,0,.43-.01.65-.02.43-.01.84-.03,1.25-.01.96.03,1.75-.36,2.3-1.14.21-.33.29-.65.25-.99Z"/>
      <path class="cls-2" d="M124.78,48.53c-.01-.06-.03-.12-.05-.18-.02-.09-.05-.17-.05-.27-.1-.95-.46-1.75-.8-2.41-.31-.61-.64-1.23-.84-1.84-.09-.35-.27-.64-.43-.92-.37-.55-.58-1.19-.75-1.8-.19-.66-.41-1.32-.68-1.99-.37-.96-.75-1.95-1.32-2.9l-.03-.05c-.07-.09-.13-.24-.19-.39l-1.22-2.87-.65-1.46c-.09-.24-.2-.48-.3-.72-.18-.42-.35-.81-.46-1.2-.1-.4-.25-.78-.39-1.14-.14-.35-.27-.68-.35-1-.04-.21-.14-.37-.21-.49-.02-.03-.04-.06-.05-.1l-.44-.85c-.08-.15-.32-.62-.79-.63-.5-.01-.78.46-.89.63l-.06.1c-.1.17-.23.38-.27.61-.06.29-.21.58-.36.87-.05.1-.1.2-.16.32-.14.31-.28.62-.42.93-.35.76-.71,1.55-1.04,2.36-.09.24-.19.48-.28.72-.39.99-.79,2.02-1.07,3.08-.09.36-.22.7-.36,1.07l-.52,1.52c-.26.86-.53,1.76-.9,2.59-.26.61-.52,1.23-.77,1.86-.18.44-.36.88-.54,1.33l-.02.05c-.07.23-.15.46-.19.72-.06.43-.23.84-.4,1.18l-.17.36c-.33.71-.67,1.44-.83,2.26v.05s-.02.02-.03.04c-.29.6-.32,1.22-.34,1.87-.02.1-.03.27.02.47l.99,1.08c.08.01.17.02.25.02.48,0,.86-.26.99-.67.05-.17.12-.33.18-.5.15-.37.3-.76.34-1.18.06-.38.18-.74.31-1.12.03-.08.06-.15.09-.22.08-.21.18-.44.21-.69.07-.49.25-.95.44-1.45.05-.13.1-.25.14-.37.08-.2.15-.39.22-.59.15-.41.28-.79.48-1.15l.11-.41.5-1.25v-.02s.07,0,.11,0c.11,0,.27.02.44-.03.1-.03.2-.06.3-.09.17-.05.34-.1.49-.13.15-.02.31-.02.49-.01.1,0,.2,0,.31,0h.15c1.32-.13,2.54-.14,3.74-.02h.05c.18,0,.43,0,.65-.13.28-.13.47-.13.72-.03.2.08.4.07.56.06.07,0,.14,0,.23,0,.37.02.5.15.57.34l1,2.77c.04.1.07.2.11.3.11.32.22.64.41.94.37.61.65,1.25.87,1.94.26.81.78,1.44,1.33,2,.21.21.48.32.77.3.3-.01.59-.16.82-.43.25-.32.33-.7.22-1.04ZM114.74,30.81l.36,1.14c.15.44.35.89.58,1.35.22.41.41.83.61,1.28.08.19.17.37.26.57l.41.86c.14.27.22.5.25.72.03.24.1.45.17.64.04.11.08.22.11.35.01.05.02.1.04.14-.66.04-1.3.06-1.94-.11-.37-.08-.73-.07-1.07-.07l-2.44.03.37-1.16c.35-1.38.88-2.75,1.58-4.11l.39-.89c.11-.26.21-.5.31-.75Z"/>
    </g>
  </g>
</svg>