<?xml version="1.0" encoding="UTF-8"?>
<svg id="OBJECTS" xmlns="http://www.w3.org/2000/svg" viewBox="0 0 216.84 261.68">
  <defs>
    <style>
      .cls-1 {
        fill: #e5d8cf;
      }

      .cls-2 {
        fill: #51302a;
      }

      .cls-3 {
        fill: none;
        stroke: #51302a;
        stroke-linecap: round;
        stroke-linejoin: round;
        stroke-width: 4.02px;
      }

      .cls-4 {
        fill: #f3f3f3;
      }

      .cls-5 {
        fill: #895646;
      }

      .cls-6 {
        fill: #eab394;
      }
    </style>
  </defs>
  <g>
    <circle class="cls-1" cx="108.42" cy="153.26" r="108.42"/>
    <g>
      <path class="cls-5" d="M176.81,156.45c1.17-9.29,1.36-20.72-1.28-33.26-1.46-6.92-8.02-38.05-22.2-39.67-8.69-.99-19.27,9.12-26.31,26-5.92-1.67-12.1-2.57-18.4-2.6-6.42-.04-12.7.82-18.74,2.48-7.04-16.97-17.66-27.16-26.37-26.16-14.18,1.62-20.74,32.75-22.2,39.67-2.59,12.31-2.45,23.55-1.34,32.74-.86,7.5-1.38,21.62,5.64,35.53,16.06,31.83,56.29,32.23,63.01,32.15,3.09-.04,49.43-1.34,64.32-36.57,4.98-11.77,4.69-23.21,3.87-30.32Z"/>
      <path class="cls-4" d="M172.94,186.48c4.98-11.77,4.69-23.21,3.87-30.32,1.17-9.29,1.36-20.72-1.28-33.26-1.46-6.92-8.02-38.05-22.2-39.67-8.69-.99-19.27,9.12-26.31,26-3.99-1.12-8.09-1.89-12.27-2.28-3.36,41.66,7.85,79.56,34.29,89.54,4.77,1.8,10.01,2.91,15.58,3.36,3.29-3.8,6.14-8.22,8.32-13.38Z"/>
      <g>
        <path class="cls-2" d="M139.04,153.28c.02.36-.15.71-.55,1.01-1.06.82-2.28,1.49-3.58,1.82-1.21.3-2.55.24-3.61-.41-2-1.24-2.03-4.4.17-5.45.88-.42,1.9-.45,2.86-.27,1.65.3,3.19,1.17,4.29,2.43.25.29.4.59.42.87Z"/>
        <path class="cls-2" d="M77.74,153.28c-.02.36.15.71.55,1.01,1.05.82,2.28,1.49,3.58,1.82,1.21.3,2.55.24,3.61-.41,2-1.24,2.03-4.4-.17-5.45-.88-.42-1.9-.45-2.86-.27-1.65.3-3.19,1.17-4.29,2.43-.25.29-.4.59-.42.87Z"/>
      </g>
      <path class="cls-6" d="M77.78,107.99c2.01,4.72,3.87,9.61,4.43,14.78.12,1.16.18,2.36-.19,3.46-.3.91-.88,1.69-1.52,2.35-2.52,2.61-20.41,7.99-25.93,9.72-4,1.25-6.1-2.75-6.18-6.09-.19-7.85,1.58-21.82,10.27-32.56,2.57-3.18,7.28-8,12.15-2.64,2.83,3.11,5.6,7.77,6.96,10.98Z"/>
      <path class="cls-6" d="M138.53,107.99c-2.01,4.72-3.87,9.61-4.43,14.78-.12,1.16-.18,2.36.19,3.46.3.91.88,1.69,1.52,2.35,2.52,2.61,20.41,7.99,25.93,9.72,4,1.25,6.1-2.75,6.18-6.09.19-7.85-1.58-21.82-10.27-32.56-2.57-3.18-7.28-8-12.15-2.64-2.83,3.11-5.6,7.77-6.96,10.98Z"/>
      <circle class="cls-6" cx="62.18" cy="179.54" r="9.74" transform="translate(-126.82 199.02) rotate(-76.78)"/>
      <circle class="cls-6" cx="154.66" cy="179.54" r="9.74" transform="translate(-81.65 161.94) rotate(-45)"/>
      <circle class="cls-2" cx="145.12" cy="168.53" r="9.13" transform="translate(-68.65 107.18) rotate(-33.26)"/>
      <circle class="cls-2" cx="71.72" cy="168.53" r="9.13" transform="translate(-67.11 49.07) rotate(-26.24)"/>
      <path class="cls-2" d="M113.37,173.67c0,1.46-2.21,2.64-4.95,2.64s-4.95-1.18-4.95-2.64,2.21-2.64,4.95-2.64,4.95,1.18,4.95,2.64Z"/>
      <path class="cls-3" d="M95.8,180.52c1.03,2.1,3.1,3.6,5.54,3.84.23.03.47.05.71.05,2.6,0,4.87-1.42,6.06-3.54.2-.33.67-.33.85,0,1.18,2.11,3.45,3.54,6.04,3.54.17,0,.34-.01.52-.01,2.37-.18,4.41-1.53,5.53-3.48"/>
    </g>
  </g>
  <g>
    <path class="cls-4" d="M144.56,36.14c0-19.96-16.18-36.14-36.14-36.14s-36.14,16.18-36.14,36.14c0,16.39,10.91,30.22,25.86,34.65l9.95,19.98,11.43-20.23c14.53-4.68,25.04-18.31,25.04-34.4Z"/>
    <g>
      <path class="cls-2" d="M105.81,46.81c-.93-.38-2.17-.8-3.57-.58-.21.03-.41.03-.63,0-.32-.04-.63-.04-.93-.04h-2.51c-.32,0-.64,0-.98.08-.48.11-.97.13-1.48.15l-.4.02c-.17,0-.34.01-.51.02-.44.01-.9.02-1.37.13h-.13s-.03,0-.04,0c0-.18,0-.37,0-.55,0-.39-.02-.75,0-1.12.02-.3-.02-.57-.06-.84-.05-.31-.09-.57-.02-.84.05-.25,0-.47-.05-.63,0-.04-.02-.08-.02-.08-.04-.28-.07-.55-.07-.81,0-.93,0-1.9-.04-2.84-.01-.43,0-.86,0-1.29.01-1.06.03-2.15-.19-3.26l-.02-.06s-.01-.1-.01-.17v-4.03c0-.23,0-.44.06-.64.21-.85.04-1.66-.14-2.38-.05-.27-.18-.48-.29-.65l-.05-.07c-.17-.35-.67-.45-.98-.29-.6.33-.95.74-1.08,1.27-.15.6-.31,1.22-.31,1.86,0,.27,0,.53-.02.8,0,.28-.02.56-.02.83,0,.48-.03.97-.1,1.45-.1.62-.11,1.14-.03,1.61.13.75.14,1.5.16,2.29,0,.27,0,.53.02.78,0,.11,0,.21,0,.32,0,.34-.01.7.04,1.05.07.54.03,1.1,0,1.68,0,.07,0,.13,0,.2,0,.24-.02.51.05.77.18.88.17,1.77.14,2.61-.02.76-.02,1.53,0,2.27,0,.37,0,.75,0,1.12,0,.52,0,1.11.25,1.67.04.14.04.29.04.47,0,.46.13.88.42,1.31.27.39.62.59,1,.59.18,0,.38-.04.58-.14l.26-.13.1-.03c.58-.19,1.07-.36,1.62-.2.43.11.85.03,1.11-.03.39-.09.81-.13,1.3-.13.23,0,.48,0,.74-.04h.05c.49-.15,1-.15,1.54-.14h2.61s.03-.1.03-.1c.24,0,.49,0,.73,0,.53,0,1.07,0,1.59.05,1.25.11,1.57-.19,1.98-.92.04-.07.08-.14.12-.21.12-.18.17-.38.2-.52.23-.69-.04-1.35-.69-1.64Z"/>
      <path class="cls-2" d="M127.01,48.89c-.01-.06-.03-.12-.05-.19-.02-.09-.05-.18-.05-.28-.08-.98-.44-1.8-.78-2.47-.31-.62-.63-1.27-.83-1.89-.09-.36-.26-.66-.43-.95-.37-.57-.57-1.23-.73-1.85-.18-.68-.4-1.35-.67-2.04-.36-.98-.74-2-1.31-2.98l-.03-.05c-.07-.09-.13-.25-.19-.4l-1.2-2.95-.64-1.5c-.09-.25-.19-.5-.29-.74-.18-.43-.34-.83-.45-1.24-.1-.41-.24-.8-.38-1.17-.13-.36-.26-.7-.34-1.03-.04-.21-.14-.38-.21-.5-.02-.03-.04-.07-.05-.1l-.44-.87c-.08-.16-.32-.63-.8-.66-.51-.01-.81.45-.92.63l-.07.1c-.11.17-.24.38-.28.62-.07.3-.22.58-.38.89-.05.1-.11.2-.17.32-.15.31-.3.63-.45.94-.37.77-.75,1.57-1.09,2.39-.1.25-.2.49-.3.74-.41,1.01-.84,2.05-1.14,3.13-.1.37-.24.71-.39,1.09l-.55,1.54c-.28.88-.57,1.79-.96,2.63-.28.62-.54,1.25-.81,1.89-.19.45-.38.9-.57,1.35l-.02.05c-.08.23-.16.47-.2.73-.07.44-.25.85-.43,1.2l-.18.37c-.35.72-.71,1.46-.88,2.29v.05s-.02.03-.03.04c-.3.61-.34,1.24-.38,1.9-.02.1-.04.28.01.48l.99,1.12c.08.02.17.02.26.02.49,0,.88-.26,1.02-.67.06-.17.13-.34.19-.51.16-.38.32-.77.37-1.2.07-.39.2-.76.34-1.14.03-.08.06-.15.09-.23.09-.21.19-.45.22-.71.08-.5.27-.97.47-1.47.05-.13.1-.26.15-.38.08-.2.16-.4.23-.59.15-.41.3-.8.51-1.17l.12-.42.53-1.27v-.02s.08,0,.11,0c.12,0,.28.02.45-.02.1-.03.21-.06.31-.09.18-.05.35-.1.5-.12.15-.02.32-.01.5,0,.1,0,.21,0,.31,0h.15c1.35-.11,2.6-.1,3.82.03h.06c.18,0,.44,0,.67-.13.28-.12.49-.13.74-.02.2.08.41.07.57.07.07,0,.15,0,.23,0,.38.03.51.16.58.35l.98,2.84c.04.1.07.21.11.31.11.32.22.66.4.97.37.63.65,1.29.86,2,.25.83.78,1.48,1.32,2.06.21.21.47.33.78.32.31-.01.6-.16.84-.43.26-.32.35-.71.24-1.06ZM117.02,30.65l.35,1.17c.15.46.34.92.58,1.38.22.42.41.85.61,1.32.08.19.16.39.25.58l.41.89c.14.28.22.51.24.74.03.24.1.46.16.66.04.11.07.22.1.35.01.05.02.1.03.14-.68.03-1.32.04-1.98-.14-.38-.09-.74-.09-1.09-.09h-2.49l.4-1.18c.38-1.4.94-2.79,1.68-4.17l.41-.9c.11-.26.22-.51.33-.76Z"/>
    </g>
  </g>
</svg>