<?xml version="1.0" encoding="UTF-8"?>
<svg id="OBJECTS" xmlns="http://www.w3.org/2000/svg" viewBox="0 0 216.84 261.68">
  <defs>
    <style>
      .cls-1 {
        fill: #e5d8cf;
      }

      .cls-2 {
        fill: #f7e1ca;
      }

      .cls-3 {
        fill: #51302a;
      }

      .cls-4 {
        fill: #f3f3f3;
      }

      .cls-5 {
        fill: #895646;
      }

      .cls-6 {
        fill: #eab394;
      }
    </style>
  </defs>
  <g>
    <circle class="cls-1" cx="108.42" cy="153.26" r="108.42"/>
    <g>
      <path class="cls-5" d="M176.81,156.45c1.17-9.29,1.36-20.72-1.28-33.26-1.46-6.92-8.02-38.05-22.2-39.67-8.69-.99-19.27,9.12-26.31,26-5.92-1.67-12.1-2.57-18.4-2.6-6.42-.04-12.7.82-18.74,2.48-7.04-16.97-17.66-27.16-26.37-26.16-14.18,1.62-20.74,32.75-22.2,39.67-2.59,12.31-2.45,23.55-1.34,32.74-.86,7.5-1.38,21.62,5.64,35.53,16.06,31.83,56.29,32.23,63.01,32.15,3.09-.04,49.43-1.34,64.32-36.57,4.98-11.77,4.69-23.21,3.87-30.32Z"/>
      <g>
        <path class="cls-3" d="M139.04,153.28c.02.36-.15.71-.55,1.01-1.06.82-2.28,1.49-3.58,1.82-1.21.3-2.55.24-3.61-.41-2-1.24-2.03-4.4.17-5.45.88-.42,1.9-.45,2.86-.27,1.65.3,3.19,1.17,4.29,2.43.25.29.4.59.42.87Z"/>
        <path class="cls-3" d="M77.74,153.28c-.02.36.15.71.55,1.01,1.05.82,2.28,1.49,3.58,1.82,1.21.3,2.55.24,3.61-.41,2-1.24,2.03-4.4-.17-5.45-.88-.42-1.9-.45-2.86-.27-1.65.3-3.19,1.17-4.29,2.43-.25.29-.4.59-.42.87Z"/>
      </g>
      <path class="cls-2" d="M77.78,107.99c2.01,4.72,3.87,9.61,4.43,14.78.12,1.16.18,2.36-.19,3.46-.3.91-.88,1.69-1.52,2.35-2.52,2.61-20.41,7.99-25.93,9.72-4,1.25-6.1-2.75-6.18-6.09-.19-7.85,1.58-21.82,10.27-32.56,2.57-3.18,7.28-8,12.15-2.64,2.83,3.11,5.6,7.77,6.96,10.98Z"/>
      <path class="cls-2" d="M138.53,107.99c-2.01,4.72-3.87,9.61-4.43,14.78-.12,1.16-.18,2.36.19,3.46.3.91.88,1.69,1.52,2.35,2.52,2.61,20.41,7.99,25.93,9.72,4,1.25,6.1-2.75,6.18-6.09.19-7.85-1.58-21.82-10.27-32.56-2.57-3.18-7.28-8-12.15-2.64-2.83,3.11-5.6,7.77-6.96,10.98Z"/>
      <circle class="cls-6" cx="62.18" cy="179.54" r="9.74" transform="translate(-126.82 199.02) rotate(-76.78)"/>
      <circle class="cls-6" cx="154.66" cy="179.54" r="9.74" transform="translate(-81.65 161.94) rotate(-45)"/>
      <circle class="cls-3" cx="145.12" cy="168.53" r="9.13" transform="translate(-59.55 81.52) rotate(-26.24)"/>
      <circle class="cls-3" cx="71.72" cy="168.53" r="9.13" transform="translate(-67.11 49.07) rotate(-26.24)"/>
      <path class="cls-3" d="M113.37,173.67c0,1.46-2.21,2.64-4.95,2.64s-4.95-1.18-4.95-2.64,2.21-2.64,4.95-2.64,4.95,1.18,4.95,2.64Z"/>
      <path class="cls-3" d="M115,186.16c-2.5,0-4.84-1.07-6.47-2.88-1.62,1.81-3.98,2.88-6.48,2.88-.34,0-.65-.02-.93-.06-2.99-.31-5.57-2.11-6.9-4.81-.43-.87-.07-1.92.8-2.35.87-.43,1.92-.07,2.35.8.78,1.59,2.37,2.69,4.13,2.86.03,0,.06,0,.09.01.14.02.3.03.45.03,1.88,0,3.61-1.01,4.52-2.64.43-.73,1.18-1.16,1.99-1.15.8.01,1.54.45,1.93,1.16.91,1.62,2.64,2.63,4.51,2.63h.2c.08,0,.16,0,.24-.01,1.72-.15,3.24-1.12,4.08-2.6.48-.84,1.55-1.14,2.4-.65.84.48,1.14,1.55.65,2.4-1.43,2.51-4.01,4.14-6.92,4.36-.05,0-.09,0-.14,0h-.2c-.1,0-.21.01-.31.01ZM107.42,181.72s0,0,0,.01c0,0,0,0,0-.01Z"/>
    </g>
  </g>
  <g>
    <path class="cls-4" d="M144.56,36.14c0-19.96-16.18-36.14-36.14-36.14s-36.14,16.18-36.14,36.14c0,16.39,10.91,30.22,25.86,34.65l9.95,19.98,11.43-20.23c14.53-4.68,25.04-18.31,25.04-34.4Z"/>
    <g>
      <path class="cls-3" d="M110.31,25.27c-.8.33-1.33.79-1.62,1.39-.07.14-.17.23-.3.36l-1.64,1.71-.17.18c-.27.27-.52.52-.84.74-.19.14-.32.32-.42.45l-1.11,1.31c-.25.25-.5.5-.72.79-.59.76-1.24,1.54-1.91,2.31-.26.3-.56.55-.88.82-.15.13-.31.26-.46.39l-.14-.07c-.32-.24-.62-.5-.93-.78-.39-.35-.8-.71-1.26-1.02l-.16-.19-2.1-2-1.23-1.1c-.24-.22-.47-.45-.7-.67-.43-.43-.88-.87-1.4-1.25-.66-.46-1.28-1.01-1.89-1.56-.54-.44-.93-.99-1.25-1.48-.44-.61-.78-.82-1.54-.33l-.27.23c-.36.27-.58.66-.63,1.12v.05c0,.1,0,.2.02.3,0,.07.01.14.02.24.03.5.07,1.01.07,1.51,0,.21,0,.43,0,.64,0,.44-.02.89,0,1.34.01.21.01.42.01.63,0,.45,0,.92.11,1.42.02.08.02.18.02.29v3.5c0,.17,0,.35,0,.52-.01.8-.02,1.63.19,2.46.03.13.03.27.03.42v2.88c0,.68,0,1.38.04,2.09.03.5.11,1,.21,1.5.09.45.36.84.79,1.12.47.31.93.29,1.41-.09.42-.32.63-.76.63-1.3,0-.19-.03-.38-.06-.54-.02-.14-.05-.27-.05-.38,0-.09.01-.17.02-.26.03-.23.06-.52-.04-.82,0-.03,0-.1,0-.16v-.08c-.08-.42-.1-.79-.07-1.09.08-.61.07-1.16-.04-1.67-.03-.21-.03-.42-.03-.67,0-.38-.01-.76-.01-1.14,0-1.01,0-2.06-.16-3.1v-3.58l-.25.07c0-.22,0-.44-.01-.67,0-.43-.02-.85-.02-1.28v-.24s.04.04.05.06c.35.53.84.85,1.21,1.07l.52.31c.15.09.29.17.39.27l3.02,2.98c.29.29.59.59.98.82.14.09.27.21.41.35.08.08.16.16.24.22.1.1.2.2.3.3.31.31.63.64,1.12.86,0,0,.02.02.04.03.23.32.52.55.8.77.23.18.45.35.61.56.11.17.27.25.36.3.3.15.76.14,1.03-.12.03-.03.06-.05.08-.08.08-.07.17-.15.25-.27.2-.3.36-.47.59-.62l.41-.36c.45-.35.79-.78,1.13-1.19.3-.37.59-.73.94-1.01l.04-.03s.14-.14.18-.28c.12-.23.3-.44.5-.66.15-.17.3-.34.43-.52.19-.25.41-.51.67-.76.28-.31.56-.63.82-1.01.11-.17.23-.35.35-.44.39-.32.76-.67,1.12-1.02,0,.22-.03.44-.07.64-.15.59-.16,1.21-.04,1.83.03.19.03.39,0,.57-.15.81-.15,1.63,0,2.45.05.24.05.48,0,.75-.09.56-.03,1.08.03,1.46.03.34.07.66.07.97-.02.5.01.99.04,1.47.03.55.06,1.08.03,1.63,0,.14.02.27.04.39.01.08.03.15.03.23,0,.06,0,.12,0,.18,0,.04,0,.1,0,.12-.14.55-.1,1.07-.07,1.57.01.2.03.4.03.6,0,.18.04.33.08.46.01.05.03.1.03.12.08.58.44,1.07,1.05,1.42.15.07.3.11.46.11.19,0,.39-.05.61-.16.57-.33.87-.88.82-1.52-.02-.2-.01-.4,0-.62,0-.12,0-.24,0-.36,0-.1,0-.2,0-.3,0-.33.01-.66-.05-1.01-.09-.53-.13-1.11-.13-1.77v-3.29c0-.53.01-1.08-.12-1.68-.03-.11-.03-.24-.02-.39,0-.07,0-.13,0-.2v-5.01c0-.11.02-.22.03-.33.03-.35.07-.71.04-1.09-.02-.21,0-.44.03-.68.02-.21.04-.41.04-.62v-.14c0-.52,0-.97.24-1.35.11-.13.14-.28.16-.37,0-.02,0-.03,0-.03.17-.43.16-.9-.03-1.38-.16-.41-.67-.63-1.14-.47Z"/>
      <path class="cls-3" d="M130.01,25.76c-.05-.16-.15-.32-.27-.44-.39-.47-.85-.74-1.36-.78-.8-.1-1.67-.17-2.45-.08-.27.03-.53.06-.77.05-.22-.01-.44-.05-.68-.09-.32-.06-.65-.11-1-.11h-.41c-.16,0-.31,0-.47.02-.28.01-.55.03-.82-.01-.54-.06-1.06-.02-1.57,0l-.36.02c-.7.03-1.43.07-2.14.07-.43,0-.81.05-1.18.16-.13.04-.31.1-.46.25l-.16.21c-.29.38-.62.8-.69,1.4l-.06.45c-.09.61-.18,1.24-.18,1.88,0,.6-.03,1.2-.1,1.81-.03.38-.07.78-.07,1.16,0,.25-.02.5-.02.75-.02.72-.04,1.47-.11,2.19-.09.8-.11,1.64-.07,2.73,0,.58,0,1.12-.09,1.63-.07.27-.06.52-.05.75,0,.06,0,.13,0,.17-.01.24-.02.49-.03.73-.01.46-.03.94-.07,1.39-.07.52-.12,1.15,0,1.76.03.25.02.46-.02.64-.18.69-.15,1.41.11,2.23.1.29.16.59.23.91.07.27.14.55.24.84.07.26.21.47.43.62.07.04.14.08.21.12.4.23.89.52,1.56.34.02,0,.04,0,.06.01.08.01.15.03.23.03.29.03.63.07.96.07h5.87c.16,0,.33,0,.51-.04.63-.13,1.26-.09,1.93-.06.5.04.99.04,1.47.04.53,0,.94-.27,1.15-.74.1-.2.15-.41.15-.62,0-.13,0-.26-.02-.39,0-.11-.02-.22-.02-.33v-.06c-.05-.37-.23-.7-.56-.97-.41-.32-.86-.48-1.36-.48h-.94s-2.86.1-2.86.1c-.15,0-.3,0-.44,0-.63-.01-1.27-.02-1.97.17-.03.01-.09.01-.17.01l-3.9.1-.11-2.42c0-.24.01-.48.02-.72.02-.71.04-1.38.1-2.05l.07-.13v-.08c.08-.58.15-1.19.15-1.81,0-.26,0-.44.02-.54.04-.01.09-.02.14-.03.12-.03.26-.06.41-.1.16-.04.34-.03.59.03.55.14,1.14.14,1.84,0,.69-.11,1.49-.2,2.28,0,.16.04.39.1.65.03.2-.05.41-.04.66-.03.3.02.62.04.92-.03.49-.06.9-.47.96-.97.04-.33.04-.66.04-.98s-.12-.79-.7-1.16c-.33-.2-.7-.34-1.09-.38h-3.04s-.22,0-.22,0c-.33,0-.71-.01-1.06.09-.42.1-.84.12-1.29.14-.29.01-.58.02-.89.06,0-.35.01-.71.02-1.06,0-.73.02-1.49.08-2.23.05-.56.06-1.12.08-1.67,0-.27.02-.55.03-.84v-1.11c0-.12.02-.38.02-.41.03-.02.15-.06.34-.11.25-.06.5-.09.76-.13l.92-.1c.1-.01.2,0,.31,0,.24.01.54.02.87-.08.6.15,1.17.14,1.73.12.79-.02,1.56-.04,2.32.12.45.07.89.07,1.29.07.22,0,.44.01.66.01.63,0,1.22.01,1.78.17.48.16,1-.21,1.15-.66.15-.47.15-.98,0-1.63Z"/>
    </g>
  </g>
</svg>