<?xml version="1.0" encoding="UTF-8"?>
<svg id="Camada_1" data-name="Camada 1" xmlns="http://www.w3.org/2000/svg" xmlns:xlink="http://www.w3.org/1999/xlink" viewBox="0 0 406 248">
  <defs>
    <style>
      .cls-1 {
        fill: #e5d8cf;
      }

      .cls-2 {
        fill: #f7e1ca;
      }

      .cls-3 {
        fill: url(#Gradiente_sem_nome);
      }

      .cls-4 {
        fill: url(#Gradiente_sem_nome_2);
      }

      .cls-5 {
        fill: #51302a;
      }

      .cls-6 {
        fill: none;
      }

      .cls-6, .cls-7 {
        stroke: #51302a;
        stroke-linecap: round;
        stroke-linejoin: round;
        stroke-width: 4.02px;
      }

      .cls-7 {
        fill: #ffcaca;
      }

      .cls-8 {
        fill: #f3f3f3;
      }

      .cls-9 {
        fill: #e3a27e;
      }

      .cls-10 {
        fill: #eab394;
      }
    </style>
    <radialGradient id="Gradiente_sem_nome" data-name="Gradiente sem nome" cx="-482.09" cy="510.79" fx="-482.09" fy="510.79" r="1" gradientTransform="translate(-74481.47 -73744.04) rotate(-180) scale(154.8 -144.68)" gradientUnits="userSpaceOnUse">
      <stop offset=".08" stop-color="#eab394"/>
      <stop offset=".38" stop-color="#eab394"/>
      <stop offset=".55" stop-color="#eab394"/>
      <stop offset=".69" stop-color="#eab394"/>
      <stop offset=".81" stop-color="#eab394"/>
      <stop offset=".92" stop-color="#ecc3ac"/>
      <stop offset="1" stop-color="#eab394"/>
    </radialGradient>
    <radialGradient id="Gradiente_sem_nome_2" data-name="Gradiente sem nome 2" cx="-482.09" cy="510.79" fx="-482.09" fy="510.79" r="1" gradientTransform="translate(-74168.36 -73741.11) rotate(-180) scale(154.8 -144.68)" gradientUnits="userSpaceOnUse">
      <stop offset=".08" stop-color="#eab394"/>
      <stop offset=".38" stop-color="#eab394"/>
      <stop offset=".55" stop-color="#eab394"/>
      <stop offset=".69" stop-color="#eab394"/>
      <stop offset=".81" stop-color="#eab394"/>
      <stop offset=".92" stop-color="#ecc3ac"/>
      <stop offset="1" stop-color="#eab394"/>
    </radialGradient>
  </defs>
  <path class="cls-1" d="M203.2,233.25c51.82,0,93.82-42.01,93.82-93.82s-42.01-93.82-93.82-93.82-93.82,42.01-93.82,93.82,42.01,93.82,93.82,93.82Z"/>
  <path class="cls-8" d="M264.92,140.54c1.04-8.3,1.21-18.53-1.14-29.73-1.3-6.18-7.17-34.02-19.85-35.47-7.76-.88-17.22,8.16-23.52,23.25-5.3-1.49-10.82-2.3-16.45-2.33-5.74-.03-11.36.74-16.76,2.22-6.29-15.17-15.79-24.28-23.58-23.39-12.67,1.45-18.54,29.28-19.85,35.47-2.32,11-2.19,21.05-1.2,29.27-.76,6.7-1.23,19.33,5.04,31.77,14.35,28.46,50.33,28.82,56.33,28.74,2.76-.03,44.19-1.2,57.5-32.69,4.45-10.53,4.2-20.75,3.46-27.11h0Z"/>
  <path class="cls-2" d="M176.39,97.22c1.8,4.22,3.46,8.59,3.96,13.22.11,1.04.16,2.11-.17,3.09-.27.82-.79,1.51-1.36,2.1-2.25,2.33-18.24,7.15-23.18,8.69-3.58,1.12-5.46-2.45-5.52-5.44-.17-7.02,1.41-19.51,9.19-29.12,2.3-2.84,6.51-7.15,10.86-2.36,2.53,2.78,5,6.95,6.23,9.82Z"/>
  <path class="cls-2" d="M230.69,97.22c-1.8,4.22-3.46,8.59-3.96,13.22-.11,1.04-.16,2.11.17,3.09.27.82.79,1.51,1.36,2.1,2.25,2.33,18.24,7.15,23.18,8.69,3.58,1.12,5.46-2.45,5.52-5.44.17-7.02-1.41-19.51-9.19-29.12-2.3-2.84-6.51-7.15-10.87-2.36-2.53,2.78-5,6.95-6.23,9.82Z"/>
  <path class="cls-10" d="M170.91,163.18c1.1-4.68-1.8-9.36-6.48-10.46-4.68-1.1-9.36,1.8-10.46,6.48-1.1,4.68,1.8,9.36,6.48,10.46,4.68,1.1,9.36-1.8,10.46-6.48Z"/>
  <path class="cls-10" d="M251.27,167.33c3.4-3.4,3.4-8.91,0-12.31-3.4-3.4-8.91-3.4-12.31,0s-3.4,8.91,0,12.31,8.91,3.4,12.31,0Z"/>
  <path class="cls-5" d="M240.2,158.64c4.04-1.99,5.7-6.89,3.71-10.93-1.99-4.04-6.89-5.7-10.93-3.71-4.04,1.99-5.7,6.88-3.71,10.93,1.99,4.04,6.88,5.7,10.93,3.71Z"/>
  <path class="cls-5" d="M174.58,158.65c4.04-1.99,5.7-6.89,3.71-10.93-1.99-4.04-6.88-5.7-10.93-3.71-4.04,1.99-5.7,6.88-3.71,10.93,1.99,4.04,6.88,5.7,10.93,3.71Z"/>
  <path class="cls-10" d="M135.72,103.28c-9.14,4.53-12.2,9.54-12.05,19.74.04,2.73-3.69,3.63-4.9,1.19-4.53-9.14-9.54-12.2-19.74-12.06-2.73.04-3.63-3.69-1.18-4.9,9.14-4.53,12.2-9.54,12.06-19.74-.04-2.73,3.69-3.63,4.9-1.18,4.53,9.14,9.54,12.2,19.74,12.05,2.73-.04,3.63,3.69,1.18,4.9Z"/>
  <path class="cls-10" d="M100.73,130.48c-6.14,3.04-8.19,6.41-8.1,13.26.02,1.83-2.48,2.44-3.29.79-3.04-6.14-6.41-8.19-13.26-8.1-1.83.02-2.44-2.48-.79-3.29,6.14-3.04,8.19-6.41,8.1-13.26-.02-1.83,2.48-2.44,3.29-.79,3.04,6.14,6.41,8.19,13.26,8.1,1.83-.02,2.44,2.48.79,3.29Z"/>
  <path class="cls-10" d="M270.43,103.28c9.14,4.53,12.2,9.54,12.05,19.74-.04,2.73,3.69,3.63,4.9,1.19,4.53-9.14,9.54-12.2,19.74-12.06,2.73.04,3.63-3.69,1.18-4.9-9.14-4.53-12.2-9.54-12.05-19.74.04-2.73-3.69-3.63-4.9-1.18-4.53,9.14-9.54,12.2-19.74,12.05-2.73-.04-3.63,3.69-1.18,4.9Z"/>
  <path class="cls-10" d="M305.42,130.48c6.14,3.04,8.19,6.41,8.1,13.26-.02,1.83,2.48,2.44,3.29.79,3.04-6.14,6.41-8.19,13.26-8.1,1.83.02,2.44-2.48.8-3.29-6.14-3.04-8.19-6.41-8.1-13.26.02-1.83-2.48-2.44-3.29-.79-3.04,6.14-6.41,8.19-13.26,8.1-1.83-.02-2.44,2.48-.79,3.29Z"/>
  <path class="cls-5" d="M208.2,152.03c0,1.3-1.98,2.36-4.42,2.36s-4.42-1.06-4.42-2.36,1.98-2.36,4.42-2.36,4.42,1.06,4.42,2.36Z"/>
  <path class="cls-6" d="M192.49,158.16c.92,1.88,2.78,3.21,4.95,3.43.21.03.42.04.64.04,2.32,0,4.35-1.27,5.42-3.16.17-.3.6-.3.76,0,1.06,1.89,3.08,3.16,5.4,3.16.15,0,.31,0,.46,0,2.12-.16,3.94-1.37,4.94-3.12"/>
  <path class="cls-7" d="M210.71,162.23h0c0,5.27-3.12,9.53-6.93,9.53s-6.93-4.26-6.93-9.52v-.04c.23.03.46.04.7.04,2.54,0,4.76-1.39,5.92-3.46.19-.33.65-.33.83,0,1.15,2.07,3.37,3.46,5.91,3.46.17,0,.34-.01.5-.01Z"/>
  <path class="cls-5" d="M230.9,139.02c-.07.32-.31.56-.73.73-1.12.43-2.33.69-3.53.63-1.11-.06-2.25-.45-2.98-1.29-1.39-1.57-.6-4.29,1.55-4.62.86-.13,1.74.11,2.52.5,1.33.68,2.43,1.83,3.04,3.19.14.32.19.6.13.85Z"/>
  <path class="cls-5" d="M176.67,139.34c.1.31.36.54.79.67,1.15.34,2.38.49,3.57.34,1.1-.14,2.2-.64,2.87-1.52,1.26-1.68.25-4.33-1.93-4.48-.87-.06-1.73.25-2.47.71-1.27.78-2.27,2.02-2.77,3.43-.11.33-.14.62-.06.86Z"/>
  <path class="cls-10" d="M237.37,33.48C237.37,15.13,222.49.25,204.14.25s-33.23,14.88-33.23,33.23c0,15.07,10.03,27.79,23.78,31.86l9.15,18.37,10.51-18.61c13.36-4.31,23.03-16.84,23.03-31.63h0Z"/>
  <path class="cls-5" d="M220.74,36.24c-.06-2.77-.96-5.74-1.76-8.37-.14-.46-.28-.91-.4-1.34-1.09-3.72-2.65-8.44-5.08-11.91-.44-.63-1.15-.9-1.86-.7-.55.15-.99.57-1.21,1.09-.52.11-1,.29-1.39.44-.49.2-1.02.31-1.58.43-.6.13-1.21.27-1.83.51-1.3.51-2.4.93-3.56,1.29-2.97.92-5.48,1.88-7.68,2.93-.18.09-.39.18-.59.28-1.38.64-3.11,1.44-4.01,2.57-.41.52-.45,1.18-.12,1.69.05.64.27,1.24.49,1.82.13.35.25.68.34,1.01.29,1.12.76,2.22,1.22,3.29.33.77.64,1.5.89,2.22.3.88.59,1.79.88,2.69.66,2.05,1.34,4.16,2.18,6.18-.22.04-.43.1-.65.16-.18.04-.36.09-.56.14-1.5.34-2.5,1.12-3.37,1.91-1.21,1.11-1.87,2.62-1.75,4.05.1,1.27.79,2.38,1.96,3.14.64.42,1.37.61,2.12.61,2.01,0,4.21-1.33,5.55-3.07,1.69-2.18,1.77-4.46.24-6-.11-.43-.24-.84-.38-1.25-.11-.36-.23-.72-.32-1.06-.59-2.27-1.21-4.62-1.95-6.94-.13-.4-.26-.81-.39-1.22-.3-.97-.61-1.96-.97-2.94,1.9-.39,3.8-.79,5.7-1.19,1.37-.29,2.74-.58,4.1-.86,1.44-.3,2.89-.63,4.29-.95l1.6-.37c.28-.06.57-.12.87-.17.85-.16,1.8-.33,2.64-.77.07.18.15.37.22.55.83,2.18,1.4,3.89,1.87,5.53.14.49.29.99.45,1.49.19.61.39,1.24.55,1.87-.39.04-.77.14-1.17.24-.18.04-.36.09-.56.14-1.5.34-2.5,1.12-3.37,1.91-1.22,1.11-1.87,2.62-1.75,4.05.1,1.27.79,2.38,1.96,3.14,2.31,1.52,5.65.02,7.54-2.29,1.7-2.07,1.91-4.37.58-5.95h0ZM193.71,24.77c1.19-.59,2.44-1.09,3.4-1.45,2.3-.89,4.75-1.57,7.05-2.17,1.12-.29,2.24-.62,3.33-.93.98-.29,1.99-.58,2.98-.84.18-.05.38-.08.57-.12.18-.03.36-.07.54-.11.06.13.13.26.2.39.23.44.45.89.66,1.33.15.34.31.67.45,1.01-2.16.31-4.32,1.01-6.42,1.68-.78.25-1.54.49-2.29.72-1.16.34-2.38.62-3.66.92-2.17.5-4.4,1.02-6.43,1.87-.08-.24-.16-.49-.24-.75-.14-.46-.29-.93-.47-1.39.12-.04.24-.09.34-.14h0Z"/>
  <path class="cls-3" d="M77.93,209.82H.97s2.85-14.29,17.47-18.31c-14.44-2.71-17.47-17.89-17.47-17.89h76.96c6.91,0,9.7,2.23,9.7,8.12v36.2c-.41-6.4-4.6-8.12-9.7-8.12Z"/>
  <path class="cls-9" d="M78.17,225.06h-20.16c-4.99,0-9.06,1.69-9.47,7.93v-35.32c0-5.76,3.37-7.93,9.47-7.93h20.16c4.99,0,9.06-1.69,9.47-7.93v35.32c0,5.76-2.72,7.93-9.47,7.93Z"/>
  <path class="cls-4" d="M328.07,212.74h76.96s-2.85-14.29-17.48-18.31c14.44-2.71,17.48-17.89,17.48-17.89h-76.96c-6.91,0-9.71,2.23-9.71,8.13v36.2c.41-6.4,4.6-8.12,9.71-8.12Z"/>
  <path class="cls-9" d="M327.83,227.99h20.16c4.98,0,9.06,1.69,9.47,7.93v-35.32c0-5.76-3.37-7.93-9.47-7.93h-20.16c-4.99,0-9.06-1.69-9.47-7.93v35.32c0,5.76,2.72,7.93,9.47,7.93Z"/>
  <path class="cls-10" d="M60.07,247.72h286.01c7.89,0,11.08-2.54,11.08-9.28v-41.33c-.47,7.3-5.25,9.28-11.08,9.28H60.07c-5.83,0-10.61-1.98-11.08-9.28v41.33c0,6.74,3.19,9.28,11.08,9.28Z"/>
  <path class="cls-5" d="M87.32,218.56c-.49.2-.92.49-1.15.98-.09.17-.2.29-.32.4l-1.38,1.44c-.29.29-.55.58-.89.8-.11.08-.2.2-.29.32l-.95,1.12c-.2.2-.4.4-.58.63-.52.66-1.07,1.32-1.61,1.96-.38.43-.83.75-1.24,1.12-.08.06-.26.06-.35,0l-.17-.08c-.66-.49-1.21-1.09-1.9-1.56l-.17-.2-1.73-1.64-.26-.23-.78-.69c-.58-.52-1.1-1.12-1.73-1.59-.58-.4-1.09-.86-1.61-1.32-.46-.38-.8-.83-1.12-1.32-.29-.4-.35-.43-.75-.17l-.2.17c-.23.17-.35.4-.38.66,0,.14.03.29.03.43.03.43.06.86.06,1.29,0,.55-.03,1.1,0,1.64.03.55-.03,1.1.08,1.64.03.11.03.23.03.35v2.94c0,.81-.06,1.61.14,2.42.03.14.03.29.03.43v2.42c0,.58,0,1.15.03,1.73.03.4.08.81.17,1.21.06.29.23.52.49.69.26.17.46.14.72-.06.26-.2.38-.46.38-.77,0-.26-.08-.52-.08-.78s.08-.52,0-.77c-.03-.08-.03-.17-.03-.26-.06-.35-.08-.69-.06-1.04.06-.43.06-.86-.03-1.29-.03-.2-.03-.4-.03-.6-.03-1.18.03-2.36-.14-3.54v-2.5l-.2.06c0-.72-.03-1.44-.03-2.16v-.43c0-.2.17-.29.38-.23.17.06.32.14.4.29.23.35.55.58.89.78l.43.26c.14.08.29.17.4.29l2.53,2.5c.23.23.46.46.75.63.23.14.4.35.6.52.35.32.63.69,1.07.89.08.03.14.08.2.14.32.46.86.69,1.21,1.15.03.06.08.08.14.11.11.06.32.06.4-.03.09-.09.17-.14.23-.23.17-.26.35-.46.6-.63l.32-.29c.66-.52,1.07-1.29,1.73-1.84.03-.03.06-.06.06-.08.2-.43.58-.72.83-1.1.17-.23.38-.46.58-.66.23-.26.46-.52.66-.81.11-.17.23-.35.38-.46.46-.38.89-.8,1.32-1.24.03-.03.11-.03.17-.03.03,0,.06.03.06.06.06.43.06.86-.03,1.29-.11.46-.11.92-.03,1.38.03.2.03.4,0,.6-.11.63-.11,1.27,0,1.9.06.26.06.52,0,.77-.06.38-.03.75.03,1.12.03.29.06.58.06.86-.03.86.11,1.73.06,2.59,0,.17.06.35.06.52,0,.11.03.23,0,.35-.14.58-.03,1.15-.03,1.73,0,.14.06.29.08.43.06.4.32.69.66.89.17.08.35.06.52-.03.35-.2.52-.52.49-.89-.03-.29,0-.58,0-.86,0-.35.03-.69-.03-1.04-.09-.52-.11-1.04-.11-1.55v-2.5c0-.52.03-1.04-.08-1.55-.06-.2-.03-.4-.03-.6v-4.23c.03-.38.08-.75.06-1.12-.03-.38.06-.75.06-1.12,0-.52-.03-1.04.29-1.49.06-.06.06-.14.08-.23.11-.29.08-.58-.03-.86-.06-.14-.26-.23-.43-.17h-.02Z"/>
  <path class="cls-5" d="M86.75,237.38c-.18,0-.32-.05-.43-.1-.54-.32-.85-.74-.93-1.26,0-.01-.01-.05-.02-.09-.03-.11-.07-.25-.07-.42s0-.34-.02-.5c-.02-.43-.05-.87.06-1.35,0-.01,0-.04,0-.07,0-.06,0-.1,0-.16,0-.06,0-.12-.02-.18-.02-.11-.03-.23-.03-.34.03-.47,0-.9-.02-1.37-.02-.4-.05-.82-.03-1.24,0-.25-.03-.53-.05-.8-.07-.48-.08-.87-.02-1.25.05-.22.05-.4,0-.6-.13-.71-.13-1.41,0-2.09.02-.14.02-.29,0-.44-.1-.53-.09-1.07.04-1.57.02-.09.03-.18.04-.28-.25.24-.51.48-.78.7-.09.07-.18.21-.28.35-.23.32-.47.6-.71.86-.21.21-.39.42-.55.63-.11.15-.24.3-.37.44-.16.18-.31.34-.4.52-.04.13-.13.22-.17.26-.32.27-.56.56-.81.87-.29.35-.58.71-.96,1.01l-.35.31c-.18.12-.31.26-.47.49-.07.11-.16.18-.23.25-.02.02-.04.04-.07.06-.26.26-.7.26-.97.12-.08-.04-.23-.12-.34-.28-.13-.16-.31-.3-.49-.45-.23-.18-.48-.38-.69-.66,0,0,0-.01-.01-.01-.41-.19-.7-.48-.95-.73-.08-.08-.17-.17-.25-.25-.06-.05-.13-.12-.2-.19-.11-.11-.22-.21-.33-.28-.33-.2-.59-.45-.83-.7l-2.53-2.5c-.07-.07-.19-.14-.31-.21l-.43-.26c-.28-.16-.64-.4-.92-.76,0,.33,0,.67.01,1,0,.14,0,.29,0,.43l.21-.06v3.12c.12.88.13,1.76.13,2.61,0,.32,0,.64,0,.95,0,.2,0,.38.02.55.09.43.1.91.03,1.43-.02.25,0,.54.05.89v.08s0,.09,0,.1c.09.28.06.53.04.73,0,.07-.01.14-.01.2,0,.1.02.21.03.31.02.14.05.3.05.47,0,.47-.2.88-.56,1.17-.43.34-.87.37-1.3.08-.38-.25-.62-.6-.7-1-.09-.41-.15-.84-.18-1.27-.03-.6-.03-1.19-.03-1.76v-2.42c0-.13,0-.24-.02-.34-.17-.7-.17-1.4-.16-2.08v-3.37c0-.09,0-.17-.01-.23-.09-.43-.09-.83-.09-1.21,0-.17,0-.35,0-.52-.02-.38-.01-.76,0-1.13,0-.18,0-.36,0-.54,0-.43-.03-.85-.05-1.26,0-.09,0-.14-.01-.2,0-.09-.01-.18-.01-.27v-.05c.05-.41.25-.76.57-1l.23-.19c.69-.44,1.03-.24,1.42.3.27.41.59.87,1.03,1.23.54.48,1.03.92,1.58,1.3.44.32.82.7,1.19,1.06.19.19.39.38.59.56l1.03.92,1.91,1.84c.38.27.73.57,1.06.86.26.23.51.45.77.65l.05.03c.11-.1.23-.19.34-.29.27-.22.51-.43.73-.68.56-.64,1.09-1.3,1.59-1.94.19-.25.4-.47.62-.68l.92-1.09c.08-.11.2-.27.37-.4.27-.18.47-.39.69-.61l.15-.15,1.37-1.43c.11-.11.18-.19.23-.28.25-.53.71-.93,1.4-1.21h.03c.42-.15.89.06,1.05.45.17.43.18.84.03,1.23-.01.08-.05.22-.15.35-.19.29-.19.66-.19,1.07v.12c0,.18-.01.35-.03.53-.02.2-.04.38-.02.55.02.33,0,.63-.03.93,0,.09-.02.18-.02.27v4.36c0,.12,0,.22.01.3.11.52.11.99.11,1.44v2.76c0,.56.03,1.03.11,1.47.05.31.04.59.04.87v.25c0,.1,0,.2,0,.31,0,.18,0,.35,0,.51.04.58-.22,1.07-.73,1.37-.21.11-.4.14-.56.14v.02ZM86.17,222.34c.06.51.05.98-.03,1.44-.1.4-.1.78-.03,1.2.04.27.04.52,0,.76-.11.59-.11,1.17,0,1.74.07.31.07.64,0,.97-.03.24-.02.54.03.94.03.31.06.62.06.94-.01.39,0,.76.03,1.16.03.47.06.96.02,1.46,0,.02.01.08.02.14.02.11.03.23.03.34v.07c0,.1.02.24-.02.39-.08.32-.06.68-.03,1.05,0,.19.02.38.02.56,0,.03.02.1.03.16.01.06.03.12.04.18.01.1.05.34.41.55,0,0,.01-.01.06-.04.21-.12.23-.3.22-.41-.02-.21-.01-.42,0-.63,0-.09,0-.18,0-.27v-.27c0-.24,0-.47-.02-.69-.08-.49-.12-1.03-.12-1.63v-2.76c0-.42,0-.81-.07-1.18-.06-.2-.05-.41-.04-.58v-4.36c0-.13.02-.23.03-.33.02-.27.05-.52.03-.76-.02-.26,0-.49.02-.73.01-.14.03-.29.03-.43v-.12c0-.51,0-1.1.37-1.65,0-.05.02-.08.03-.12.03-.09.06-.2.03-.35-.37.18-.6.39-.73.66-.13.26-.29.42-.41.54l-1.52,1.58c-.25.25-.5.51-.83.73-.03.03-.1.11-.16.2l-.97,1.15c-.22.23-.4.41-.56.61-.52.66-1.07,1.33-1.63,1.99-.27.31-.56.55-.84.79-.15.12-.29.24-.43.38l-.06.05c-.24.16-.61.17-.86.02l-.23-.12c-.31-.23-.6-.48-.87-.73-.34-.3-.65-.58-1.01-.82l-.1-.09-.16-.18-1.95-1.84-.78-.69c-.21-.19-.42-.4-.62-.6-.36-.35-.69-.68-1.07-.96-.59-.41-1.13-.89-1.64-1.35-.54-.43-.92-.97-1.21-1.43,0,0-.02-.02-.03-.04l-.17.15c-.12.09-.18.19-.2.32,0,.04,0,.09,0,.14,0,.09.01.18.01.27.03.4.06.84.06,1.29,0,.19,0,.37,0,.55,0,.36-.01.71,0,1.06,0,.19,0,.38,0,.57,0,.35,0,.68.06.99.04.15.04.32.04.44v3.38c0,.65-.01,1.25.13,1.85.04.22.04.4.04.55v2.42c0,.56,0,1.14.03,1.7.02.37.08.75.16,1.13.03.15.12.28.28.38.02.02.04.02.05.03,0,0,.03-.02.09-.07.13-.1.18-.21.18-.38,0-.1-.02-.21-.03-.31-.02-.14-.05-.3-.05-.47,0-.1,0-.21.02-.31.01-.13.02-.24,0-.31-.05-.14-.05-.27-.05-.38-.06-.42-.08-.78-.05-1.12.06-.43.05-.8-.02-1.16-.04-.26-.04-.48-.04-.7,0-.31,0-.64,0-.96,0-.86,0-1.68-.13-2.51v-1.92s-.21.06-.21.06v-.66c0-.35,0-.71-.01-1.07,0-.37-.01-.73-.01-1.09v-.43c0-.24.1-.45.29-.59.19-.15.45-.19.72-.11.33.11.55.28.69.51.14.21.36.4.72.6l.43.26c.16.1.34.21.5.36l2.53,2.5c.22.22.42.42.66.56.2.13.36.28.49.41.06.05.11.11.18.16.11.1.2.19.3.29.22.22.41.41.64.52.18.07.29.18.36.25l.05.07c.12.17.31.33.51.48.2.16.42.34.62.57.01-.01.03-.02.04-.04.15-.23.37-.51.71-.74l.29-.26c.33-.26.57-.56.83-.88.26-.32.52-.64.85-.93.15-.31.37-.55.56-.77.1-.12.21-.24.3-.37.19-.26.41-.51.63-.73.2-.22.42-.47.61-.74.12-.18.27-.4.47-.56.43-.35.84-.76,1.27-1.18.19-.19.41-.19.53-.19.29,0,.52.22.55.5h.01Z"/>
  <path class="cls-5" d="M103.87,218.51c-.23-.29-.52-.49-.89-.52-.46-.06-.92-.11-1.38-.11-.44,0-.86.11-1.29.08-.46-.03-.92-.17-1.38-.17h-.35c-.38,0-.75.06-1.12,0-.52-.06-1.04,0-1.56.03-.6.03-1.21.06-1.81.06-.29,0-.58.03-.86.11-.08.03-.17.06-.23.11-.26.35-.55.66-.6,1.12-.08.63-.2,1.27-.2,1.9,0,.52-.03,1.04-.08,1.55-.03.32-.06.63-.06.95-.03.83-.03,1.67-.11,2.5-.08.75-.08,1.5-.06,2.25,0,.49,0,.98-.08,1.47-.06.23-.03.46-.03.69-.03.6-.03,1.21-.08,1.81-.06.46-.08.92,0,1.38.03.23.03.46-.03.69-.14.55-.08,1.1.08,1.64.08.26.14.52.2.77.06.23.11.46.2.69.03.11.08.23.17.29.38.2.72.49,1.21.35.11-.03.23.03.35.03.26.03.52.06.78.06h4.92c.11,0,.23,0,.35-.03.58-.11,1.15-.08,1.73-.06.4.03.81.03,1.21.03.29,0,.49-.14.6-.4.06-.11.08-.23.08-.35,0-.2-.03-.4-.03-.6-.03-.23-.14-.4-.32-.55-.26-.2-.55-.32-.89-.32h-.77l-2.42.09c-.63,0-1.27-.06-1.9.11-.08.03-.17.03-.26.03l-3.28.08h-.08c-.14,0-.32-.14-.32-.26l-.08-2.19c.03-.86.03-1.64.11-2.42l.06-.11c.06-.49.11-.98.11-1.47,0-.95.08-.75.78-.95.23-.06.46-.03.69.03.46.11.92.08,1.38,0,.69-.11,1.38-.17,2.07,0,.11.03.23.06.35.03.32-.08.63-.03.95-.03.14,0,.29,0,.43-.03.23-.03.43-.23.46-.46.03-.26.03-.52.03-.78,0-.29-.17-.49-.4-.63-.23-.14-.49-.23-.75-.26h-2.5c-.32,0-.66-.03-.98.06-.69.17-1.38.08-2.07.2-.11.03-.23-.08-.23-.2,0-.06-.03-.11-.03-.17.03-.95,0-1.9.08-2.85.06-.69.06-1.38.08-2.07v-.95c.03-.6.06-.66.6-.8.23-.06.46-.08.69-.11l.78-.08c.29-.03.58.06.86-.06.08-.03.17-.03.26,0,.58.14,1.15.08,1.73.08s1.09,0,1.64.11c.35.06.69.06,1.04.06.72.03,1.44-.03,2.16.17.17.06.4-.11.46-.29.11-.38.08-.75,0-1.12-.03-.08-.08-.17-.14-.23h.02Z"/>
  <path class="cls-5" d="M99.55,238.74h-4.92c-.28,0-.55-.03-.82-.06-.04,0-.12-.01-.19-.03,0,0-.02,0-.02,0-.57.15-1.03-.11-1.36-.3-.05-.03-.11-.06-.17-.1-.21-.14-.35-.34-.41-.57-.09-.25-.15-.48-.21-.72-.06-.28-.11-.51-.19-.75-.22-.7-.25-1.33-.09-1.92.03-.14.04-.31.01-.5-.1-.52-.05-1.06,0-1.51.03-.38.05-.76.06-1.17,0-.2.01-.4.02-.61v-.13c0-.19-.01-.42.04-.65.07-.41.07-.87.07-1.35-.03-.91-.01-1.63.06-2.3.06-.6.08-1.23.09-1.84,0-.21,0-.41.02-.63,0-.32.03-.66.06-.98.05-.51.08-1.01.08-1.51,0-.54.08-1.08.15-1.59l.05-.38c.06-.53.35-.9.6-1.23l.14-.18c.14-.14.31-.2.42-.24.33-.1.65-.14,1.02-.14.58,0,1.18-.03,1.76-.05l.33-.02c.43-.03.87-.06,1.33,0,.22.03.44.02.67,0,.13,0,.27-.01.4-.01h.35c.3,0,.58.05.85.09.2.03.38.06.56.08.2,0,.41,0,.63-.04.65-.07,1.39-.01,2.06.07.46.04.87.27,1.21.68.11.11.19.26.24.4.13.57.13,1.01,0,1.43-.14.42-.63.76-1.09.61-.45-.13-.95-.13-1.47-.14-.18,0-.37,0-.55,0-.34,0-.71,0-1.1-.06-.64-.13-1.27-.12-1.94-.1-.47,0-.96.02-1.48-.11h0c-.25.09-.5.08-.71.07-.08,0-.16,0-.24,0l-.77.08c-.2.03-.42.05-.63.1-.09.02-.16.04-.21.06,0,.08-.02.22-.02.29v.93c0,.25-.01.47-.02.7-.01.46-.02.94-.06,1.42-.05.62-.06,1.25-.07,1.86,0,.27,0,.53,0,.79.23-.02.44-.03.65-.04.38-.01.73-.03,1.07-.11.31-.08.64-.08.92-.07h2.74c.34.04.67.15.96.33.52.33.64.75.64,1.05,0,.27,0,.54-.03.83-.06.46-.44.84-.89.9-.25.05-.53.04-.79.02-.2,0-.38-.02-.52.02-.25.06-.45.01-.6-.02-.64-.16-1.31-.08-1.87,0-.6.11-1.11.11-1.58,0-.2-.05-.34-.06-.45-.03-.12.04-.24.06-.35.08-.02,0-.03,0-.05.01,0,.08,0,.21,0,.38,0,.52-.06,1.03-.12,1.52v.08s-.06.11-.06.11c-.05.54-.07,1.1-.08,1.69l-.02.6.08,1.94,3.19-.08h.12c.6-.16,1.15-.15,1.68-.14h.37l2.4-.08h.79c.43,0,.83.14,1.19.42.3.25.46.54.5.88v.06c0,.09.01.18.01.27.01.11.01.23.01.33,0,.19-.04.38-.14.57-.19.42-.57.68-1.05.68-.4,0-.82,0-1.24-.03-.55-.03-1.08-.06-1.59.05-.15.04-.31.04-.44.04h0ZM93.58,237.66c.1,0,.17.01.23.02.01,0,.03,0,.05.01h.06c.25.03.48.06.71.06h4.92c.09,0,.17,0,.23-.01.66-.13,1.27-.1,1.87-.07.39.03.78.03,1.18.03.07,0,.11-.01.15-.11.03-.06.04-.11.04-.14,0-.09,0-.18-.01-.27,0-.1-.01-.2-.01-.3-.01-.06-.04-.13-.14-.21-.18-.14-.35-.2-.58-.2h-.78l-2.4.08h-.41c-.48,0-.94-.01-1.38.1-.13.04-.28.04-.39.04l-3.37.08c-.38,0-.81-.33-.81-.75l-.08-2.17v-.63c.03-.64.05-1.25.11-1.86v-.09s.07-.12.07-.12c.05-.44.1-.89.1-1.32,0-.82.08-1.18.83-1.35.08-.02.18-.04.3-.07.39-.09.73-.03.95.02.33.08.71.08,1.17,0,.68-.11,1.46-.2,2.28,0,.04.01.1.03.12.03.27-.08.56-.07.8-.05.21,0,.42.02.58,0l.07-.04c.02-.22.02-.46.02-.71,0-.03,0-.11-.17-.21-.15-.1-.33-.16-.52-.18h-2.67c-.24,0-.46,0-.65.04-.45.11-.87.13-1.27.14-.3,0-.57.02-.84.07-.16.04-.37,0-.53-.13-.16-.13-.26-.32-.27-.52-.01-.06-.03-.12-.03-.21,0-.33.01-.64.01-.96,0-.63.01-1.28.07-1.93.04-.44.05-.91.06-1.36,0-.23.01-.46.02-.69v-.93c.04-.8.18-1.07.97-1.28.27-.07.53-.1.76-.13l.78-.09c.13-.01.26,0,.39,0,.14,0,.26.01.35-.02.21-.07.41-.07.6-.01.35.08.75.07,1.17.06.7-.01,1.4-.03,2.14.12.29.04.6.04.93.04.19,0,.37,0,.54,0,.52,0,1.07.01,1.62.15.06-.2.05-.46-.03-.79l-.05-.03c-.22-.28-.42-.33-.54-.34-.68-.08-1.2-.15-1.86-.07-.26.03-.52.06-.81.04-.23-.01-.45-.05-.67-.09-.24-.04-.47-.08-.68-.08h-.35c-.12,0-.23,0-.35.01-.27.01-.55.03-.85-.02-.35-.04-.74-.01-1.14.01l-.32.02c-.62.03-1.23.06-1.84.06-.28,0-.51.03-.72.09,0,0-.02,0-.03,0l-.05.07c-.21.27-.37.48-.4.75l-.05.39c-.07.5-.14.98-.14,1.45,0,.53-.03,1.07-.09,1.61-.03.31-.05.6-.05.89,0,.22-.01.43-.02.63-.01.63-.03,1.27-.1,1.92-.07.63-.09,1.29-.05,2.18,0,.52,0,1.04-.09,1.57-.03.14-.03.27-.02.42v.19c0,.22-.01.41-.02.61-.01.4-.02.82-.06,1.25-.05.38-.08.82,0,1.24.04.35.03.63-.03.9-.11.41-.08.86.08,1.37.09.27.15.54.21.81.05.22.11.43.18.63l.02.06h0s.08.06.12.09c.32.18.45.25.64.19.08-.02.15-.03.21-.03h0ZM93.74,235.98v.03-.03ZM93.81,226.54s-.03,0-.05,0c.02,0,.03,0,.05,0ZM103.66,219.67h.01-.01Z"/>
  <path class="cls-5" d="M124.82,225.47c-.08-.35-.2-.66-.23-1.01,0-.11-.03-.23-.08-.35-.17-.35-.26-.72-.35-1.1-.06-.2-.14-.38-.23-.55-.08-.14-.2-.29-.26-.44-.4-.92-1.1-1.64-1.73-2.39-.08-.11-.2-.2-.32-.29-.35-.26-.69-.55-1.07-.75-.4-.23-.86-.38-1.29-.55l-.52-.2c-1.01-.43-2.04-.66-3.14-.72-.38-.03-.75,0-1.1.14-.17.08-.38.14-.58.2-.63.14-1.24.32-1.87.4-.78.11-1.47.46-2.16.83-.83.43-1.64.89-2.28,1.61l-.55.58c-.72.75-1.27,1.58-1.7,2.5-.35.77-.55,1.58-.72,2.42-.08.38-.06.75-.11,1.12-.06.43-.06.86.06,1.29.06.2.06.4.08.6l.08.69c.11.69.26,1.38.55,2.01.17.89.69,1.64,1.12,2.42.03.08.08.17.14.23.29.26.55.52.86.75.4.29.81.55,1.1.95.11.17.29.32.46.38.38.14.72.35,1.01.63.06.06.14.08.23.11.63.29,1.21.69,1.93.75.11,0,.23.06.35.08.58.14,1.15.23,1.73.2.2,0,.4.03.6.03.38,0,.75.03,1.12-.03.66-.11,1.29-.29,1.93-.46.06,0,.11-.03.17-.06.66-.23,1.21-.66,1.81-1.01.2-.11.35-.32.52-.46l.86-.77c.46-.43.95-.83,1.27-1.41.03-.06.08-.08.11-.11.26-.29.43-.6.6-.95.17-.35.34-.69.6-.98.08-.08.14-.23.2-.38.11-.32.2-.66.29-1.01.29-.98.52-1.96.4-2.99v-.08l.17-.11c0-.35.03-.69,0-1.04-.03-.26-.06-.52-.11-.77h0ZM122.71,230.68l.03-.03c-.43.95-1.01,1.84-1.76,2.59-.08.08-.2.14-.26.23-.29.43-.72.69-1.12.98-.38.26-.78.43-1.21.55-.66.17-1.32.4-1.98.6-.29.08-.58.17-.86.23-.92.23-1.84.17-2.76-.08-.14-.03-.29-.08-.44-.08-.46-.06-.89-.26-1.32-.4-.89-.32-1.64-.86-2.33-1.47-.23-.2-.43-.43-.66-.6-.26-.17-.46-.41-.63-.66-.43-.63-.78-1.29-.98-2.04l-.17-.52c-.49-1.67-.49-3.34.06-4.98.26-.78.6-1.53,1.15-2.16l.32-.43c.26-.35.55-.66.95-.86.08-.06.2-.11.29-.2.26-.29.6-.43.92-.6.38-.2.75-.32,1.18-.26.26.03.52-.03.75-.14.14-.08.29-.17.46-.23.14-.06.29-.11.43-.14.66-.11,1.32-.29,1.98-.2.26.03.52.03.78-.08.46-.2.92-.11,1.38,0,.23.06.46.11.66.23.58.29,1.18.49,1.78.72.52.2.95.52,1.38.89.6.52,1.1,1.12,1.53,1.78.06.08.11.17.14.29.2.58.46,1.12.58,1.73.06.23.11.46.2.66.14.32.2.66.2,1.01v.72c.08.98-.23,2.01-.66,2.99h0Z"/>
  <path class="cls-5" d="M115.42,238.6h-.29c-.2,0-.4,0-.61-.02-.09,0-.18-.01-.27-.01-.54.03-1.15-.04-1.85-.22-.05-.01-.1-.03-.15-.04-.03-.01-.06-.02-.09-.03-.66-.05-1.17-.31-1.66-.57-.14-.07-.29-.15-.43-.22-.11-.04-.27-.09-.39-.22-.22-.22-.49-.39-.84-.52-.25-.08-.51-.29-.7-.56-.2-.28-.49-.48-.83-.72l-.14-.1c-.27-.19-.49-.4-.7-.6l-.2-.19c-.12-.12-.21-.25-.26-.39-.08-.14-.16-.28-.24-.41-.37-.63-.75-1.29-.91-2.06-.3-.68-.45-1.4-.56-2.08l-.09-.71c0-.06-.01-.14-.03-.21,0-.12-.02-.23-.05-.32-.12-.46-.15-.95-.07-1.49.02-.15.03-.3.04-.45.01-.23.03-.47.08-.73.16-.79.37-1.65.75-2.51.48-1.03,1.07-1.89,1.79-2.65l.54-.57c.69-.79,1.57-1.28,2.4-1.71.69-.38,1.45-.76,2.31-.88.44-.06.86-.16,1.31-.27.17-.04.35-.08.52-.12.15-.04.33-.09.46-.16.42-.17.85-.23,1.35-.19,1.17.06,2.25.31,3.29.76l.5.2c.12.04.23.09.35.13.33.13.69.26,1.02.44.32.17.62.4.9.62l.21.16c.13.09.29.21.42.38l.27.31c.56.65,1.15,1.33,1.52,2.18.02.06.07.14.12.21.03.05.07.11.1.16.11.21.21.42.28.66.09.38.17.72.31,1.01.09.18.14.38.14.57.01.16.07.37.13.59.03.1.05.2.08.3h0c.06.3.1.58.13.84.02.27.02.52.01.76,0,.11,0,.22,0,.33v.27l-.16.1c.07,1.09-.18,2.1-.44,2.97-.08.34-.17.7-.3,1.04-.08.2-.16.4-.31.55-.2.22-.35.53-.51.85-.17.35-.37.72-.68,1.06l-.08.07c-.32.55-.74.93-1.14,1.3l-1.07.96c-.06.05-.11.1-.16.16-.12.12-.25.26-.44.36-.18.1-.36.21-.53.33-.41.26-.84.53-1.34.71-.07.03-.16.07-.28.09-.62.17-1.25.34-1.93.46-.23.04-.44.04-.65.04h.02ZM114.24,237.58c.13,0,.24,0,.35.02.19.01.37.01.56.01.27,0,.52,0,.75-.03.64-.11,1.26-.28,1.87-.45l.14-.05c.4-.14.77-.38,1.16-.62.19-.12.38-.24.57-.35.06-.04.14-.12.22-.2.07-.07.14-.15.22-.21l1.04-.94c.38-.35.74-.68.97-1.1.06-.12.16-.2.22-.24.17-.19.32-.45.49-.81.18-.37.38-.75.68-1.09.03-.04.08-.15.11-.22.1-.28.18-.6.27-.94.2-.7.35-1.31.4-1.9l-1.08,2.38c-.48,1.07-1.11,1.99-1.86,2.74-.05.05-.11.1-.17.14-.02.01-.04.03-.06.04-.27.42-.68.7-1.04.95l-.18.13c-.41.29-.86.48-1.37.62-.43.11-.87.25-1.3.39-.22.07-.45.14-.67.21-.3.09-.6.18-.91.24-.94.24-1.93.21-2.99-.09-.02,0-.08-.02-.14-.03-.06-.01-.13-.03-.16-.03h-.06c-.39-.05-.74-.18-1.08-.31-.11-.04-.23-.08-.34-.12-1.06-.38-1.9-1.04-2.5-1.57-.1-.08-.19-.18-.29-.27-.12-.12-.24-.23-.35-.31-.27-.18-.52-.43-.75-.79-.51-.75-.84-1.45-1.05-2.19l-.16-.49c-.53-1.81-.51-3.59.06-5.29.33-.98.72-1.72,1.24-2.33l.29-.4c.26-.35.6-.75,1.11-1l.06-.04s.1-.06.12-.08c.25-.28.58-.45.86-.6l.17-.09c.52-.28.99-.38,1.48-.32.14.01.31-.01.46-.09.13-.08.3-.18.52-.26.13-.05.31-.12.49-.16.13-.02.25-.04.37-.07.57-.11,1.16-.22,1.78-.14.23.02.38,0,.51-.05.61-.27,1.2-.15,1.7-.03.25.06.52.13.79.28.39.2.83.36,1.3.53l.42.16c.64.25,1.13.64,1.53.98.59.5,1.12,1.12,1.61,1.89.06.1.16.24.21.43.04.12.11.28.17.44.16.41.32.85.41,1.31.04.18.1.39.17.56.16.35.24.76.24,1.2v.72c.04.38.01.77-.06,1.2l.47-.47c.02-.3.02-.58-.01-.88v-.41l.18-.12v-.09c0-.22,0-.44,0-.64-.02-.24-.05-.47-.1-.71-.03-.09-.05-.18-.07-.27-.07-.26-.14-.52-.17-.81,0-.08-.02-.12-.04-.17-.2-.39-.29-.8-.39-1.21-.04-.13-.11-.28-.19-.43,0-.01-.03-.05-.06-.09-.07-.11-.16-.24-.21-.38-.31-.7-.81-1.29-1.35-1.91l-.29-.34c-.06-.08-.15-.14-.24-.21l-.22-.17c-.27-.21-.52-.4-.78-.54-.27-.15-.57-.27-.88-.38-.12-.04-.24-.09-.36-.14l-.51-.2c-.95-.41-1.92-.63-2.98-.69-.36-.03-.64,0-.88.11-.18.09-.42.16-.63.22-.2.04-.36.09-.53.13-.45.11-.92.22-1.4.29-.7.1-1.34.43-1.99.78-.76.4-1.55.83-2.14,1.51l-.56.59c-.65.68-1.18,1.46-1.61,2.38-.34.76-.53,1.56-.68,2.31-.05.18-.06.37-.06.57-.01.18-.02.35-.05.53-.05.42-.04.76.05,1.09.05.17.06.34.08.48,0,.06.01.12.02.18l.09.7c.1.61.24,1.28.51,1.87l.03.11c.12.64.45,1.21.81,1.81.09.15.18.31.26.46l.03.08.22.22c.2.19.39.37.61.52l.13.09c.38.27.77.54,1.07.97.07.11.16.17.21.19.47.18.86.43,1.18.73.02,0,.04.01.06.02l.05.02c.17.08.33.16.5.25.42.22.82.42,1.26.46.11-.01.25.04.35.07.02.01.06.02.08.03.6.15,1.11.21,1.58.19h.01ZM112.39,235.17c.14,0,.27.04.38.07.04,0,.07.02.11.03.94.26,1.76.29,2.55.09.29-.06.56-.14.84-.23.22-.06.44-.14.66-.21.44-.14.89-.29,1.35-.4.4-.1.75-.26,1.05-.47l.18-.13c.32-.22.62-.43.81-.71.08-.12.18-.2.26-.25.02-.01.04-.04.06-.05.58-.58,1.07-1.27,1.48-2.08l.14-.33c.48-1.1.69-2,.62-2.75v-.76c0-.3-.05-.57-.16-.81-.11-.25-.17-.51-.23-.74-.08-.41-.22-.78-.37-1.17-.06-.17-.13-.34-.19-.51-.02-.07-.05-.11-.09-.18-.45-.69-.92-1.24-1.44-1.68-.33-.29-.75-.62-1.24-.81l-.41-.15c-.47-.17-.95-.35-1.42-.59-.17-.09-.36-.14-.56-.19-.46-.12-.77-.15-1.07-.02-.38.17-.75.16-1.03.12-.47-.07-.96.03-1.48.13-.12.02-.25.04-.36.07-.08.02-.2.06-.33.11-.15.05-.26.12-.39.2-.37.18-.72.25-1.06.21-.29-.04-.55.02-.89.2l-.19.1c-.23.12-.45.23-.6.4-.12.12-.24.19-.32.25l-.11.07c-.34.17-.58.46-.77.72l-.32.43c-.46.53-.79,1.17-1.08,2.02-.5,1.51-.52,3.09-.05,4.68l.17.5c.18.66.47,1.26.92,1.92.16.24.32.41.5.53.19.14.33.28.47.41.08.08.16.16.25.23.54.47,1.27,1.06,2.17,1.37.11.04.24.08.36.13.29.11.57.21.83.25ZM122.99,234.12s-.01.01-.01.02c0,0,.01-.01.01-.02Z"/>
  <path class="cls-5" d="M152.62,217.73c-.09-.06-.26-.03-.32.06-.06.08-.14.17-.2.29-.35.69-.72,1.38-1.07,2.1l-.83,1.84c-.14.32-.35.6-.46.92-.26.69-.58,1.35-.86,2.01-.43,1.01-.86,2.01-1.27,3.05l-.52,1.38c-.58,1.67-1.18,3.34-1.9,4.95-.11.26-.26.52-.4.78,0,.03-.11.03-.14,0-.26-.26-.43-.55-.58-.86-.4-.89-.69-1.84-1.12-2.74-.06-.11-.06-.23-.08-.35-.06-.17-.11-.35-.2-.49-.26-.55-.46-1.12-.66-1.7-.08-.26-.14-.52-.26-.75-.23-.52-.4-1.07-.55-1.64-.11-.49-.29-.95-.52-1.38-.06-.11-.14-.26-.26-.35-.2-.14-.43-.26-.66-.38-.11-.06-.31.03-.38.14-.2.35-.4.72-.58,1.1-.35.69-.69,1.41-1.07,2.1-.32.58-.63,1.15-.89,1.76-.32.77-.69,1.52-.98,2.33l-.08.17c-.35.63-.6,1.32-.86,2.01l-.38.77c-.03.08-.17.11-.2.06-.26-.4-.52-.8-.63-1.29-.11-.49-.29-.98-.49-1.41-.26-.52-.49-1.04-.69-1.59-.43-1.12-.89-2.25-1.35-3.37-.17-.43-.35-.86-.49-1.32-.17-.55-.38-1.1-.58-1.64-.08-.23-.17-.46-.29-.66-.35-.6-.6-1.26-.89-1.9-.2-.43-.4-.86-.63-1.27-.29-.55-.6-1.07-.89-1.58-.14-.26-.35-.46-.63-.58l-.52-.17c-.06-.03-.11-.03-.17-.03-.08,0-.23.14-.26.23l.2-.06c-.08.29-.11.58-.06.86.09.38.2.75.38,1.09l.66,1.21c.23.4.43.83.58,1.27.11.32.26.63.46.92.11.2.17.43.26.63.32.77.49,1.61.75,2.42.26.84.6,1.64.92,2.45.32.8.69,1.61,1.01,2.42.08.23.2.49.35.69.17.26.29.55.38.86.2.78.52,1.53.92,2.25.06.11.11.26.14.4.17.89.66,1.58,1.29,2.22.06.06.14.08.23.14.2.11.46.08.63-.08.2-.2.38-.43.46-.72.06-.2.14-.38.26-.55.23-.38.38-.77.52-1.18.17-.49.35-.98.58-1.44.14-.26.26-.52.35-.8.23-.69.49-1.35.78-2.01l.72-1.7c.23-.55.55-1.04.75-1.58.03-.08.08-.14.14-.2.06-.08.23-.08.29.03l.26.63c.35.95.52,1.96,1.01,2.88.03.06.06.11.06.17.11.66.43,1.27.69,1.87.09.2.2.4.26.63.14.46.38.89.58,1.35.23.52.58.95.83,1.44.17.35.49.58.83.75.14.06.29.09.43.06.4-.11.75-.35,1.12-.52.23-.11.38-.29.4-.55.03-.2.06-.4.14-.6.26-.66.63-1.29.81-2.01,0-.06.03-.11.06-.17.4-.8.75-1.64,1.07-2.47.23-.66.43-1.32.72-1.95.23-.49.43-1.01.58-1.56.11-.43.26-.86.46-1.24.23-.4.38-.83.52-1.27.06-.2.11-.38.23-.55.12-.17.2-.35.29-.55.32-.78.6-1.56.95-2.33.43-.98.75-1.98,1.07-3.02.03-.11.06-.23.06-.35s0-.23-.06-.32c-.11-.2-.29-.38-.49-.49h0Z"/>
  <path class="cls-5" d="M134.54,238.7c-.17,0-.35-.04-.5-.13-.05-.03-.07-.04-.09-.05-.07-.03-.16-.08-.25-.17-.51-.51-1.2-1.31-1.43-2.47-.01-.08-.05-.18-.1-.28-.43-.76-.75-1.56-.96-2.34-.08-.29-.18-.52-.31-.72-.14-.19-.27-.46-.4-.79-.15-.39-.32-.79-.49-1.19-.17-.4-.35-.82-.51-1.22l-.22-.54c-.25-.63-.51-1.27-.72-1.94-.1-.3-.18-.61-.27-.92-.14-.51-.28-1-.46-1.46-.03-.07-.07-.16-.09-.25-.04-.12-.08-.24-.13-.33-.18-.25-.35-.58-.49-1-.13-.4-.31-.79-.54-1.19l-.67-1.21c-.18-.36-.31-.74-.42-1.22-.02-.1-.04-.2-.04-.3l-.39.11.3-.89c.08-.24.38-.57.72-.57.07,0,.18,0,.32.05l.36-.1-.06.2.23.08c.4.16.7.43.91.81.11.2.23.4.34.6.19.33.38.66.56.99.23.4.44.85.64,1.28.08.18.16.36.24.53.2.45.4.92.64,1.33.13.24.23.49.32.74.2.54.41,1.11.58,1.66.14.44.3.85.47,1.28.45,1.11.92,2.25,1.36,3.38.19.51.4,1.01.67,1.54.23.49.41,1.01.53,1.51.04.18.11.36.2.53l.08-.17c.24-.65.51-1.37.87-2.04l.06-.13c.18-.5.39-.98.6-1.44.13-.29.26-.59.38-.88.28-.64.6-1.23.92-1.81.28-.51.54-1.05.8-1.58l.25-.51c.16-.34.36-.72.59-1.12.17-.33.67-.51,1.02-.33.25.12.5.25.73.41.16.12.3.29.41.52.25.46.43.96.56,1.49.15.6.32,1.11.52,1.56.09.18.15.38.21.57.02.07.04.15.07.22.2.57.39,1.12.64,1.64.09.15.16.36.22.54.03.09.04.14.04.19,0,.04.01.08.02.09.25.51.45,1.04.64,1.54.16.42.31.82.49,1.21.04.1.09.19.14.27.03-.06.06-.12.08-.18.74-1.64,1.34-3.33,1.89-4.91l.52-1.39c.4-1.03.83-2.04,1.25-3.02l.02-.05c.08-.2.17-.39.26-.58.21-.46.42-.93.6-1.41.08-.22.19-.41.29-.6.06-.11.13-.23.18-.35l.83-1.84c.22-.45.44-.88.66-1.3.14-.27.28-.54.41-.82.06-.12.13-.21.19-.28.01-.02.03-.04.05-.06.1-.15.26-.25.45-.29.19-.04.38,0,.53.08.27.16.51.4.66.67.12.18.12.41.12.56,0,.17-.04.32-.07.46-.35,1.13-.66,2.12-1.1,3.11-.23.51-.43,1.03-.63,1.54-.1.26-.21.52-.31.78-.11.27-.21.45-.33.64-.07.11-.11.22-.17.41-.16.47-.31.93-.56,1.38-.15.28-.29.64-.41,1.12-.14.53-.34,1.07-.61,1.64-.21.46-.37.94-.54,1.45l-.16.46c-.38,1.01-.73,1.81-1.09,2.53,0,0,0,0,0,0v.06c-.14.51-.35.97-.55,1.42-.1.22-.2.44-.29.66-.07.16-.09.31-.11.49-.03.27-.17.67-.67.92-.13.06-.25.12-.36.18-.26.14-.53.28-.85.37-.26.05-.5.03-.75-.07-.55-.27-.89-.59-1.09-.99-.1-.18-.21-.37-.33-.55-.18-.28-.37-.57-.51-.91-.06-.13-.12-.27-.18-.4-.15-.32-.31-.66-.42-1.01-.04-.14-.09-.27-.16-.4-.03-.07-.06-.12-.08-.19-.05-.12-.1-.24-.16-.36-.23-.51-.46-1.03-.56-1.62h0c-.35-.68-.54-1.33-.72-1.97-.1-.33-.19-.64-.3-.95-.07.14-.14.29-.21.43-.11.22-.23.44-.33.67l-.72,1.7c-.3.69-.55,1.33-.76,1.98-.09.29-.21.59-.38.89-.2.41-.37.87-.54,1.35-.15.43-.31.86-.57,1.28-.1.16-.16.28-.21.43-.1.34-.29.64-.59.93-.2.2-.46.3-.73.3h0ZM126.44,218.74c0,.12,0,.23.01.33.09.38.2.7.33.97l.65,1.19c.26.45.46.9.61,1.35.12.32.24.58.4.8.12.2.18.37.23.52.03.07.05.14.07.2.21.52.36,1.06.5,1.57.08.3.16.59.26.89.2.63.45,1.26.69,1.87l.22.55c.16.39.32.79.5,1.19.17.41.35.81.51,1.22.1.26.19.45.29.59.2.3.34.62.45,1.02.18.71.48,1.42.87,2.13.07.14.16.34.2.55.13.69.49,1.29,1.16,1.96.06.03.11.05.15.08.19-.2.3-.36.35-.54.07-.24.17-.45.32-.68.19-.32.33-.68.46-1.07.18-.5.35-1.01.6-1.5.15-.26.24-.49.32-.73.23-.69.49-1.36.8-2.07l.72-1.69c.11-.26.23-.5.35-.74.14-.28.28-.55.38-.82.05-.17.16-.28.24-.36.13-.15.34-.24.55-.23.24.01.45.15.55.37l.28.67c.13.37.24.73.34,1.08.18.62.35,1.21.64,1.75.04.08.1.2.11.35.08.46.28.89.49,1.36.05.12.11.25.16.38.02.05.04.1.07.15.07.16.16.34.21.55.08.27.22.55.36.86.06.14.13.27.19.41.12.27.28.51.44.77.13.21.26.41.38.63.1.21.3.38.62.54.03,0,.08.02.11.01.18-.05.39-.17.62-.29.13-.07.26-.14.4-.2.11-.05.11-.1.12-.15.03-.24.07-.48.18-.75.09-.23.2-.46.31-.7.19-.41.37-.79.47-1.2.02-.14.07-.25.1-.32.35-.7.68-1.47,1.05-2.43l.15-.44c.17-.51.35-1.03.58-1.54.24-.52.42-1,.55-1.48.15-.56.31-.99.5-1.35.21-.37.35-.76.48-1.19.05-.2.13-.43.29-.67.09-.13.16-.27.25-.47.1-.25.2-.51.31-.76.2-.51.41-1.05.65-1.57.41-.94.72-1.9,1.05-2.97.01-.06.03-.15.03-.2v-.08c-.04-.06-.08-.11-.13-.16-.14.28-.28.55-.42.82-.22.42-.43.84-.64,1.27l-.83,1.83c-.06.14-.14.28-.22.42-.09.16-.17.32-.23.46-.19.51-.41,1-.62,1.47-.08.19-.17.38-.25.57l-.02.04c-.41.97-.84,1.97-1.24,2.99l-.51,1.38c-.55,1.59-1.16,3.3-1.91,4.98-.11.24-.24.48-.36.7v.2l-.32.14c-.19.08-.48.06-.67-.12-.27-.27-.49-.59-.68-1.01-.19-.42-.35-.85-.51-1.26-.19-.49-.38-.99-.61-1.46-.07-.14-.09-.27-.1-.37,0-.02-.01-.05-.01-.08-.04-.11-.09-.26-.15-.35-.29-.61-.5-1.21-.71-1.79-.03-.09-.05-.17-.08-.26-.05-.16-.09-.31-.15-.43-.23-.52-.42-1.08-.58-1.74-.1-.45-.27-.87-.47-1.27-.07-.15-.12-.18-.12-.18-.11-.08-.25-.16-.39-.23-.19.33-.34.63-.47.91l-.26.52c-.26.53-.53,1.08-.82,1.61-.31.55-.62,1.12-.87,1.71-.12.3-.25.6-.39.9-.2.45-.41.93-.58,1.4l-.02.05-.08.17c-.34.62-.6,1.3-.84,1.97l-.38.8c-.09.21-.31.37-.54.38-.22.01-.42-.09-.53-.27-.28-.43-.56-.87-.69-1.44-.1-.45-.26-.9-.45-1.31-.28-.55-.51-1.09-.71-1.62-.43-1.12-.9-2.25-1.35-3.35-.18-.44-.36-.89-.5-1.36-.17-.53-.37-1.09-.57-1.62-.08-.22-.16-.42-.25-.59-.27-.46-.48-.95-.69-1.43-.07-.17-.15-.34-.23-.51-.2-.44-.4-.85-.61-1.23-.18-.35-.37-.66-.55-.98-.12-.21-.24-.41-.35-.61-.1-.18-.22-.29-.39-.36l-.15-.05h-.01ZM134.78,234.71h0s0,0,0,0ZM139.82,224.86s0,.02-.02.03c0,0,.01-.02.02-.03ZM152.68,218.47s0,.01,0,.02c0,0,0-.01,0-.02Z"/>
  <path class="cls-5" d="M184.01,218.56c-.49.2-.92.49-1.15.98-.09.17-.2.29-.32.4l-1.38,1.44c-.29.29-.55.58-.89.8-.11.08-.2.2-.29.32l-.95,1.12c-.2.2-.4.4-.58.63-.52.66-1.07,1.32-1.61,1.96-.38.43-.84.75-1.24,1.12-.08.06-.26.06-.35,0l-.17-.08c-.66-.49-1.21-1.09-1.9-1.56l-.17-.2-1.73-1.64-.26-.23-.78-.69c-.58-.52-1.1-1.12-1.73-1.59-.58-.4-1.09-.86-1.61-1.32-.46-.38-.81-.83-1.12-1.32-.29-.4-.35-.43-.75-.17l-.2.17c-.23.17-.35.4-.38.66,0,.14.03.29.03.43.03.43.06.86.06,1.29,0,.55-.03,1.1,0,1.64.03.55-.03,1.1.08,1.64.03.11.03.23.03.35v2.94c0,.81-.06,1.61.14,2.42.03.14.03.29.03.43v2.42c0,.58,0,1.15.03,1.73.03.4.08.81.17,1.21.06.29.23.52.49.69.26.17.46.14.72-.06.26-.2.38-.46.38-.77,0-.26-.08-.52-.08-.78s.08-.52,0-.77c-.03-.08-.03-.17-.03-.26-.06-.35-.08-.69-.06-1.04.06-.43.06-.86-.03-1.29-.03-.2-.03-.4-.03-.6-.03-1.18.03-2.36-.14-3.54v-2.5l-.2.06c0-.72-.03-1.44-.03-2.16v-.43c0-.2.17-.29.38-.23.17.06.32.14.4.29.23.35.55.58.89.78l.44.26c.14.08.29.17.4.29l2.53,2.5c.23.23.46.46.75.63.23.14.4.35.6.52.35.32.63.69,1.07.89.08.03.14.08.2.14.32.46.86.69,1.21,1.15.03.06.08.08.14.11.11.06.32.06.4-.03s.17-.14.23-.23c.17-.26.35-.46.6-.63l.32-.29c.66-.52,1.07-1.29,1.73-1.84.03-.03.06-.06.06-.08.2-.43.58-.72.83-1.1.17-.23.38-.46.58-.66.23-.26.46-.52.66-.81.11-.17.23-.35.38-.46.46-.38.89-.8,1.32-1.24.03-.03.11-.03.17-.03.03,0,.06.03.06.06.06.43.06.86-.03,1.29-.11.46-.11.92-.03,1.38.03.2.03.4,0,.6-.11.63-.11,1.27,0,1.9.06.26.06.52,0,.77-.06.38-.03.75.03,1.12.03.29.06.58.06.86-.03.86.11,1.73.06,2.59,0,.17.06.35.06.52,0,.11.03.23,0,.35-.14.58-.03,1.15-.03,1.73,0,.14.06.29.08.43.06.4.32.69.66.89.17.08.35.06.52-.03.35-.2.52-.52.49-.89-.03-.29,0-.58,0-.86,0-.35.03-.69-.03-1.04-.09-.52-.11-1.04-.11-1.55v-2.5c0-.52.03-1.04-.08-1.55-.06-.2-.03-.4-.03-.6v-4.23c.03-.38.08-.75.06-1.12-.03-.38.06-.75.06-1.12,0-.52-.03-1.04.29-1.49.06-.06.06-.14.08-.23.11-.29.08-.58-.03-.86-.06-.14-.26-.23-.43-.17h-.02Z"/>
  <path class="cls-5" d="M183.44,237.38c-.18,0-.32-.05-.43-.1-.54-.32-.85-.74-.93-1.26,0-.01-.01-.05-.02-.09-.03-.11-.07-.25-.07-.42s0-.34-.02-.5c-.02-.43-.05-.87.06-1.35,0-.01,0-.04,0-.07,0-.06,0-.1,0-.16,0-.06-.01-.12-.02-.18-.02-.11-.03-.23-.03-.34.03-.47,0-.9-.03-1.37-.02-.4-.05-.82-.03-1.24,0-.25-.03-.53-.05-.8-.07-.48-.08-.87-.02-1.25.05-.22.05-.4,0-.6-.13-.71-.13-1.41,0-2.09.02-.14.02-.29,0-.44-.1-.53-.09-1.07.04-1.57.02-.09.03-.18.04-.28-.25.24-.51.48-.78.7-.09.07-.18.21-.28.35-.23.32-.47.6-.71.86-.21.21-.4.42-.55.63-.11.15-.24.3-.37.44-.16.18-.31.34-.4.52-.04.13-.13.22-.17.26-.32.27-.56.56-.81.87-.29.35-.58.71-.96,1.01l-.35.31c-.18.12-.31.26-.47.49-.07.11-.16.18-.23.25-.02.02-.04.04-.07.06-.26.26-.7.26-.97.12-.08-.04-.23-.12-.34-.28-.13-.16-.31-.3-.49-.45-.23-.18-.48-.38-.69-.66,0,0,0-.01-.01-.01-.41-.19-.7-.48-.95-.73-.08-.08-.17-.17-.25-.25-.06-.05-.13-.12-.2-.19-.11-.11-.22-.21-.33-.28-.33-.2-.59-.45-.83-.7l-2.53-2.5c-.07-.07-.19-.14-.31-.21l-.43-.26c-.28-.16-.64-.4-.92-.76,0,.33,0,.67.01,1,0,.14,0,.29,0,.43l.21-.06v3.12c.12.88.13,1.76.13,2.61,0,.32,0,.64.01.95,0,.2,0,.38.02.55.09.43.1.91.03,1.43-.02.25,0,.54.05.89v.08s0,.09,0,.1c.09.28.07.53.04.73,0,.07-.01.14-.01.2,0,.1.02.21.04.31.02.14.05.3.05.47,0,.47-.2.88-.56,1.17-.43.34-.87.37-1.3.08-.38-.25-.62-.6-.7-1-.09-.41-.15-.84-.18-1.27-.03-.6-.03-1.19-.03-1.76v-2.42c0-.13,0-.24-.02-.34-.17-.7-.17-1.4-.16-2.08v-3.37c0-.09,0-.17-.01-.23-.09-.43-.09-.83-.09-1.21,0-.17,0-.35,0-.52-.02-.38-.01-.76,0-1.13,0-.18,0-.36,0-.54,0-.43-.03-.85-.06-1.26,0-.09,0-.14-.01-.2,0-.09-.01-.18-.01-.27v-.05c.05-.41.25-.76.57-1l.23-.19c.69-.44,1.03-.24,1.42.3.27.41.59.87,1.03,1.23.54.48,1.03.92,1.58,1.3.45.32.83.7,1.19,1.06.19.19.39.38.59.56l1.03.92,1.91,1.84c.39.27.72.57,1.06.86.26.23.5.45.77.65l.05.03c.11-.1.23-.19.34-.29.27-.22.51-.43.73-.68.56-.64,1.09-1.3,1.59-1.94.19-.25.4-.47.62-.68l.92-1.09c.08-.11.2-.27.37-.4.27-.18.47-.39.69-.61l.15-.15,1.37-1.43c.11-.11.18-.19.23-.28.25-.53.71-.93,1.4-1.21h.03c.42-.15.89.06,1.05.45.17.43.18.84.03,1.23-.01.08-.05.22-.15.35-.19.29-.19.66-.19,1.07v.12c0,.18-.01.35-.03.53-.02.2-.04.38-.02.55.02.33,0,.63-.04.93,0,.09-.02.18-.02.27v4.36c0,.12,0,.22.01.3.11.52.11.99.11,1.44v2.76c0,.56.04,1.03.11,1.47.05.31.04.59.04.87v.25c0,.1,0,.2,0,.31,0,.18-.01.35,0,.51.04.58-.22,1.07-.73,1.37-.21.11-.4.14-.56.14v.02ZM182.86,222.34c.07.51.06.98-.03,1.44-.1.4-.1.78-.03,1.2.04.27.04.52,0,.76-.11.59-.11,1.17,0,1.74.07.31.07.64,0,.97-.03.24-.02.54.04.94.03.31.06.62.06.94-.01.39,0,.76.03,1.16.03.47.06.96.02,1.46,0,.02.02.08.03.14.02.11.03.23.03.34v.07c0,.1.02.24-.02.39-.08.32-.06.68-.04,1.05.01.19.03.38.03.56,0,.03.02.1.03.16.01.06.03.12.04.18.01.1.05.34.41.55,0,0,.01-.01.06-.04.21-.12.23-.3.22-.41-.02-.21-.01-.42,0-.63,0-.09,0-.18,0-.27v-.27c0-.24,0-.47-.03-.69-.08-.49-.12-1.03-.12-1.63v-2.76c0-.42.01-.81-.07-1.18-.06-.2-.05-.41-.05-.58v-4.36c.01-.13.02-.23.03-.33.02-.27.05-.52.03-.76-.02-.26,0-.49.02-.73.01-.14.03-.29.03-.43v-.12c0-.51,0-1.1.36-1.65.01-.05.02-.08.04-.12.03-.09.06-.2.03-.35-.37.18-.6.39-.73.66-.13.26-.29.42-.41.54l-1.52,1.58c-.25.25-.5.51-.83.73-.03.03-.1.11-.16.2l-.97,1.15c-.22.23-.4.41-.56.61-.52.66-1.07,1.33-1.63,1.99-.27.31-.56.55-.84.79-.15.12-.29.24-.43.38l-.06.05c-.24.16-.61.17-.86.02l-.23-.12c-.31-.23-.6-.48-.87-.73-.33-.3-.65-.58-1.01-.82l-.1-.09-.16-.18-1.96-1.84-.78-.69c-.21-.19-.42-.4-.62-.6-.35-.35-.69-.68-1.07-.96-.59-.41-1.13-.89-1.64-1.35-.54-.43-.92-.97-1.21-1.43,0,0-.02-.02-.03-.04l-.17.15c-.12.09-.18.19-.2.32,0,.04,0,.09,0,.14,0,.09.01.18.01.27.03.4.06.84.06,1.29,0,.19,0,.37,0,.55,0,.36-.01.71,0,1.06,0,.19,0,.38,0,.57,0,.35,0,.68.06.99.04.15.04.32.04.44v3.38c-.01.65-.02,1.25.13,1.85.04.22.04.4.04.55v2.42c0,.56,0,1.14.03,1.7.02.37.08.75.16,1.13.03.15.12.28.28.38.02.02.04.02.05.03,0,0,.04-.02.09-.07.13-.1.18-.21.18-.38,0-.1-.02-.21-.04-.31-.02-.14-.05-.3-.05-.47,0-.1,0-.21.02-.31.01-.13.02-.24,0-.31-.05-.14-.05-.27-.05-.38-.06-.42-.08-.78-.05-1.12.06-.43.05-.8-.02-1.16-.04-.26-.04-.48-.04-.7,0-.31,0-.64,0-.96,0-.86,0-1.68-.13-2.51v-1.92s-.21.06-.21.06v-.66c0-.35,0-.71-.01-1.07,0-.37-.01-.73-.01-1.09v-.43c0-.24.1-.45.29-.59.19-.15.46-.19.72-.11.33.11.55.28.69.51.14.21.35.4.71.6l.43.26c.16.1.34.21.5.36l2.53,2.5c.22.22.42.42.66.56.2.13.36.28.49.41.06.05.11.11.18.16.11.1.2.19.3.29.22.22.41.41.64.52.18.07.29.18.36.25l.05.07c.12.17.31.33.51.48.2.16.42.34.62.57.02-.01.03-.02.04-.04.15-.23.37-.51.71-.74l.29-.27c.32-.26.57-.56.83-.88.26-.32.52-.64.85-.93.15-.31.36-.55.56-.77.1-.12.21-.24.3-.37.19-.26.41-.51.63-.73.2-.22.42-.47.61-.74.12-.18.27-.4.47-.56.43-.35.84-.76,1.27-1.18.19-.19.42-.19.53-.19.29,0,.52.22.55.5h0Z"/>
  <path class="cls-5" d="M202.34,226.19l-.11-.03v-1.38c.03-1.79,0-2.94-.14-4.69-.06-.52-.14-1.04-.23-1.55,0-.08-.06-.17-.08-.26-.08-.17-.32-.32-.52-.29-.23.03-.46.08-.66.2-.2.12-.29.29-.32.49,0,.11,0,.23.03.34.17.55.08,1.15.23,1.73.03.09,0,.17-.03.26-.06.26-.03.52,0,.78l.06,1.21c.03.77-.03,1.55-.06,2.33-.03.83-.03,1.67,0,2.5.03.38.06.75.06,1.12,0,.43-.06.86-.06,1.29,0,1.15-.32,2.25-.78,3.28-.2.46-.46.89-.69,1.32-.03.08-.06.17-.11.23-.52.4-1.01.86-1.61,1.15-.66.32-1.35.4-2.04.23-.95-.23-1.79-.69-2.47-1.38-.72-.75-.8-.83-1.27-1.76-.58-1.15-.95-2.36-1.1-3.63-.11-.95-.2-1.9-.29-2.85-.08-.98-.08-1.95.03-2.94.03-.17,0-.35,0-.52,0-.43-.03-.86.03-1.29.08-.75.14-1.5-.03-2.25-.06-.2-.03-.4-.03-.6,0-.11,0-.23-.03-.35-.03-.14-.11-.29-.23-.38-.23-.14-.49-.17-.75-.08-.14.06-.26.14-.38.23-.2.11-.32.29-.29.49.06.46-.06.92-.08,1.38-.03.95-.23,1.9-.23,2.85,0,.11-.03.23-.06.35-.17.69-.14,1.38-.06,2.07.11.98.08,1.95.26,2.94.14.8.23,1.61.43,2.39.03.17.06.35.11.52.11.38.2.75.32,1.1.35,1.04.92,1.93,1.5,2.82.11.2.26.38.43.55l.89.83.32.29c.63.4,1.32.72,2.07.89.81.2,1.61.2,2.42.14.38-.03.75-.11,1.1-.29l.69-.32.43-.26c.43-.2.75-.55,1.1-.86.17-.17.32-.35.43-.55.83-1.61.92-1.76,1.53-3.6.11-.38.08-.75.2-1.12.08-.32.08-.63.11-.95.03-.52-.03-1.04-.03-1.55v-2.59h0Z"/>
  <path class="cls-5" d="M195.96,238.81c-.53,0-1.12-.04-1.7-.19-.75-.17-1.49-.49-2.22-.95l-.07-.05-1.21-1.13c-.23-.23-.4-.44-.52-.66-.57-.88-1.18-1.82-1.54-2.91-.07-.2-.12-.41-.18-.63-.04-.16-.09-.32-.14-.48-.06-.2-.1-.4-.13-.58-.13-.51-.22-1.07-.31-1.61-.04-.26-.08-.51-.12-.77-.1-.6-.14-1.2-.17-1.77-.03-.41-.04-.8-.09-1.19-.08-.61-.14-1.42.07-2.25.02-.08.04-.17.04-.23,0-.54.06-1.08.12-1.59.05-.44.1-.85.11-1.27,0-.18.03-.35.05-.51.04-.29.07-.55.04-.8-.05-.38.13-.74.5-.96.13-.09.27-.2.46-.28.43-.14.84-.09,1.19.12.25.18.4.43.45.7.04.15.04.31.04.44v.17c0,.12-.01.22.01.3.2.87.13,1.68.04,2.44-.04.3-.04.59-.03.9v.33s0,.1,0,.14c0,.13.01.29-.01.45-.1.88-.11,1.81-.02,2.81.08.93.17,1.89.29,2.83.13,1.18.48,2.35,1.05,3.47.43.84.48.9,1.17,1.62.63.63,1.38,1.05,2.25,1.26.57.14,1.15.08,1.71-.2.41-.2.77-.49,1.15-.8.1-.08.2-.16.3-.25,0-.01.01-.03.01-.04l.04-.08c.06-.12.13-.25.2-.37.16-.3.34-.61.47-.92.49-1.12.74-2.12.74-3.09,0-.23.01-.45.03-.68.01-.21.03-.41.03-.62,0-.36-.03-.73-.05-1.09-.03-.86-.03-1.72,0-2.56,0-.2.01-.39.02-.58.03-.56.06-1.15.04-1.71l-.06-1.21c-.03-.25-.07-.57,0-.91v-.05s.02-.02.03-.02c-.07-.32-.09-.6-.1-.87-.02-.29-.03-.55-.11-.79-.05-.2-.05-.37-.05-.49v-.07c.07-.47.35-.72.57-.85.24-.13.51-.22.84-.26.4-.05.84.18,1.02.56l.02.06c.05.11.1.23.11.36.08.51.17,1.03.23,1.55.14,1.73.18,2.88.15,4.75v.99l.11.03v2.98c0,.2.01.4.02.6.01.32.03.65,0,.98,0,.09-.01.17-.02.25-.02.26-.04.52-.11.8-.05.16-.07.32-.09.49-.02.2-.05.42-.12.65-.6,1.83-.72,2.05-1.48,3.53l-.08.15c-.14.24-.3.45-.52.67l-.19.18c-.3.28-.6.57-1.02.76l-.46.27-.69.32c-.36.18-.79.3-1.26.33-.26.02-.56.04-.87.04h0ZM192.6,236.85c.62.39,1.25.66,1.88.8.81.2,1.6.18,2.27.13.34-.02.65-.1.91-.24l.68-.31.45-.27c.28-.13.52-.36.78-.6l.19-.18c.14-.15.25-.28.34-.43l.07-.13c.76-1.48.84-1.63,1.42-3.37.04-.13.06-.3.08-.46.02-.2.05-.42.12-.65.05-.17.06-.38.08-.6,0-.08,0-.17.02-.25.01-.27,0-.56,0-.86,0-.21-.02-.43-.02-.64v-2.2l-.11-.03v-1.77c.03-1.85,0-2.97-.14-4.65-.05-.49-.14-1.01-.23-1.52v-.03s-.03-.07-.04-.09c0,0-.02-.01-.03-.02-.18.02-.34.07-.46.14-.03.01-.05.03-.07.1,0,.07,0,.14.01.18.1.32.12.66.14,1,.01.26.03.5.09.73.06.19,0,.39-.03.51-.03.17-.01.38.01.59l.06,1.24c.03.61,0,1.21-.03,1.8,0,.19-.02.38-.02.57-.03.82-.03,1.65,0,2.47.02.34.06.74.06,1.14,0,.23-.01.45-.03.68-.01.21-.03.41-.03.62,0,1.1-.27,2.24-.82,3.48-.15.35-.33.68-.51,1-.06.11-.12.22-.18.33-.04.11-.1.26-.22.38l-.04.04c-.12.09-.24.19-.35.28-.41.34-.83.68-1.35.92-.78.38-1.58.46-2.38.26-1.04-.25-1.96-.76-2.71-1.51-.74-.77-.87-.9-1.36-1.89-.61-1.22-1-2.5-1.14-3.79-.11-.95-.2-1.92-.29-2.86-.09-1.07-.08-2.06.03-3.04.01-.08,0-.17,0-.26,0-.06,0-.13,0-.2v-.32c0-.34,0-.68.03-1.04.08-.67.14-1.38-.02-2.07-.06-.2-.05-.41-.04-.58v-.13c0-.09,0-.17-.01-.23,0-.05-.03-.09-.05-.1-.07-.04-.17-.05-.3,0-.06.02-.14.08-.23.16l-.05.04s-.03.02-.04.03c.04.36,0,.7-.04,1.02-.02.14-.03.29-.04.43-.01.44-.06.9-.11,1.34-.06.51-.11,1-.11,1.48,0,.18-.04.33-.07.46-.13.53-.15,1.1-.04,1.89.05.43.07.85.1,1.25.04.57.06,1.12.16,1.66.05.26.09.53.13.79.08.54.16,1.06.3,1.56.04.2.06.35.1.48.05.18.1.35.15.52.06.2.11.39.17.58.33.98.87,1.82,1.44,2.71.1.17.21.31.37.47l1.16,1.08h-.01ZM200.05,220.87s0,.03.01.04c0-.01,0-.03-.01-.04Z"/>
  <path class="cls-5" d="M216.76,229.47l-.17-.29c-.72-1.09-1.7-1.9-2.88-2.47l-.95-.43c-.55-.26-1.09-.52-1.64-.81-.69-.35-1.38-.69-2.02-1.15-.46-.35-.83-.75-1.12-1.24-.23-.38-.32-.75-.23-1.15.11-.55.2-1.09.6-1.53.11-.11.17-.29.26-.43.06-.08.14-.17.23-.23.2-.11.4-.23.63-.29.49-.11.98-.17,1.47-.26l.52-.06c.35-.08.69-.03,1.04.06.23.06.46.11.66.26.11.08.26.14.4.17.35.08.63.26.89.52.17.17.35.32.55.43.2.14.43.14.66.03.14-.08.14-.23.17-.38l.06-.43c.06-.23,0-.46-.06-.69-.11-.38-.35-.69-.63-.95-.46-.4-.98-.72-1.58-.89-.55-.14-1.09-.26-1.61-.2-.6-.03-1.15,0-1.67.17l-.11.06-.6.14c-.29.11-.6.2-.89.35-.52.29-.98.63-1.29,1.15-.2.32-.43.63-.66.95-.66.95-.89,2.01-.77,3.14.06.52.23,1.01.52,1.44,1.09,1.64,1.29,1.84,2.94,2.91l.09.06c.23.14.46.26.72.29.26.03.49.11.72.26.11.08.26.14.4.2.35.14.72.26,1.07.43.38.17.69.43,1.09.52l1.29.86c.06.03.08.08.11.14.32.43.63.83.75,1.35.03.2.08.4.14.6.2.75.17,1.5.03,2.25-.14.72-.03.69-.78,1.01-.14.06-.26.14-.38.23-.49.35-1.04.49-1.61.55-.6.06-1.21.06-1.81-.06-1.21-.2-2.36-.6-3.45-1.18-.11-.06-.23-.14-.35-.23-.29-.2-.52-.46-.69-.77-.11-.2-.38-.26-.6-.17l-.26.08c-.43.23-.6.63-.72,1.07-.03.08,0,.17.03.26.03.11.08.23.17.32.43.52.86,1.04,1.41,1.44.4.29.86.49,1.32.66,1.32.52,2.68.89,4.12.86.58,0,1.12-.17,1.7-.26.06,0,.11-.03.17-.06.66-.38,1.35-.66,1.96-1.15.29-.26.55-.52.69-.89.11-.26.29-.49.46-.72.26-.38.4-.77.4-1.24,0-.29.03-.58.06-.86.03-.29.03-.58,0-.86-.14-1.01-.49-1.96-.95-2.88h-.03Z"/>
  <path class="cls-5" d="M212.1,238.89c-1.26,0-2.54-.28-4.12-.9-.41-.15-.95-.38-1.43-.72-.6-.44-1.06-.99-1.5-1.53-.11-.11-.22-.3-.27-.51-.03-.08-.1-.29-.02-.53.11-.43.33-1.01.96-1.34l.07-.04.26-.08c.45-.17.96,0,1.19.4.14.26.32.46.54.62.11.08.21.15.28.19,1.08.57,2.19.95,3.31,1.13.51.1,1.06.11,1.69.05.57-.06,1.01-.2,1.37-.46.11-.08.27-.2.47-.29.14-.06.36-.15.41-.19,0,0,0-.09.02-.19.01-.08.03-.16.05-.27.15-.77.14-1.41-.02-2.02-.05-.19-.12-.42-.16-.66-.08-.35-.32-.67-.59-1.04l-.1-.14-1.18-.79c-.3-.08-.54-.22-.76-.35-.11-.07-.22-.13-.34-.18-.21-.1-.42-.18-.64-.27-.14-.05-.27-.1-.4-.16-.16-.06-.35-.14-.51-.26-.14-.08-.3-.14-.48-.16-.38-.04-.7-.21-.93-.36l-.1-.07c-1.68-1.09-1.94-1.35-3.07-3.04-.33-.49-.53-1.05-.6-1.66-.13-1.29.16-2.46.86-3.48.22-.3.45-.62.65-.93.42-.68,1.04-1.08,1.47-1.32.23-.11.44-.19.65-.26.1-.04.2-.07.3-.11l.07-.02.68-.19c.51-.17,1.07-.23,1.81-.2.59-.06,1.19.07,1.75.22.65.18,1.22.51,1.78,1,.39.35.65.74.78,1.18.07.28.15.59.07.92l-.07.49c-.02.15-.08.46-.39.65-.43.21-.84.19-1.18-.03-.22-.12-.41-.29-.63-.5-.2-.2-.41-.33-.66-.39-.2-.04-.41-.13-.58-.26-.11-.08-.29-.12-.48-.17-.27-.07-.55-.12-.8-.06h-.07s-.52.07-.52.07c-.14.02-.31.05-.47.08-.33.05-.63.1-.94.17-.16.04-.33.13-.5.24,0,0-.04.04-.06.07,0,.02-.03.06-.05.1-.06.12-.14.28-.27.41-.27.29-.35.69-.44,1.15l-.02.13c-.06.27,0,.51.17.79.25.43.58.79,1,1.1.59.43,1.24.75,1.93,1.1.55.29,1.1.55,1.63.8l.94.43c1.31.64,2.35,1.53,3.08,2.65l.2.34c.53,1.06.86,2.05,1,3.03.04.34.04.66,0,.98-.03.29-.05.55-.05.81,0,.54-.16,1.04-.49,1.52-.17.23-.32.43-.41.64-.18.46-.5.78-.81,1.06-.49.4-.99.66-1.48.91-.19.1-.38.2-.57.31-.1.05-.22.11-.37.12-.18.03-.36.06-.53.1-.38.08-.79.16-1.21.16h-.17ZM205.71,234.94s0,.01,0,.02c.02.08.04.11.05.12.46.54.85,1.02,1.35,1.39.38.27.84.46,1.21.6,1.54.6,2.75.86,3.93.83.34,0,.68-.07,1.03-.14.2-.04.4-.08.61-.11.21-.11.4-.22.6-.32.46-.24.9-.47,1.29-.78.27-.24.45-.43.54-.69.15-.33.34-.59.52-.83.21-.3.31-.6.31-.94,0-.31.03-.61.06-.9.03-.27.03-.53,0-.78-.12-.84-.41-1.73-.89-2.69l-.16-.27c-.64-.97-1.52-1.72-2.67-2.29l-.94-.43c-.55-.26-1.11-.52-1.67-.82-.69-.35-1.41-.71-2.07-1.19-.53-.4-.94-.85-1.26-1.39-.3-.48-.39-.99-.29-1.51l.02-.12c.11-.53.23-1.14.7-1.63.03-.04.07-.11.1-.16.03-.06.06-.12.1-.18.1-.16.24-.29.38-.39.25-.14.49-.28.79-.35.35-.08.69-.13,1.02-.19.16-.02.33-.05.48-.08l.52-.06c.45-.1.88-.02,1.24.06.26.06.55.14.83.34.06.04.13.07.21.09.45.11.81.32,1.15.65.16.16.3.27.44.35l.04.02s.02.02.05.02l.07-.51c.03-.11,0-.27-.06-.45-.07-.24-.24-.48-.48-.7-.44-.38-.9-.64-1.39-.79-.47-.12-.98-.24-1.42-.19h-.08c-.62-.03-1.07.01-1.46.14l-.19.08-.57.14c-.1.04-.2.07-.31.11-.18.06-.36.12-.51.2-.52.29-.86.59-1.1.97-.22.35-.47.69-.69.98-.56.8-.79,1.75-.69,2.79.05.45.2.85.44,1.21,1.06,1.58,1.21,1.74,2.79,2.76l.09.06c.2.13.36.19.5.21.33.03.63.14.93.33.1.07.21.11.32.16.13.06.26.1.38.15.24.09.48.18.73.3.13.06.27.14.4.21.21.12.39.22.57.26l.09.02,1.36.9c.15.09.23.22.28.31l.04.05c.32.43.64.87.77,1.45.03.21.08.4.14.57.2.76.21,1.56.04,2.47-.02.1-.03.18-.04.25-.12.68-.28.8-1.02,1.12-.09.04-.17.1-.27.17-.52.37-1.1.57-1.86.64-.73.07-1.37.05-1.95-.06-1.22-.2-2.43-.62-3.59-1.23-.15-.07-.29-.18-.41-.27-.32-.22-.59-.52-.8-.88h-.04s-.21.08-.21.08c-.2.12-.33.32-.43.69v.03ZM205.7,234.97h0s0,0,0,0Z"/>
  <path class="cls-5" d="M222.51,232.76v-5.27c0-.2.03-.41.06-.6.06-.43.06-.86,0-1.29-.03-.26-.06-.52-.06-.78,0-1.61-.03-3.22,0-4.84,0-.49-.11-.92-.35-1.32-.17-.29-.38-.32-.63-.08-.2.2-.29.43-.32.72-.14,1.32-.14,2.65-.14,3.97,0,1.18.03,2.36.03,3.54v5.61c0,.52-.06,1.04.11,1.56.03.08,0,.17,0,.26,0,.41,0,.81.03,1.21.03.43.08.86.17,1.29.06.32.29.52.6.58.14.03.29.03.43,0,.29-.06.49-.26.52-.52v-.35c-.03-.75-.08-1.5-.2-2.25-.08-.49-.26-.95-.26-1.44h0Z"/>
  <path class="cls-5" d="M222.24,237.82c-.1,0-.21-.01-.31-.03-.53-.1-.9-.46-.99-.97-.09-.44-.15-.9-.18-1.35-.03-.42-.03-.83-.03-1.24,0-.05,0-.09.01-.14h0c-.15-.49-.14-.96-.13-1.37v-5.91c0-.59,0-1.18-.01-1.76,0-.59-.01-1.18-.01-1.78,0-1.31,0-2.68.15-4.02.04-.42.19-.75.46-1.02.27-.24.52-.33.78-.29.25.04.46.2.63.47.28.49.41,1.01.41,1.58-.02,1.08-.01,2.17,0,3.22,0,.54,0,1.08,0,1.61,0,.23.02.46.05.71.06.47.06.96,0,1.43-.03.2-.05.38-.05.54v5.27c0,.26.06.54.14.83.04.17.08.35.11.52.11.7.18,1.45.21,2.31v.42c-.05.47-.41.85-.91.95-.1.02-.21.03-.31.03h0ZM221.8,219.01c-.04.07-.08.17-.09.32-.14,1.3-.14,2.64-.14,3.93,0,.59,0,1.18.01,1.76,0,.59.01,1.18.01,1.78v5.93c0,.38-.01.74.09,1.08.06.16.04.3.03.38,0,.43,0,.82.03,1.2.03.41.08.82.16,1.24.01.05.03.15.21.19.09.01.17.02.25,0,.02,0,.1-.02.12-.07v-.31c-.03-.82-.09-1.51-.2-2.17-.02-.15-.06-.3-.1-.45-.08-.34-.16-.68-.16-1.06v-5.27c0-.23.03-.45.06-.66.06-.39.06-.79,0-1.17-.03-.29-.06-.56-.06-.84,0-.54,0-1.07,0-1.61,0-1.06-.01-2.16,0-3.23,0-.34-.07-.66-.22-.95Z"/>
  <path class="cls-5" d="M239.81,233.99c-.8.03-1.58.17-2.28.58-.35.2-.75.32-1.15.43-.4.11-.8.06-1.21.09-.75.08-1.5-.06-2.25-.2-.83-.17-1.55-.6-2.22-1.12-.17-.14-.35-.29-.49-.46-.6-.66-.98-1.44-1.35-2.22-.26-.52-.4-1.07-.46-1.64-.03-.38-.08-.75-.14-1.12-.06-.43-.06-.86-.08-1.29.03-.23.06-.43.06-.63l-.08-.08c-.03-.86.23-1.67.58-2.45.06-.17.11-.35.2-.49.26-.49.46-1.01.78-1.47.66-.92,1.53-1.61,2.62-1.99l.35-.08c.48-.19.98-.31,1.5-.35.26-.03.52-.03.77,0,.29.06.58.08.86,0,.23-.06.46-.03.69.03.4.11.8.2,1.21.23.17,0,.35.06.49.14l1.09.55.23.11c.29.14.58.11.83-.06.17-.11.14-.32.17-.49.03-.23.03-.46-.11-.66-.06-.06-.06-.14-.06-.23-.08-.75-.49-1.27-1.18-1.53-.83-.32-1.64-.78-2.59-.66-.06,0-.11,0-.17-.03-.6-.17-1.21-.17-1.81-.03-.75-.03-1.44.2-2.16.32-.6.11-1.1.4-1.47.89-.23.32-.55.52-.86.72-.78.46-1.47,1.04-1.93,1.84l-.17.29c-.75,1.12-1.27,2.36-1.47,3.71-.03.23-.06.46-.11.69-.11.49-.08.98-.03,1.47.03.2.08.4.08.6.03.58.14,1.15.23,1.73.03.26.11.52.14.78.03.58.2,1.1.46,1.58.35.63.63,1.29.98,1.93.32.55.66,1.1,1.09,1.58.06.06.08.14.14.17.55.32.95.86,1.61,1.01.11.03.2.11.26.2.23.26.52.38.84.43.29.06.58.11.83.23.55.2,1.1.4,1.7.38.11,0,.23.06.35.08.72.08,1.44.11,2.16-.11.34-.11.72-.2,1.1-.29.35.08.6-.11.86-.29.29-.17.55-.43.89-.55.08-.03.17-.08.23-.14.2-.35.4-.69.43-1.12.06-.77-.35-1.04-.98-1.01v-.03Z"/>
  <path class="cls-5" d="M236.04,238.06c-.35,0-.67-.03-.98-.06h-.06s-.1-.04-.15-.05c-.03,0-.06-.02-.09-.02-.66.04-1.27-.19-1.86-.4-.24-.1-.49-.16-.76-.21-.47-.08-.83-.28-1.11-.59l-.04-.05c-.49-.11-.87-.42-1.22-.7-.17-.14-.33-.27-.49-.36-.13-.06-.21-.18-.25-.25-.5-.57-.87-1.17-1.17-1.69-.18-.34-.35-.67-.51-1-.15-.32-.31-.63-.48-.94-.32-.61-.49-1.19-.52-1.8,0-.08-.03-.19-.06-.31-.04-.15-.06-.3-.08-.44-.02-.12-.04-.27-.06-.41-.07-.44-.14-.89-.17-1.35,0-.11-.02-.22-.04-.34-.01-.07-.03-.15-.04-.22-.06-.52-.1-1.08.04-1.65.05-.21.08-.41.1-.64.21-1.38.73-2.69,1.54-3.93l.16-.27c.44-.78,1.14-1.44,2.1-2.01.27-.17.54-.35.72-.59.45-.58,1.04-.95,1.77-1.09.23-.04.44-.08.65-.13.49-.1,1-.22,1.56-.2.68-.15,1.35-.13,2,.05h.02c.86-.09,1.62.23,2.3.51.16.06.32.13.47.19.87.32,1.39.99,1.5,1.93v.05c.22.34.21.69.17.96,0,.04,0,.07,0,.1-.01.17-.05.52-.38.74-.41.28-.89.31-1.33.09l-1.32-.66c-.11-.06-.2-.09-.27-.09-.43-.03-.86-.11-1.34-.25-.18-.04-.32-.05-.43-.02-.39.12-.79.06-1.08,0-.18-.02-.4-.02-.63,0-.48.04-.94.14-1.37.31l-.07.02-.35.08c-.91.31-1.71.92-2.34,1.8-.18.27-.33.57-.49.9-.08.17-.16.34-.25.51-.07.12-.12.26-.17.41l-.02.05c-.36.79-.52,1.44-.53,2.04l.09.09v.2c0,.21-.02.41-.05.63v.02c0,.13,0,.27.02.39.01.29.02.55.06.82.06.38.12.76.15,1.15.05.53.19,1.01.41,1.46.37.77.72,1.49,1.27,2.1.13.15.28.28.44.41.71.56,1.35.88,2,1.02.73.14,1.42.27,2.09.19.45-.03.81.02,1.13-.07.39-.11.75-.21,1.04-.38.69-.4,1.48-.61,2.5-.64.49-.03.88.1,1.15.38.27.27.38.66.35,1.16-.03.54-.28.96-.5,1.33l-.08.1c-.12.12-.27.21-.43.26-.15.05-.31.16-.47.28-.11.08-.22.16-.33.22l-.04.02c-.24.16-.61.4-1.07.34-.34.08-.66.15-.95.25-.48.15-.95.2-1.4.2h0ZM235.21,237.02c.61.07,1.27.1,1.92-.1.36-.12.75-.21,1.13-.3l.11-.03.12.03c.1.02.2-.04.41-.18l.06-.04c.1-.06.19-.12.27-.19.21-.15.43-.32.74-.42.17-.29.3-.54.32-.83.01-.2,0-.35-.06-.4s-.21-.08-.4-.08c-.85.03-1.5.19-2.04.51-.4.23-.84.36-1.26.48-.48.14-.9.07-1.31.1-.8.09-1.6-.06-2.37-.21-.81-.17-1.58-.55-2.43-1.22-.2-.16-.39-.32-.56-.53-.64-.7-1.04-1.52-1.42-2.32-.27-.55-.44-1.14-.51-1.81-.03-.36-.08-.71-.14-1.08-.04-.34-.06-.64-.07-.93,0-.14-.01-.28-.02-.42v-.17c.02-.11.04-.21.04-.31l-.07-.07v-.19c-.04-1.05.31-1.97.61-2.66.04-.15.12-.36.23-.54.07-.13.15-.3.22-.46.17-.35.34-.7.57-1.04.76-1.05,1.72-1.78,2.87-2.17l.35-.09c.74-.3.79-.31,1.61-.37.28-.03.57-.03.87,0,.33.06.5.07.67.02.39-.1.73-.03.95.02.43.12.8.19,1.13.22.21,0,.47.07.71.21l1.29.65c.1.05.19.05.28,0v-.04c0-.05,0-.1.02-.15.02-.17,0-.24-.02-.28-.14-.18-.16-.38-.16-.5-.07-.55-.35-.9-.86-1.1-.17-.06-.34-.13-.51-.2-.63-.26-1.22-.51-1.85-.43h-.06c-.07,0-.2,0-.34-.05-.5-.14-1-.14-1.53-.01h-.06s-.07.01-.07.01c-.46-.02-.9.07-1.38.17-.23.05-.45.09-.68.13-.48.09-.86.32-1.15.71-.28.38-.66.62-.99.83-.84.5-1.4,1.03-1.77,1.67l-.18.3c-.76,1.13-1.22,2.31-1.4,3.53-.03.23-.06.48-.12.74-.1.42-.07.87-.02,1.29,0,.04.02.1.03.16.03.15.06.32.06.5.02.38.08.79.15,1.21.02.15.05.29.07.44.01.13.04.24.06.36.03.15.06.3.08.44.02.49.16.94.4,1.41.17.32.33.65.49.98.15.32.31.64.48.95.27.46.6,1.01,1.03,1.49.03.03.06.08.09.11.21.13.38.27.55.4.29.24.54.44.85.5.22.05.4.18.54.38.12.13.29.21.54.26.3.06.64.13.95.27.48.18.97.35,1.48.33.18,0,.31.04.41.07.02,0,.04.01.05.02h0ZM229.76,234.73s.03.02.04.03c-.01-.01-.03-.02-.04-.03Z"/>
  <path class="cls-5" d="M269.77,232.49c0-.29-.03-.58-.06-.86-.08-.81-.14-1.61-.14-2.42,0-1.18.03-2.36.06-3.54,0-.77,0-1.55-.11-2.33-.03-.26.06-.52.06-.77,0-.29-.08-.58-.06-.86.06-.46.06-.92.11-1.38.06-.46-.06-.86-.26-1.27-.06-.11-.2-.17-.29-.11l-.35.2c-.35.17-.49.49-.52.86l-.06.69c-.03.23-.03.46-.09.69-.08.35-.08.69-.08,1.04v1.12c0,.26-.03.52.03.77.11.58.11,1.15.11,1.73v1.81c0,.63.03,1.27-.11,1.9-.03.2-.03.43.03.63.14.52.11,1.04.08,1.55,0,.03-.06.08-.08.08-.06,0-.14-.03-.17-.06-.2-.2-.4-.4-.58-.63-.17-.26-.38-.49-.6-.72l-1.04-.95c-.32-.29-.63-.58-.92-.89-.38-.43-.77-.83-1.27-1.15-.26-.14-.49-.32-.69-.52-.52-.49-1.04-1.01-1.53-1.56-.29-.32-.58-.6-.92-.83l-.35-.26-1.9-1.64-.35-.26c-.77-.49-1.41-1.15-2.07-1.76-.26-.23-.52-.46-.81-.66-.4-.26-.75-.6-1.07-.98l-.23-.29c-.11-.11-.35-.17-.49-.11-.49.2-.83.52-.83,1.1v2.25c0,.11,0,.23.03.35.17.58.14,1.15.11,1.73v1.04c.03.55.06,1.1-.06,1.64-.03.2,0,.41,0,.6.03.8.14,1.61-.03,2.42-.03.17,0,.35.03.52.06.26.06.52.03.77-.11.66-.14,1.32,0,1.98.06.23.06.49,0,.72-.14.63-.09,1.27-.11,1.9,0,.32.03.63.08.95.06.32.29.49.6.55.17.03.35,0,.52-.03.23-.03.46-.35.43-.58,0-.11-.03-.23-.03-.35.03-.46.08-.92.08-1.38s-.08-.92-.08-1.38c0-.4-.06-.8-.08-1.21-.03-.43.08-.86.11-1.29v-4.09c.08-.63,0-1.44-.03-2.25l.23-.08c0-.66.03-1.32.03-1.99v-.17c0-.08.14-.2.23-.17.08.03.17.06.23.11.38.23.72.49,1.04.8l.95.92c.26.26.49.52.83.63.08.03.14.08.2.14l.69.6c.58.52,1.15,1.04,1.84,1.44.14.08.26.2.35.35.32.49.75.86,1.21,1.24.26.2.52.4.69.66.32.46.75.77,1.21,1.07.35.23.63.49.92.78.6.6,1.24,1.18,1.84,1.76.06.06.11.11.2.14.23.14.38.38.52.58.32.46.6.92.8,1.44.06.17.11.35.2.49.23.32.32.66.32,1.07v.17c0,.23.08.43.23.6l.26.34c.14.14.32.17.49.11.17-.06.32-.17.38-.35l.14-.77c.11-.6.11-1.21.03-1.81-.11-.77-.14-1.55-.14-2.33h0Z"/>
  <path class="cls-5" d="M269.2,238.28c-.25,0-.48-.1-.67-.29l-.04-.05-.26-.35c-.21-.25-.33-.57-.33-.9v-.17c0-.33-.07-.56-.22-.77-.14-.23-.21-.44-.27-.62-.18-.47-.47-.91-.75-1.31l-.05-.07c-.1-.14-.19-.27-.29-.35-.15-.07-.25-.17-.32-.23-.19-.18-.39-.37-.59-.55-.42-.39-.84-.79-1.26-1.2-.32-.32-.57-.53-.84-.72-.45-.28-.96-.64-1.34-1.19-.13-.2-.36-.37-.59-.55-.47-.38-.96-.8-1.32-1.36-.05-.09-.11-.15-.18-.19-.73-.42-1.33-.97-1.92-1.49l-.69-.6s-.05-.05-.07-.06c-.39-.12-.67-.41-.92-.66l-.07-.08-.94-.91c-.2-.2-.42-.38-.66-.55,0,.21,0,.41,0,.62,0,.33-.01.66-.01.98v.34l-.22.08c0,.09,0,.18.01.26.03.6.06,1.17,0,1.68v4.05c-.01.21-.04.38-.06.55-.03.25-.07.49-.05.71,0,.13.02.26.03.38.02.28.05.56.05.85,0,.22.02.43.04.65.02.24.04.48.04.74,0,.33-.02.65-.05.97-.01.15-.02.3-.03.45,0,0,0,.04,0,.08,0,.07.01.14.02.21.04.5-.38,1.03-.86,1.09-.18.03-.4.07-.66.03-.55-.1-.92-.44-1.01-.95-.06-.34-.09-.69-.09-1.04,0-.2,0-.39,0-.57,0-.46,0-.94.12-1.44.04-.16.04-.34,0-.49-.15-.67-.15-1.38,0-2.19.02-.21.01-.4-.02-.59-.04-.23-.07-.45-.03-.71.12-.58.09-1.15.05-1.75-.01-.19-.03-.38-.03-.57,0-.08,0-.14,0-.2,0-.15-.01-.32,0-.5.11-.51.08-1.02.05-1.54v-1.06c.03-.57.06-1.09-.09-1.58-.05-.2-.05-.36-.05-.49v-2.25c0-.71.39-1.24,1.14-1.55.33-.13.77-.03,1.03.22l.04.04.23.29c.33.39.63.67.95.87.33.23.6.47.87.71.15.14.29.27.44.4.51.48,1,.94,1.57,1.3l.38.28,1.92,1.66.32.24c.38.26.71.58.99.9.43.49.93.99,1.5,1.53.18.18.38.33.59.44.49.32.91.7,1.4,1.26.26.29.56.56.87.84l1.05.96c.26.26.46.49.62.73-.01-.16-.04-.31-.08-.46-.09-.31-.07-.63-.04-.83.12-.53.11-1.03.11-1.55v-2.09c0-.57,0-1.1-.11-1.63-.05-.25-.05-.48-.04-.7v-1.3c0-.37,0-.75.1-1.15.03-.11.04-.25.05-.38,0-.08.01-.17.02-.25l.05-.67c.06-.74.46-1.1.79-1.26l.32-.19c.13-.08.32-.11.5-.06.2.05.38.2.47.39.27.55.37,1.04.31,1.55-.03.22-.04.44-.05.66-.02.24-.03.48-.06.72-.01.1,0,.23.02.37.02.14.03.29.03.43,0,.13-.02.27-.03.4-.02.12-.04.23-.02.32.12.79.12,1.6.12,2.39v.07c-.03,1.14-.06,2.32-.06,3.47,0,.71.04,1.48.14,2.37.03.3.06.6.06.92,0,.91.04,1.61.14,2.26.1.69.09,1.35-.03,1.98l-.16.84c-.1.31-.35.55-.69.66-.11.03-.22.05-.32.05h-.03ZM254.87,222.02c.42.26.78.54,1.09.85l1.03,1c.2.21.37.36.56.43.2.06.32.19.39.26l.67.58c.58.52,1.12,1.01,1.77,1.38.22.13.39.31.52.52.27.42.68.76,1.1,1.11.26.21.57.44.79.77.27.4.67.68,1.06.92.43.29.77.6,1.01.85.4.4.82.79,1.23,1.18.2.19.4.38.6.56.02.02.04.04.05.05l.07.03c.29.18.46.43.61.64l.05.07c.32.46.64.96.86,1.54.06.17.1.32.16.42.25.34.39.78.39,1.32v.17c0,.06,0,.16.11.29l.23.31s.03-.02.04-.03l.13-.71c.1-.53.11-1.07.02-1.65-.1-.7-.15-1.44-.15-2.4,0-.26-.02-.53-.05-.82-.1-.92-.15-1.72-.15-2.47,0-1.16.03-2.35.05-3.49v-.06c0-.77,0-1.51-.11-2.25-.02-.23,0-.42.02-.59.01-.09.02-.17.02-.26,0-.1-.01-.2-.03-.31-.02-.18-.05-.38-.03-.61.03-.23.05-.45.05-.67.01-.24.03-.48.06-.72.03-.24,0-.47-.1-.72l-.06.03c-.14.07-.25.17-.28.47l-.06.7c-.01.09-.01.16-.02.23-.01.16-.03.35-.08.54-.07.29-.07.59-.07.92v1.33c0,.18,0,.33.02.46.13.63.13,1.24.13,1.83v2.08c0,.56,0,1.14-.13,1.74-.01.12,0,.28.02.38.17.6.13,1.17.1,1.72,0,.28-.28.55-.58.55-.16,0-.38-.06-.52-.2-.21-.21-.43-.43-.62-.69-.15-.23-.33-.43-.56-.67l-1.02-.93c-.33-.3-.65-.59-.95-.92-.43-.49-.79-.82-1.17-1.07-.27-.15-.54-.35-.77-.58-.58-.55-1.09-1.07-1.54-1.57-.24-.27-.51-.54-.83-.76l-.36-.28-1.93-1.66-.32-.24c-.62-.38-1.16-.9-1.69-1.39-.14-.13-.28-.26-.42-.39-.24-.21-.49-.43-.76-.62-.38-.25-.75-.59-1.16-1.07l-.2-.25c-.4.17-.48.38-.48.62v2.25c0,.09,0,.17.01.23.19.63.16,1.26.13,1.87v1.01c.03.54.06,1.13-.07,1.74,0,.05,0,.16,0,.28,0,.07,0,.15,0,.23,0,.16.02.35.03.53.04.64.08,1.31-.07,1.99,0,.07,0,.19.03.33.06.26.07.57.04.91-.12.72-.12,1.29,0,1.83.07.3.07.64,0,.94-.09.38-.09.78-.09,1.21,0,.2,0,.39,0,.59,0,.27.02.55.08.84,0,.05.02.12.21.15.08.01.2,0,.33-.03.02-.02.04-.05.04-.07,0-.06-.01-.09-.01-.13-.01-.08-.02-.16-.02-.23,0-.19.02-.34.04-.5.02-.31.05-.6.05-.88,0-.22-.02-.43-.04-.65-.02-.24-.04-.48-.04-.74s-.02-.49-.05-.76c-.01-.14-.03-.28-.04-.41-.02-.33.02-.62.06-.91.02-.15.04-.3.06-.45v-4.12c.06-.42.03-.96,0-1.53-.01-.21-.03-.42-.03-.64v-.36s.23-.09.23-.09c0-.22,0-.44,0-.66,0-.33.01-.66.01-.98v-.17c0-.2.11-.4.3-.53.18-.13.4-.17.58-.11.1.03.25.08.37.19h.03ZM267.64,231.89v.06-.06ZM269.36,219.35l-.03.02s.02-.01.03-.02Z"/>
  <path class="cls-5" d="M293.28,225.47c-.08-.35-.2-.66-.23-1.01,0-.11-.03-.23-.08-.35-.17-.35-.26-.72-.35-1.1-.06-.2-.14-.38-.23-.55-.08-.14-.2-.29-.26-.44-.4-.92-1.1-1.64-1.73-2.39-.08-.11-.2-.2-.32-.29-.35-.26-.69-.55-1.07-.75-.4-.23-.86-.38-1.29-.55l-.52-.2c-1.01-.43-2.04-.66-3.14-.72-.38-.03-.75,0-1.1.14-.17.08-.38.14-.58.2-.63.14-1.24.32-1.87.4-.78.11-1.47.46-2.16.83-.83.43-1.64.89-2.28,1.61l-.55.58c-.72.75-1.27,1.58-1.7,2.5-.35.77-.55,1.58-.72,2.42-.08.38-.06.75-.11,1.12-.06.43-.06.86.06,1.29.06.2.06.4.08.6l.08.69c.11.69.26,1.38.55,2.01.17.89.69,1.64,1.12,2.42.03.08.08.17.14.23.29.26.55.52.86.75.4.29.81.55,1.1.95.11.17.29.32.46.38.38.14.72.35,1.01.63.06.06.14.08.23.11.63.29,1.21.69,1.93.75.11,0,.23.06.35.08.58.14,1.15.23,1.73.2.2,0,.4.03.6.03.38,0,.75.03,1.12-.03.66-.11,1.29-.29,1.93-.46.06,0,.11-.03.17-.06.66-.23,1.21-.66,1.81-1.01.2-.11.35-.32.52-.46l.86-.77c.46-.43.95-.83,1.27-1.41.03-.06.08-.08.11-.11.26-.29.43-.6.6-.95.17-.35.35-.69.6-.98.08-.08.14-.23.2-.38.11-.32.2-.66.29-1.01.29-.98.52-1.96.4-2.99v-.08l.17-.11c0-.35.03-.69,0-1.04-.03-.26-.06-.52-.11-.77h0ZM291.18,230.68l.03-.03c-.43.95-1.01,1.84-1.76,2.59-.08.08-.2.14-.26.23-.29.43-.72.69-1.12.98-.38.26-.78.43-1.21.55-.66.17-1.32.4-1.98.6-.29.08-.58.17-.86.23-.92.23-1.84.17-2.76-.08-.14-.03-.29-.08-.43-.08-.46-.06-.89-.26-1.32-.4-.89-.32-1.64-.86-2.33-1.47-.23-.2-.43-.43-.66-.6-.26-.17-.46-.41-.63-.66-.43-.63-.78-1.29-.98-2.04l-.17-.52c-.49-1.67-.49-3.34.06-4.98.26-.78.6-1.53,1.15-2.16l.32-.43c.26-.35.55-.66.95-.86.08-.06.2-.11.29-.2.26-.29.6-.43.92-.6.38-.2.75-.32,1.18-.26.26.03.52-.03.75-.14.14-.08.29-.17.46-.23.14-.06.29-.11.43-.14.66-.11,1.32-.29,1.98-.2.26.03.52.03.78-.08.46-.2.92-.11,1.38,0,.23.06.46.11.66.23.58.29,1.18.49,1.78.72.52.2.95.52,1.38.89.6.52,1.1,1.12,1.53,1.78.06.08.11.17.14.29.2.58.46,1.12.58,1.73.06.23.11.46.2.66.14.32.2.66.2,1.01v.72c.08.98-.23,2.01-.66,2.99h0Z"/>
  <path class="cls-5" d="M283.88,238.6h-.29c-.2,0-.4,0-.61-.02-.09,0-.18-.01-.27-.01-.54.03-1.15-.04-1.85-.22-.05-.01-.1-.03-.15-.04-.03-.01-.06-.02-.09-.03-.66-.05-1.17-.31-1.66-.57-.14-.07-.29-.15-.43-.22-.11-.04-.27-.09-.39-.22-.22-.22-.49-.39-.84-.52-.25-.08-.51-.29-.7-.56-.2-.28-.49-.48-.83-.72l-.14-.1c-.27-.19-.49-.4-.7-.6l-.2-.19c-.12-.12-.21-.25-.26-.39-.08-.14-.16-.28-.24-.41-.37-.63-.75-1.29-.91-2.06-.3-.68-.45-1.4-.56-2.08l-.09-.71c-.01-.06-.02-.14-.02-.21-.01-.12-.02-.23-.05-.32-.12-.46-.15-.95-.07-1.49.02-.15.03-.3.04-.45.02-.23.02-.47.08-.73.16-.79.37-1.65.75-2.51.48-1.03,1.07-1.89,1.79-2.65l.54-.57c.69-.79,1.57-1.28,2.4-1.71.69-.38,1.45-.76,2.32-.88.44-.06.86-.16,1.31-.27.17-.04.35-.08.52-.12.15-.04.33-.09.46-.16.42-.17.85-.23,1.35-.19,1.17.06,2.25.31,3.29.76l.5.2c.12.04.23.09.35.13.34.13.69.26,1.02.44.32.17.62.4.9.62l.21.16c.13.09.29.21.42.38l.27.31c.56.65,1.15,1.33,1.52,2.18.02.06.07.14.12.21.03.05.07.11.1.16.11.21.21.42.28.66.09.38.17.72.31,1.01.09.18.14.38.14.57.02.16.08.37.13.59.03.1.05.2.08.3h0c.06.3.1.58.13.84.02.27.02.52.01.76,0,.11,0,.22,0,.33v.27l-.16.1c.07,1.09-.18,2.1-.44,2.97-.08.34-.17.7-.3,1.04-.08.2-.16.4-.32.55-.2.22-.35.53-.51.85-.17.35-.37.72-.68,1.06l-.08.07c-.32.55-.74.93-1.14,1.3l-1.07.96c-.06.05-.11.1-.16.16-.12.12-.25.26-.44.36-.18.1-.36.21-.53.33-.41.26-.84.53-1.34.71-.07.03-.16.07-.28.09-.62.17-1.25.34-1.93.46-.23.04-.44.04-.65.04h.02ZM282.71,237.58c.13,0,.24,0,.35.02.19.01.38.01.56.01.27,0,.52,0,.76-.03.64-.11,1.26-.28,1.87-.45l.14-.05c.4-.14.78-.38,1.17-.62.19-.12.38-.24.57-.35.06-.04.14-.12.22-.2.07-.07.14-.15.22-.21l1.04-.94c.38-.35.74-.68.97-1.1.06-.12.16-.2.22-.24.17-.19.32-.45.49-.81.18-.37.38-.75.68-1.09.03-.04.08-.15.11-.22.1-.28.18-.6.27-.94.2-.7.35-1.31.4-1.9l-1.08,2.38c-.48,1.07-1.11,1.99-1.86,2.74-.05.05-.11.1-.17.14-.02.01-.04.03-.06.04-.27.42-.68.7-1.04.95l-.18.13c-.41.29-.86.48-1.37.62-.43.11-.87.25-1.3.39-.22.07-.45.14-.67.21-.3.09-.6.18-.91.24-.94.24-1.92.21-2.99-.09-.02,0-.08-.02-.14-.03-.06-.01-.13-.03-.16-.03h-.06c-.39-.05-.74-.18-1.08-.31-.11-.04-.23-.08-.34-.12-1.06-.38-1.9-1.04-2.5-1.57-.1-.08-.19-.18-.29-.27-.12-.12-.24-.23-.35-.31-.27-.18-.52-.43-.75-.79-.51-.75-.84-1.45-1.05-2.19l-.16-.49c-.53-1.81-.51-3.59.06-5.29.33-.98.72-1.72,1.24-2.33l.29-.4c.26-.35.6-.75,1.11-1l.06-.04s.1-.06.12-.08c.25-.28.58-.45.86-.6l.17-.09c.52-.28.99-.38,1.48-.32.14.01.31-.01.46-.09.13-.08.3-.18.52-.26.13-.05.31-.12.49-.16.13-.02.25-.04.37-.07.57-.11,1.16-.22,1.78-.14.23.02.38,0,.51-.05.61-.27,1.2-.15,1.7-.03.25.06.52.13.79.28.39.2.83.36,1.3.53l.42.16c.64.25,1.13.64,1.53.98.59.5,1.12,1.12,1.61,1.89.07.1.16.24.21.43.04.12.11.28.17.44.16.41.33.85.41,1.31.05.18.1.39.17.56.16.35.24.76.24,1.2v.72c.03.38.02.77-.06,1.2l.47-.47c.02-.3.02-.58-.01-.88v-.41l.18-.12v-.09c0-.22,0-.44,0-.64-.02-.24-.05-.47-.1-.71-.02-.09-.05-.18-.07-.27-.07-.26-.14-.52-.17-.81,0-.08-.02-.12-.04-.17-.2-.39-.29-.8-.39-1.21-.04-.13-.11-.28-.19-.43,0-.01-.04-.05-.06-.09-.07-.11-.16-.24-.21-.38-.31-.7-.81-1.29-1.35-1.91l-.29-.34c-.07-.08-.15-.14-.24-.21l-.22-.17c-.27-.21-.52-.4-.78-.54-.27-.15-.57-.27-.88-.38-.12-.04-.24-.09-.36-.14l-.51-.2c-.95-.41-1.92-.63-2.98-.69-.36-.03-.64,0-.88.11-.18.09-.42.16-.63.22-.2.04-.36.09-.53.13-.45.11-.92.22-1.4.29-.7.1-1.34.43-1.99.78-.76.4-1.55.83-2.14,1.51l-.56.59c-.65.68-1.18,1.46-1.61,2.38-.34.76-.53,1.56-.68,2.31-.05.18-.06.37-.06.57,0,.18-.02.35-.05.53-.05.42-.04.76.05,1.09.05.17.06.34.08.48,0,.06,0,.12.02.18l.09.7c.1.61.24,1.28.51,1.87l.03.11c.12.64.45,1.21.8,1.81.09.15.18.31.26.46l.03.08.22.22c.2.19.4.37.61.52l.13.09c.38.27.77.54,1.07.97.07.11.16.17.21.19.47.18.86.43,1.17.73.02,0,.04.01.06.02l.05.02c.17.08.33.16.5.25.43.22.83.42,1.26.46.11-.01.25.04.35.07.02.01.05.02.08.03.6.15,1.11.21,1.58.19h.01ZM280.86,235.17c.14,0,.27.04.38.07.04,0,.07.02.11.03.94.26,1.76.29,2.55.09.29-.06.56-.14.84-.23.22-.06.44-.14.66-.21.44-.14.89-.29,1.35-.4.4-.1.74-.26,1.05-.47l.18-.13c.32-.22.62-.43.81-.71.08-.12.18-.2.26-.25.02-.01.05-.04.06-.05.58-.58,1.07-1.27,1.48-2.08l.14-.33c.48-1.1.69-2,.62-2.75v-.76c0-.3-.05-.57-.16-.81-.11-.25-.17-.51-.23-.74-.08-.41-.22-.78-.37-1.17-.06-.17-.13-.34-.19-.51-.02-.07-.05-.11-.09-.18-.45-.69-.92-1.24-1.44-1.68-.33-.29-.74-.62-1.24-.81l-.41-.15c-.47-.17-.95-.35-1.42-.59-.17-.09-.36-.14-.56-.19-.46-.12-.77-.15-1.07-.02-.38.17-.75.16-1.03.12-.47-.07-.96.03-1.48.13-.12.02-.25.04-.36.07-.08.02-.2.06-.33.11-.15.05-.26.12-.39.2-.36.18-.72.25-1.06.21-.29-.04-.55.02-.89.2l-.19.1c-.23.12-.45.23-.6.4-.12.12-.24.19-.32.25l-.11.07c-.34.17-.58.46-.77.72l-.32.43c-.46.53-.79,1.17-1.08,2.02-.5,1.51-.52,3.09-.05,4.68l.17.5c.18.66.47,1.26.92,1.92.16.24.32.41.5.53.19.14.33.28.47.41.08.08.16.16.25.23.54.47,1.27,1.06,2.17,1.37.11.04.24.08.36.13.29.11.57.21.83.25ZM291.45,234.12s0,.01-.01.02c0,0,0-.01.01-.02Z"/>
  <path class="cls-5" d="M308.13,218.39c-.17-.06-.35-.11-.52-.14l-.52-.06c-.75-.17-1.5-.17-2.25-.11-.49.03-.98.06-1.47.11-.29.03-.58.03-.86-.03-.17-.03-.35-.03-.52,0-1.27.14-2.53.26-3.8.23h-.86l-.03-.06-2.25.09c-.14,0-.29,0-.43.03-.08.03-.17.06-.23.11-.23.2-.43.4-.55.66-.06.14-.08.29-.06.43.06.29.17.55.38.75.09.11.23.2.38.23.35.08.69.17,1.04.2.55.03,1.1.23,1.64.08.06,0,.11.03.17.06.2.06.4.03.6-.03.2-.06.4-.06.6-.06.14,0,.29.03.43.03.58,0,1.15.11,1.73.17.17.03.29.2.29.4,0,.11,0,.23-.03.35-.11.6-.14,1.21-.08,1.81.06.6.03,1.21-.06,1.81-.11.72-.11,1.44-.06,2.16,0,.14,0,.29-.03.43-.11.78-.11,1.56-.11,2.33,0,.23,0,.46-.03.69-.11.63-.11,1.27-.11,1.9v1.81c0,.55,0,1.09.03,1.64.03.32.09.63.17.95.11.35.32.63.75.58.11,0,.23.06.35.06.29,0,.52-.14.63-.4.11-.2.2-.43.2-.66,0-.32.03-.63.03-.95,0-1.01-.03-2.01-.03-3.02,0-.2.03-.4.03-.6,0-.66.03-1.32.03-1.98s-.03-1.38.08-2.07c.06-.26.03-.52-.03-.77-.11-.55-.14-1.09-.03-1.64.08-.43.08-.86.08-1.29,0-.72,0-1.44.03-2.16,0-.35.03-.69.14-1.04.06-.2.17-.32.38-.32.55.03,1.1-.14,1.64-.17.6-.2,1.21-.14,1.81-.11.2,0,.4,0,.6-.03.43-.06.86-.17,1.15-.55l.17-.17c.2-.17.2-.4.17-.63-.06-.52-.31-.86-.8-1.04h.02Z"/>
  <path class="cls-5" d="M301.83,238.51c-.12,0-.22-.02-.29-.04-.01,0-.03,0-.05,0-.36.03-.94-.06-1.22-.91-.1-.37-.16-.72-.2-1.06-.03-.58-.03-1.14-.03-1.68v-1.81c0-.65,0-1.31.12-1.99.02-.17.02-.38.02-.6,0-.78,0-1.59.12-2.4.02-.12.02-.23.02-.36-.06-.8-.04-1.55.06-2.24.08-.6.1-1.16.06-1.69-.07-.65-.03-1.3.09-1.96.02-.06.02-.12.02-.18-.13-.01-.28-.03-.43-.05-.38-.05-.74-.1-1.09-.1-.09,0-.18,0-.27-.01-.23-.02-.46-.02-.64.02-.21.06-.52.13-.87.03l-.07-.02c-.41.07-.8.01-1.14-.04-.17-.03-.33-.06-.5-.06-.4-.03-.77-.13-1.13-.22-.23-.04-.47-.19-.63-.38-.24-.25-.41-.58-.49-.98-.04-.23-.02-.46.08-.71.16-.37.43-.63.68-.85.11-.12.28-.17.4-.21h.06c.19-.05.37-.05.53-.05l2.54-.1.04.07h.56c1.28.03,2.56-.09,3.74-.23.2-.03.43-.03.66,0,.23.04.45.05.73.02.49-.06.98-.09,1.47-.11.96-.07,1.69-.04,2.38.12l.49.05c.24.04.44.11.62.17h.01c.66.24,1.05.74,1.13,1.45.02.18.09.7-.34,1.06l-.12.12c-.41.51-.99.65-1.46.71-.23.04-.45.04-.67.04h-.21c-.51-.04-1-.06-1.45.09l-.13.02c-.2.01-.41.04-.63.08-.31.05-.62.1-.95.09-.07.24-.11.5-.11.85-.03.73-.03,1.46-.03,2.16,0,.45,0,.91-.09,1.39-.09.45-.08.91.03,1.44.06.26.11.61.02.99-.08.51-.08,1.05-.07,1.62v.35c0,.34,0,.67-.01,1,0,.33-.02.66-.02.98,0,.11,0,.23-.01.34,0,.09-.02.18-.02.27,0,.5,0,1,.02,1.51,0,.5.01,1.01.01,1.52,0,.17,0,.33-.01.5,0,.15-.02.3-.02.45,0,.29-.08.58-.26.89-.2.42-.6.67-1.07.67h.01ZM301.45,237.47h.03c.12,0,.22.02.29.04.02,0,.04,0,.06.01.11,0,.15-.05.17-.11l.02-.04c.09-.16.14-.3.14-.42,0-.16,0-.33.01-.5,0-.15.02-.3.02-.45,0-.5,0-1-.02-1.51,0-.5-.01-1.01-.01-1.52,0-.11,0-.23.01-.33,0-.09.02-.18.02-.27,0-.34,0-.67.01-1,0-.33.01-.66.01-.98v-.34c0-.59,0-1.19.09-1.81.04-.18.03-.35-.02-.59-.14-.67-.15-1.27-.03-1.85.07-.38.07-.77.07-1.19,0-.71,0-1.45.03-2.18,0-.3.02-.73.17-1.18.11-.4.43-.66.85-.66.29.01.58-.03.88-.08.22-.03.44-.07.67-.09.61-.19,1.19-.16,1.75-.13h.18c.16,0,.35,0,.51-.01.44-.06.68-.16.83-.36l.05-.05.17-.17s.05-.07.03-.22c-.04-.34-.18-.52-.48-.63-.15-.05-.3-.1-.44-.12l-.55-.06c-.6-.14-1.24-.17-2.1-.1-.5.03-.98.06-1.45.11-.38.04-.71.02-1.02-.04-.1-.01-.22-.01-.34,0-1.25.14-2.57.27-3.89.24h-1.15l-.02-.04-1.93.07c-.13,0-.24,0-.33.01-.01,0-.03,0-.04.01-.21.18-.34.33-.42.48,0,.03-.03.09-.02.14.04.22.12.38.24.49l.04.05s.05.04.08.04c.36.09.68.17.98.19.18,0,.39.04.58.07.34.05.63.1.89.03h.12c.14-.01.26.03.34.07.08,0,.17,0,.3-.04.38-.11.7-.09,1.01-.06.05,0,.11,0,.17,0,.42,0,.82.05,1.22.11.19.02.37.05.56.07.44.07.73.44.73.89,0,.13,0,.29-.04.46-.1.53-.13,1.1-.07,1.65.06.61.04,1.24-.06,1.93-.1.62-.11,1.28-.05,2.05,0,.2,0,.38-.04.57-.1.71-.1,1.45-.1,2.24,0,.24,0,.49-.04.75-.11.62-.11,1.21-.11,1.84v1.81c0,.53,0,1.08.03,1.61.02.27.08.56.16.84.08.23.13.23.21.22h.03,0Z"/>
  <path class="cls-5" d="M323.7,218.51c-.23-.29-.52-.49-.89-.52-.46-.06-.92-.11-1.38-.11-.43,0-.86.11-1.29.08-.46-.03-.92-.17-1.38-.17h-.35c-.38,0-.75.06-1.12,0-.52-.06-1.04,0-1.55.03-.6.03-1.21.06-1.81.06-.29,0-.58.03-.86.11-.08.03-.17.06-.23.11-.26.35-.55.66-.6,1.12-.08.63-.2,1.27-.2,1.9,0,.52-.03,1.04-.08,1.55-.03.32-.06.63-.06.95-.03.83-.03,1.67-.11,2.5-.08.75-.08,1.5-.06,2.25,0,.49,0,.98-.08,1.47-.06.23-.03.46-.03.69-.03.6-.03,1.21-.08,1.81-.06.46-.08.92,0,1.38.03.23.03.46-.03.69-.14.55-.08,1.1.08,1.64.08.26.14.52.2.77.06.23.11.46.2.69.03.11.08.23.17.29.38.2.72.49,1.21.35.11-.03.23.03.35.03.26.03.52.06.77.06h4.92c.11,0,.23,0,.35-.03.58-.11,1.15-.08,1.73-.06.4.03.81.03,1.21.03.29,0,.49-.14.6-.4.06-.11.08-.23.08-.35,0-.2-.03-.4-.03-.6-.03-.23-.14-.4-.32-.55-.26-.2-.55-.32-.89-.32h-.78l-2.42.09c-.63,0-1.27-.06-1.9.11-.08.03-.17.03-.26.03l-3.28.08h-.08c-.14,0-.32-.14-.32-.26l-.08-2.19c.03-.86.03-1.64.11-2.42l.06-.11c.06-.49.11-.98.11-1.47,0-.95.08-.75.77-.95.23-.06.46-.03.69.03.46.11.92.08,1.38,0,.69-.11,1.38-.17,2.07,0,.11.03.23.06.35.03.32-.08.63-.03.95-.03.14,0,.29,0,.43-.03.23-.03.43-.23.46-.46.03-.26.03-.52.03-.78,0-.29-.17-.49-.4-.63-.23-.14-.49-.23-.75-.26h-2.5c-.32,0-.66-.03-.98.06-.69.17-1.38.08-2.07.2-.11.03-.23-.08-.23-.2,0-.06-.03-.11-.03-.17.03-.95,0-1.9.08-2.85.06-.69.06-1.38.08-2.07v-.95c.03-.6.06-.66.6-.8.23-.06.46-.08.69-.11l.77-.08c.29-.03.58.06.86-.06.08-.03.17-.03.26,0,.58.14,1.15.08,1.73.08s1.09,0,1.64.11c.35.06.69.06,1.04.06.72.03,1.44-.03,2.16.17.17.06.4-.11.46-.29.11-.38.08-.75,0-1.12-.03-.08-.08-.17-.14-.23h.02Z"/>
  <path class="cls-5" d="M319.38,238.74h-4.92c-.28,0-.55-.03-.82-.06-.04,0-.12-.01-.19-.03-.01,0-.02,0-.02,0-.57.15-1.03-.11-1.36-.3-.05-.03-.11-.06-.17-.1-.21-.14-.35-.34-.41-.57-.09-.25-.15-.48-.21-.72-.06-.28-.11-.51-.19-.75-.22-.7-.25-1.33-.09-1.92.03-.14.04-.31.02-.5-.1-.52-.05-1.06,0-1.51.03-.38.05-.76.06-1.17,0-.2.02-.4.02-.61v-.13c-.01-.19-.02-.42.04-.65.07-.41.07-.87.07-1.35-.03-.91-.01-1.63.06-2.3.06-.6.08-1.23.09-1.84,0-.21,0-.41.02-.63,0-.32.03-.66.06-.98.05-.51.08-1.01.08-1.51,0-.54.08-1.08.15-1.59l.05-.38c.06-.53.35-.9.6-1.23l.14-.18c.14-.14.31-.2.42-.24.33-.1.65-.14,1.02-.14.58,0,1.18-.03,1.76-.05l.33-.02c.43-.03.87-.06,1.33,0,.22.03.44.02.67,0,.13,0,.27-.01.4-.01h.35c.3,0,.58.05.85.09.2.03.39.06.56.08.2,0,.41,0,.63-.04.65-.07,1.39-.01,2.06.07.46.04.87.27,1.21.68.11.11.19.26.24.4.13.57.13,1.01,0,1.43-.14.42-.63.76-1.09.61-.45-.13-.95-.13-1.47-.14-.18,0-.37,0-.55,0-.34,0-.71,0-1.1-.06-.64-.13-1.27-.12-1.93-.1-.47,0-.96.02-1.48-.11h0c-.25.09-.5.08-.71.07-.08,0-.16,0-.24,0l-.77.08c-.2.03-.42.05-.63.1-.09.02-.16.04-.21.06-.01.08-.02.22-.02.29v.93c0,.25-.01.47-.02.7-.02.46-.03.94-.06,1.42-.05.62-.06,1.25-.07,1.86,0,.27,0,.53,0,.79.23-.02.44-.03.65-.04.38-.01.73-.03,1.07-.11.31-.08.64-.08.92-.07h2.74c.34.04.67.15.96.33.52.33.64.75.64,1.05,0,.27,0,.54-.03.83-.06.46-.43.84-.89.9-.25.05-.53.04-.79.02-.2,0-.38-.02-.52.02-.25.06-.45.01-.6-.02-.64-.16-1.31-.08-1.87,0-.6.11-1.1.11-1.58,0-.2-.05-.34-.06-.45-.03-.12.04-.24.06-.35.08-.02,0-.03,0-.05.01,0,.08-.01.21-.01.38,0,.52-.06,1.03-.12,1.52v.08s-.06.11-.06.11c-.05.54-.07,1.1-.08,1.69l-.02.6.08,1.94,3.19-.08h.12c.6-.16,1.15-.15,1.68-.14h.37l2.4-.08h.79c.43,0,.83.14,1.2.42.3.25.46.54.5.88v.06c0,.09,0,.18.01.27.01.11.02.23.02.33,0,.19-.04.38-.14.57-.19.42-.57.68-1.05.68-.4,0-.82,0-1.24-.03-.55-.03-1.08-.06-1.59.05-.15.04-.31.04-.44.04h0ZM313.41,237.66c.1,0,.17.01.23.02.01,0,.03,0,.05.01h.06c.25.03.48.06.71.06h4.92c.09,0,.17,0,.23-.01.66-.13,1.27-.1,1.87-.07.4.03.78.03,1.18.03.07,0,.11-.01.15-.11.04-.06.05-.11.05-.14,0-.09,0-.18-.02-.27,0-.1-.01-.2-.01-.3-.02-.06-.04-.13-.14-.21-.18-.14-.36-.2-.58-.2h-.77l-2.4.08h-.41c-.48,0-.94-.01-1.38.1-.13.04-.28.04-.39.04l-3.37.08c-.38,0-.81-.33-.81-.75l-.08-2.17v-.63c.03-.64.05-1.25.11-1.86v-.09s.07-.12.07-.12c.05-.44.1-.89.1-1.32,0-.82.08-1.18.83-1.35.08-.02.18-.04.3-.07.39-.09.73-.03.95.02.33.08.71.08,1.17,0,.68-.11,1.46-.2,2.28,0,.04.01.1.03.12.03.27-.08.56-.07.8-.05.21,0,.43.02.58,0l.07-.04c.02-.22.02-.46.02-.71,0-.03,0-.11-.17-.21-.15-.1-.33-.16-.52-.18h-2.67c-.24,0-.46,0-.65.04-.45.11-.87.13-1.27.14-.3,0-.57.02-.84.07-.16.04-.37,0-.53-.13-.16-.13-.26-.32-.27-.52-.01-.06-.03-.12-.03-.21.01-.33.02-.64.02-.96,0-.63.01-1.28.07-1.93.04-.44.05-.91.06-1.36,0-.23.01-.46.02-.69v-.93c.04-.8.18-1.07.97-1.28.27-.07.53-.1.76-.13l.79-.09c.13-.01.26,0,.39,0,.14,0,.26.01.35-.02.21-.07.41-.07.6-.01.35.08.75.07,1.17.06.7-.01,1.4-.03,2.14.12.29.04.6.04.93.04.19,0,.37,0,.54,0,.52,0,1.07.01,1.62.15.05-.2.04-.46-.03-.79l-.05-.03c-.22-.28-.42-.33-.54-.34-.68-.08-1.2-.15-1.86-.07-.26.03-.53.06-.81.04-.23-.01-.45-.05-.67-.09-.24-.04-.47-.08-.68-.08h-.35c-.12,0-.23,0-.35.01-.27.01-.55.03-.85-.02-.35-.04-.74-.01-1.14.01l-.32.02c-.62.03-1.23.06-1.84.06-.28,0-.51.03-.72.09,0,0-.02,0-.03,0l-.05.07c-.21.27-.37.48-.4.75l-.05.39c-.07.5-.14.98-.14,1.45,0,.53-.03,1.07-.09,1.61-.03.31-.05.6-.05.89,0,.22-.02.43-.02.63-.01.63-.03,1.27-.1,1.92-.07.63-.09,1.29-.05,2.18,0,.52,0,1.04-.09,1.57-.03.14-.03.27-.02.42v.19c0,.22-.01.41-.02.61-.02.4-.02.82-.06,1.25-.05.38-.08.82,0,1.24.04.35.03.63-.04.9-.11.41-.08.86.08,1.37.09.27.15.54.21.81.05.22.11.43.18.63l.02.06h0s.08.06.12.09c.32.18.45.25.64.19.08-.02.15-.03.21-.03h0ZM313.57,235.98v.03-.03ZM313.65,226.54s-.04,0-.05,0c.02,0,.04,0,.05,0ZM323.5,219.67h.02-.02Z"/>
  <path class="cls-5" d="M338.35,232.35c-.14-1.01-.49-1.96-.95-2.88l-.17-.29c-.72-1.09-1.7-1.9-2.88-2.47l-.95-.43c-.55-.26-1.09-.52-1.64-.81-.69-.35-1.38-.69-2.01-1.15-.46-.35-.83-.75-1.12-1.24-.23-.38-.32-.75-.23-1.15.11-.55.2-1.09.6-1.53.11-.11.17-.29.26-.43.06-.08.14-.17.23-.23.2-.11.4-.23.63-.29.49-.11.98-.17,1.47-.26l.52-.06c.35-.08.69-.03,1.04.06.23.06.46.11.66.26.11.08.26.14.4.17.35.08.63.26.89.52.17.17.35.32.55.43.2.14.43.14.66.03.14-.08.14-.23.17-.38l.06-.43c.06-.23,0-.46-.06-.69-.11-.38-.35-.69-.63-.95-.46-.4-.98-.72-1.58-.89-.55-.14-1.09-.26-1.61-.2-.6-.03-1.15,0-1.67.17l-.11.06-.6.14c-.29.11-.6.2-.89.35-.52.29-.98.63-1.29,1.15-.2.32-.43.63-.66.95-.66.95-.89,2.01-.77,3.14.06.52.23,1.01.52,1.44,1.09,1.64,1.29,1.84,2.94,2.91l.09.06c.23.14.46.26.72.29.26.03.49.11.72.26.11.08.26.14.4.2.35.14.72.26,1.07.43.38.17.69.43,1.09.52l1.29.86c.06.03.08.08.11.14.32.43.63.83.75,1.35.03.2.08.4.14.6.2.75.17,1.5.03,2.25-.14.72-.03.69-.77,1.01-.14.06-.26.14-.38.23-.49.35-1.04.49-1.61.55-.6.06-1.21.06-1.81-.06-1.21-.2-2.36-.6-3.46-1.18-.11-.06-.23-.14-.35-.23-.29-.2-.52-.46-.69-.77-.11-.2-.38-.26-.6-.17l-.26.08c-.43.23-.6.63-.72,1.07-.03.08,0,.17.03.26.03.11.08.23.17.32.43.52.86,1.04,1.41,1.44.4.29.86.49,1.32.66,1.32.52,2.68.89,4.12.86.58,0,1.12-.17,1.7-.26.06,0,.11-.03.17-.06.66-.38,1.35-.66,1.95-1.15.29-.26.55-.52.69-.89.11-.26.29-.49.46-.72.26-.38.4-.77.4-1.24,0-.29.03-.58.06-.86.03-.29.03-.58,0-.86h-.03Z"/>
  <path class="cls-5" d="M332.74,238.89c-1.26,0-2.54-.28-4.12-.9-.41-.15-.95-.38-1.43-.72-.6-.44-1.06-.99-1.5-1.53-.11-.11-.22-.3-.27-.51-.03-.08-.1-.29-.02-.53.11-.43.34-1.01.96-1.34l.07-.04.26-.08c.45-.17.96,0,1.19.4.14.26.32.46.54.62.11.08.21.15.28.19,1.08.57,2.19.95,3.31,1.13.51.1,1.06.11,1.69.05.57-.06,1.01-.2,1.37-.46.11-.08.27-.2.47-.29.14-.06.36-.15.41-.19-.01,0,0-.09.02-.19.02-.08.03-.16.05-.27.15-.77.14-1.42-.02-2.02-.05-.19-.12-.42-.16-.66-.08-.35-.32-.67-.59-1.04l-.1-.14-1.18-.79c-.3-.08-.54-.22-.76-.35-.11-.07-.22-.13-.34-.18-.21-.1-.42-.18-.64-.27-.14-.05-.27-.1-.4-.16-.16-.06-.35-.14-.51-.26-.14-.08-.3-.14-.48-.16-.38-.04-.7-.21-.93-.36l-.1-.07c-1.68-1.09-1.94-1.35-3.07-3.04-.33-.49-.53-1.05-.6-1.66-.13-1.29.16-2.46.86-3.48.22-.3.45-.62.65-.93.41-.68,1.04-1.08,1.47-1.32.23-.11.44-.19.65-.26.1-.04.2-.07.3-.11l.07-.02.68-.19c.51-.17,1.07-.23,1.81-.2.59-.06,1.19.07,1.75.22.65.18,1.23.51,1.78,1,.39.35.65.74.78,1.18.07.28.15.59.07.92l-.07.49c-.02.15-.08.46-.39.65-.43.21-.85.19-1.18-.03-.22-.12-.42-.29-.63-.5-.2-.2-.41-.33-.66-.39-.2-.04-.41-.13-.58-.26-.11-.08-.29-.12-.48-.17-.27-.07-.55-.12-.8-.06h-.06s-.52.07-.52.07c-.14.02-.31.05-.47.08-.33.05-.63.1-.94.17-.16.04-.33.13-.5.24,0,0-.05.04-.07.07,0,.01-.03.06-.05.09-.06.12-.14.28-.27.41-.27.29-.35.69-.45,1.15l-.02.13c-.06.27,0,.51.17.79.25.43.58.79,1,1.1.59.43,1.24.76,1.93,1.1.55.29,1.1.55,1.63.8l.94.43c1.31.64,2.35,1.53,3.09,2.65l.18.31c.55,1.1.87,2.09,1.02,3.06v.02c.04.32.04.64,0,.96-.03.29-.05.55-.05.81,0,.54-.16,1.04-.49,1.52-.17.23-.32.43-.41.64-.18.46-.5.78-.81,1.06-.49.39-.99.66-1.48.91-.19.1-.38.2-.57.31-.1.05-.22.11-.36.12-.18.03-.36.06-.53.1-.39.08-.79.16-1.21.16h-.17ZM326.35,234.94s0,.01,0,.02c.02.08.04.11.05.12.45.54.85,1.02,1.35,1.39.38.27.84.46,1.2.6,1.54.6,2.75.86,3.93.83.34,0,.68-.07,1.03-.14.2-.04.4-.08.61-.11.21-.11.4-.22.6-.32.46-.24.9-.47,1.29-.78.27-.24.45-.43.54-.69.15-.33.34-.59.52-.83.21-.3.31-.6.31-.94,0-.31.03-.61.06-.9.02-.27.02-.52,0-.77-.12-.86-.42-1.75-.9-2.71l-.15-.26c-.64-.97-1.52-1.72-2.67-2.29l-.94-.43c-.55-.26-1.11-.52-1.67-.82-.69-.35-1.41-.71-2.07-1.19-.53-.4-.94-.85-1.26-1.39-.3-.48-.39-.99-.29-1.51l.02-.12c.11-.53.23-1.14.7-1.63.03-.04.07-.11.1-.16.03-.06.06-.12.1-.18.11-.16.24-.3.38-.39.25-.14.49-.28.79-.35.35-.08.69-.13,1.02-.19.16-.02.33-.05.48-.08l.52-.06c.45-.1.88-.02,1.24.06.26.06.55.14.83.34.06.04.13.07.21.09.45.11.81.32,1.14.65.16.16.3.27.44.35l.05.02s.02.02.05.02l.07-.51c.03-.11-.01-.27-.06-.45-.07-.24-.24-.48-.48-.7-.44-.38-.9-.64-1.39-.79-.47-.12-.98-.24-1.42-.19h-.08c-.62-.03-1.07.01-1.46.14l-.19.08-.57.14c-.1.04-.2.07-.31.11-.18.06-.36.12-.51.2-.52.29-.86.59-1.1.97-.22.35-.47.69-.69.98-.56.8-.79,1.75-.69,2.79.05.45.2.85.44,1.21,1.06,1.58,1.21,1.74,2.79,2.76l.09.06c.2.13.36.19.5.21.33.03.63.14.93.33.1.07.21.11.32.16.13.06.26.1.38.15.24.09.48.18.73.3.13.06.27.14.4.21.21.12.39.22.57.26l.09.02,1.36.9c.15.09.23.22.28.31l.04.05c.32.43.64.87.77,1.45.03.21.08.4.14.57.2.76.22,1.56.04,2.47-.02.1-.03.18-.04.25-.12.68-.28.8-1.02,1.12-.09.04-.17.1-.27.17-.52.37-1.11.57-1.86.64-.73.07-1.37.05-1.96-.06-1.22-.2-2.43-.62-3.59-1.23-.15-.07-.29-.18-.41-.27-.32-.22-.59-.52-.8-.88h-.04s-.21.08-.21.08c-.2.12-.33.32-.43.69v.03ZM326.34,234.97h0s0,0,0,0Z"/>
</svg>