<?xml version="1.0" encoding="UTF-8"?>
<svg id="OBJECTS" xmlns="http://www.w3.org/2000/svg" viewBox="0 0 216.84 260.99">
  <defs>
    <style>
      .cls-1 {
        fill: #f7e1ca;
      }

      .cls-2 {
        fill: #51302a;
      }

      .cls-3 {
        fill: #ffcaca;
      }

      .cls-4 {
        fill: #f3f3f3;
      }

      .cls-5 {
        fill: #895646;
      }

      .cls-6 {
        fill: #eab394;
      }
    </style>
  </defs>
  <g>
    <circle class="cls-3" cx="108.42" cy="152.57" r="108.42"/>
    <g>
      <path class="cls-6" d="M176.81,155.76c1.17-9.29,1.36-20.72-1.28-33.26-1.46-6.92-8.02-38.05-22.2-39.67-8.69-.99-19.27,9.12-26.31,26-5.92-1.67-12.1-2.57-18.4-2.6-6.42-.04-12.7.82-18.74,2.48-7.04-16.97-17.66-27.16-26.37-26.16-14.18,1.62-20.74,32.75-22.2,39.67-2.59,12.31-2.45,23.55-1.34,32.74-.86,7.5-1.38,21.62,5.64,35.53,16.06,31.83,56.29,32.23,63.01,32.15,3.09-.04,49.43-1.34,64.32-36.57,4.98-11.77,4.69-23.21,3.87-30.32Z"/>
      <path class="cls-5" d="M172.94,185.8c4.98-11.77,4.69-23.21,3.87-30.32,1.17-9.29,1.36-20.72-1.28-33.26-1.46-6.92-8.02-38.05-22.2-39.67-8.69-.99-19.27,9.12-26.31,26-3.99-1.12-8.09-1.89-12.27-2.28-3.36,41.66,7.85,79.56,34.29,89.54,4.77,1.8,10.01,2.91,15.58,3.36,3.29-3.8,6.14-8.22,8.32-13.38Z"/>
      <path class="cls-1" d="M77.78,107.31c2.01,4.72,3.87,9.61,4.43,14.78.12,1.16.18,2.36-.19,3.46-.3.91-.88,1.69-1.52,2.35-2.52,2.61-20.41,7.99-25.93,9.72-4,1.25-6.1-2.75-6.18-6.09-.19-7.85,1.58-21.82,10.27-32.56,2.57-3.18,7.28-8,12.15-2.64,2.83,3.11,5.6,7.77,6.96,10.98Z"/>
      <path class="cls-1" d="M138.53,107.31c-2.01,4.72-3.87,9.61-4.43,14.78-.12,1.16-.18,2.36.19,3.46.3.91.88,1.69,1.52,2.35,2.52,2.61,20.41,7.99,25.93,9.72,4,1.25,6.1-2.75,6.18-6.09.19-7.85-1.58-21.82-10.27-32.56-2.57-3.18-7.28-8-12.15-2.64-2.83,3.11-5.6,7.77-6.96,10.98Z"/>
      <circle class="cls-1" cx="62.18" cy="178.86" r="9.74" transform="translate(-126.15 198.49) rotate(-76.78)"/>
      <circle class="cls-1" cx="154.66" cy="178.86" r="9.74" transform="translate(-81.17 161.75) rotate(-45)"/>
      <circle class="cls-2" cx="145.12" cy="167.85" r="9.13" transform="translate(-59.25 81.45) rotate(-26.24)"/>
      <circle class="cls-2" cx="71.72" cy="167.85" r="9.13" transform="translate(-66.81 49) rotate(-26.24)"/>
      <path class="cls-4" d="M150.47,168.55c-2.83.64-4.01,1.82-4.65,4.65-.17.76-1.26.76-1.43,0-.64-2.83-1.82-4.01-4.65-4.65-.76-.17-.76-1.26,0-1.43,2.83-.64,4.01-1.82,4.65-4.65.17-.76,1.26-.76,1.43,0,.64,2.83,1.82,4.01,4.65,4.65.76.17.76,1.26,0,1.43Z"/>
      <path class="cls-4" d="M77.09,168.55c-2.83.64-4.01,1.82-4.65,4.65-.17.76-1.26.76-1.43,0-.64-2.83-1.82-4.01-4.65-4.65-.76-.17-.76-1.26,0-1.43,2.83-.64,4.01-1.82,4.65-4.65.17-.76,1.26-.76,1.43,0,.64,2.83,1.82,4.01,4.65,4.65.76.17.76,1.26,0,1.43Z"/>
      <g>
        <path class="cls-2" d="M113.37,168.62c0,1.46-2.21,2.64-4.95,2.64s-4.95-1.18-4.95-2.64,2.21-2.64,4.95-2.64,4.95,1.18,4.95,2.64Z"/>
        <path class="cls-2" d="M115,181.11c-2.49,0-4.84-1.07-6.47-2.89-1.62,1.81-3.97,2.89-6.48,2.89-.36,0-.68-.02-.97-.06-2.93-.29-5.52-2.09-6.86-4.8-.43-.87-.07-1.92.8-2.35.87-.43,1.92-.07,2.35.8.78,1.59,2.37,2.69,4.14,2.87.23.03.39.04.54.04,1.88,0,3.61-1.01,4.52-2.64.42-.72,1.17-1.15,1.96-1.15h.03c.8.01,1.54.46,1.93,1.16.91,1.62,2.63,2.63,4.5,2.63h.2c.08,0,.16-.01.24-.01,1.71-.15,3.24-1.12,4.08-2.6.48-.84,1.55-1.14,2.4-.65s1.14,1.55.65,2.4c-1.43,2.51-4.02,4.14-6.92,4.36-.05,0-.09,0-.14,0h-.2c-.11,0-.21.01-.32.01ZM107.42,176.68s0,.01.01.02c0,0,0-.01-.01-.02Z"/>
        <g>
          <path class="cls-3" d="M116.17,180.03h0c0,5.89-3.48,10.66-7.75,10.66s-7.75-4.76-7.75-10.64v-.05c.25.04.52.05.78.05,2.84,0,5.33-1.56,6.62-3.87.21-.36.73-.36.93,0,1.29,2.31,3.77,3.87,6.61,3.87.19,0,.38-.01.57-.01Z"/>
          <path class="cls-2" d="M108.42,192.44c-5.24,0-9.51-5.56-9.51-12.4,0-.51.22-1.02.61-1.36s.9-.5,1.41-.43c.17.03.34.03.52.03,2.11,0,4.06-1.14,5.09-2.97.44-.75,1.2-1.18,2.03-1.17.82.01,1.57.46,1.97,1.18,1.02,1.82,2.97,2.96,5.07,2.96h.22c.11,0,.23-.01.34-.01.97,0,1.76.79,1.76,1.76h0c0,6.85-4.27,12.41-9.51,12.41ZM102.54,181.73c.56,4.06,3.02,7.19,5.88,7.19s5.34-3.17,5.89-7.22c-2.25-.32-4.3-1.44-5.77-3.15-1.51,1.76-3.65,2.9-5.99,3.18ZM107.47,177.03s0,.01,0,.02c0,0,0-.01,0-.02Z"/>
        </g>
      </g>
      <g>
        <path class="cls-2" d="M138.76,154.07c-.08.35-.35.63-.82.81-1.25.48-2.61.77-3.95.71-1.24-.06-2.51-.51-3.33-1.44-1.56-1.76-.67-4.8,1.74-5.17.96-.15,1.95.12,2.82.57,1.49.76,2.71,2.04,3.4,3.57.16.35.21.68.15.95Z"/>
        <path class="cls-2" d="M78.11,154.42c.11.34.4.6.88.74,1.28.38,2.67.55,4,.38,1.23-.16,2.46-.71,3.21-1.71,1.41-1.88.27-4.84-2.15-5.01-.97-.07-1.93.28-2.76.79-1.43.88-2.54,2.26-3.1,3.84-.13.37-.15.69-.07.96Z"/>
      </g>
    </g>
  </g>
  <g>
    <path class="cls-4" d="M144.56,36.14c0-19.96-16.18-36.14-36.14-36.14s-36.14,16.18-36.14,36.14c0,16.39,10.91,30.22,25.86,34.65l9.95,19.98,11.43-20.23c14.53-4.68,25.04-18.31,25.04-34.4Z"/>
    <g>
      <path class="cls-2" d="M105.71,47.06c-.07-.09-.15-.18-.22-.27-.2-.24-.4-.49-.57-.75-.2-.31-.4-.63-.59-.95-.34-.56-.7-1.14-1.1-1.69l-.04-.1c-.28-.59-.63-1.08-.93-1.48-.38-.52-.8-1.04-1.21-1.55-.12-.15-.23-.29-.31-.42l1.45-.66.64-.32c.62-.37,1.13-.83,1.62-1.29.64-.59,1.05-1.26,1.23-1.96.23-.87.39-1.71.49-2.48.16-1.2-.14-2.56-.9-4.02-.09-.17-.2-.33-.33-.5-.88-1.06-1.94-1.85-3.15-2.35-1.12-.46-2.09-.68-3.07-.72-.2,0-.4-.03-.62-.06-.12-.02-.24-.03-.35-.04-.92-.09-2.01-.16-3.11.11-.36.07-.72.18-1.05.28-1.58.42-2.35,2.1-2.15,3.44.06.35.09.7.09,1.04,0,.14,0,.29,0,.43,0,.3-.02.62,0,.93.04.62.02,1.09-.06,1.49-.08.33-.08.64-.08.98.01.16.04.32.07.48.03.21.07.41.07.6,0,.17-.02.36-.05.55-.03.22-.05.44-.05.66l-.02.76c-.03,1.27-.07,2.58.02,3.85v2.25l.03.46v.03c0,1.16,0,2.36.18,3.56.1.68.17,1.36.23,2,.05.75.54,1.3,1.31,1.49.34.09.71.02,1-.19.27-.19.44-.49.47-.81.04-.21.04-.4.04-.58,0-.31,0-.62-.02-.93,0-.3-.02-.6-.02-.91,0-.41-.06-.84-.19-1.37-.13-.43-.17-.79-.12-1.12.03-.2.02-.4.01-.57,0-.07,0-.14,0-.22,0-.06,0-.12,0-.18,0-.04,0-.1,0-.13.13-.56.12-1.11.12-1.64v-.3c0-.23,0-.44.04-.69,0,0,.01-.01.01-.01.11-.03.22-.05.29-.05h.07c.08-.02.16-.02.24-.02.17,0,.37,0,.55-.07.39-.12.8-.16,1.24-.21.23-.02.46-.05.69-.08.03,0,.05,0,.09.04.07.1.13.22.19.33.13.26.29.55.57.78.14.12.24.3.34.59.11.3.24.64.52.91.21.21.41.45.6.68.13.16.27.32.4.46.42.48.77,1.03,1.15,1.61.24.38.49.77.77,1.12.19.26.38.5.5.78.3.6.67,1.19,1.14,1.81.18.23.38.43.58.63l.18.17c.18.18.41.25.64.25s.46-.08.65-.2c.49-.34.8-.86.95-1.61.06-.36-.02-.69-.22-.93-.28-.38-.59-.76-.9-1.14ZM94.32,37.39c-.03-.15-.03-.31,0-.48.06-.55.12-1.2,0-1.87-.02-.13,0-.28.04-.49.03-.38.07-.77.07-1.19,0-.17-.01-.33-.02-.5-.02-.52-.04-1.05-.12-1.58-.05-.38-.04-.76-.03-1.16,0-.14,0-.28,0-.41,0-.02.03-.04.02-.05.23-.03.45-.07.66-.12.28-.06.54-.11.79-.11.07,0,.15,0,.22.02.19.04.35.01.47,0,.29-.05.58.01.88.05.24.03.51.07.77.07h0c1.17.03,2.26.37,3.15.68.39.15.76.37,1.11.65.74.58,1.08,1.35,1.04,2.45v.08c.02.72-.29,1.35-1,1.98-.54.47-1.05.76-1.6.89-.28.08-.52.2-.75.31-.09.04-.17.08-.23.11-.6.23-1.22.38-1.89.53-.27.06-.55.13-.83.2-.17.05-.37.05-.56.05-.77-.03-1.47.13-2.15.53.01-.21,0-.43-.02-.64Z"/>
      <path class="cls-2" d="M125.38,27.51c-.05-.16-.15-.31-.26-.44-.38-.47-.85-.73-1.35-.77-.79-.1-1.66-.17-2.43-.08-.27.03-.52.06-.77.05-.22-.01-.44-.05-.68-.09-.32-.05-.65-.11-.99-.11h-.41c-.16,0-.31,0-.47.02-.28.01-.54.03-.81-.01-.53-.06-1.05-.02-1.56,0l-.36.02c-.7.03-1.42.07-2.12.07-.43,0-.81.05-1.17.16-.13.04-.31.1-.46.25l-.16.21c-.29.37-.61.8-.69,1.39l-.06.45c-.09.61-.18,1.23-.18,1.87,0,.59-.03,1.19-.1,1.8-.03.38-.07.77-.07,1.15,0,.25-.02.5-.02.75-.02.72-.04,1.46-.11,2.18-.09.79-.11,1.63-.07,2.71,0,.57,0,1.12-.09,1.62-.07.27-.06.52-.05.74,0,.06,0,.13,0,.17-.01.24-.02.48-.03.73-.01.46-.03.94-.07,1.38-.07.52-.12,1.14,0,1.75.03.25.02.46-.02.64-.18.68-.14,1.4.11,2.21.1.29.16.58.23.9.07.27.14.55.24.83.07.26.21.47.43.61.07.04.14.08.2.12.4.23.88.52,1.55.34.02,0,.04,0,.06.01.07.01.15.03.22.03.29.03.62.07.95.07h5.83c.15,0,.33,0,.5-.04.62-.12,1.25-.09,1.92-.06.49.04.99.04,1.46.04.52,0,.93-.27,1.14-.74.1-.2.15-.41.15-.62,0-.13,0-.26-.02-.39,0-.11-.02-.22-.02-.32v-.06c-.05-.37-.23-.69-.56-.96-.41-.32-.85-.48-1.35-.48h-.94s-2.85.1-2.85.1c-.15,0-.29,0-.44,0-.62-.01-1.27-.02-1.95.17-.03.01-.09.01-.17.01l-3.87.1-.11-2.41c0-.24.01-.48.02-.71.02-.71.04-1.38.1-2.03l.07-.13v-.08c.08-.58.15-1.18.15-1.79,0-.26,0-.44.02-.53.04-.01.09-.02.14-.03.12-.03.26-.06.4-.1.16-.04.34-.03.59.03.55.14,1.13.14,1.83,0,.68-.11,1.48-.2,2.26,0,.16.04.39.09.64.03.19-.05.41-.04.65-.03.3.01.62.04.92-.03.48-.06.9-.47.96-.96.04-.33.04-.66.04-.97s-.12-.79-.7-1.15c-.32-.2-.7-.33-1.08-.38h-3.02s-.22,0-.22,0c-.33,0-.7-.01-1.06.09-.41.1-.84.12-1.28.14-.28.01-.57.02-.89.06,0-.35.01-.71.02-1.06,0-.73.02-1.48.08-2.22.05-.56.06-1.12.08-1.66,0-.27.02-.54.03-.83v-1.1c0-.12.02-.38.02-.41.03-.02.15-.06.34-.11.24-.06.5-.09.76-.13l.91-.1c.1-.01.2,0,.3,0,.24.01.54.02.86-.08.59.15,1.16.14,1.72.12.79-.02,1.55-.04,2.31.12.45.07.89.07,1.29.07.22,0,.44.01.65.01.62,0,1.21.01,1.77.17.48.16,1-.21,1.15-.65.15-.47.15-.97,0-1.62Z"/>
    </g>
  </g>
</svg>