<?xml version="1.0" encoding="UTF-8"?>
<svg id="OBJECTS" xmlns="http://www.w3.org/2000/svg" viewBox="0 0 216.84 261.68">
  <defs>
    <style>
      .cls-1 {
        fill: #e5d8cf;
      }

      .cls-2 {
        fill: #51302a;
      }

      .cls-3 {
        fill: #f3f3f3;
      }

      .cls-4 {
        fill: #eab394;
      }
    </style>
  </defs>
  <g>
    <circle class="cls-1" cx="108.42" cy="153.26" r="108.42"/>
    <g>
      <path class="cls-4" d="M176.81,156.45c1.17-9.29,1.36-20.72-1.28-33.26-1.46-6.92-8.02-38.05-22.2-39.67-8.69-.99-19.27,9.12-26.31,26-5.92-1.67-12.1-2.57-18.4-2.6-6.42-.04-12.7.82-18.74,2.48-7.04-16.97-17.66-27.16-26.37-26.16-14.18,1.62-20.74,32.75-22.2,39.67-2.59,12.31-2.45,23.55-1.34,32.74-.86,7.5-1.38,21.62,5.64,35.53,16.06,31.83,56.29,32.23,63.01,32.15,3.09-.04,49.43-1.34,64.32-36.57,4.98-11.77,4.69-23.21,3.87-30.32Z"/>
      <g>
        <path class="cls-2" d="M139.04,153.28c.02.36-.15.71-.55,1.01-1.06.82-2.28,1.49-3.58,1.82-1.21.3-2.55.24-3.61-.41-2-1.24-2.03-4.4.17-5.45.88-.42,1.9-.45,2.86-.27,1.65.3,3.19,1.17,4.29,2.43.25.29.4.59.42.87Z"/>
        <path class="cls-2" d="M77.74,153.28c-.02.36.15.71.55,1.01,1.05.82,2.28,1.49,3.58,1.82,1.21.3,2.55.24,3.61-.41,2-1.24,2.03-4.4-.17-5.45-.88-.42-1.9-.45-2.86-.27-1.65.3-3.19,1.17-4.29,2.43-.25.29-.4.59-.42.87Z"/>
      </g>
      <path class="cls-3" d="M77.78,107.99c2.01,4.72,3.87,9.61,4.43,14.78.12,1.16.18,2.36-.19,3.46-.3.91-.88,1.69-1.52,2.35-2.52,2.61-20.41,7.99-25.93,9.72-4,1.25-6.1-2.75-6.18-6.09-.19-7.85,1.58-21.82,10.27-32.56,2.57-3.18,7.28-8,12.15-2.64,2.83,3.11,5.6,7.77,6.96,10.98Z"/>
      <path class="cls-3" d="M138.53,107.99c-2.01,4.72-3.87,9.61-4.43,14.78-.12,1.16-.18,2.36.19,3.46.3.91.88,1.69,1.52,2.35,2.52,2.61,20.41,7.99,25.93,9.72,4,1.25,6.1-2.75,6.18-6.09.19-7.85-1.58-21.82-10.27-32.56-2.57-3.18-7.28-8-12.15-2.64-2.83,3.11-5.6,7.77-6.96,10.98Z"/>
      <circle class="cls-3" cx="62.18" cy="179.54" r="9.74" transform="translate(-126.82 199.02) rotate(-76.78)"/>
      <circle class="cls-3" cx="154.66" cy="179.54" r="9.74" transform="translate(-81.65 161.94) rotate(-45)"/>
      <circle class="cls-2" cx="145.12" cy="168.53" r="9.13" transform="translate(-59.55 81.52) rotate(-26.24)"/>
      <circle class="cls-2" cx="71.72" cy="168.53" r="9.13" transform="translate(-67.11 49.07) rotate(-26.24)"/>
      <path class="cls-2" d="M113.37,173.67c0,1.46-2.21,2.64-4.95,2.64s-4.95-1.18-4.95-2.64,2.21-2.64,4.95-2.64,4.95,1.18,4.95,2.64Z"/>
      <path class="cls-2" d="M115,186.16c-2.49,0-4.84-1.07-6.47-2.89-1.62,1.81-3.97,2.89-6.48,2.89-.36,0-.68-.02-.97-.06-2.93-.29-5.52-2.09-6.86-4.8-.43-.87-.07-1.92.8-2.35.87-.43,1.92-.07,2.35.8.78,1.59,2.37,2.69,4.13,2.86.23.03.39.04.54.04,1.88,0,3.61-1.01,4.52-2.64.42-.72,1.17-1.15,1.96-1.15h.03c.8.01,1.54.46,1.93,1.16.91,1.62,2.63,2.63,4.5,2.63h.2c.08,0,.16-.01.24-.01,1.71-.15,3.24-1.12,4.08-2.6.48-.84,1.55-1.14,2.4-.65.84.48,1.14,1.55.65,2.4-1.43,2.51-4.01,4.14-6.92,4.36-.05,0-.09,0-.14,0h-.2c-.11,0-.21.01-.32.01ZM107.42,181.72s0,.01.01.02c0,0,0-.01-.01-.02Z"/>
    </g>
  </g>
  <g>
    <path class="cls-3" d="M144.56,36.14c0-19.96-16.18-36.14-36.14-36.14s-36.14,16.18-36.14,36.14c0,16.39,10.91,30.22,25.86,34.65l9.95,19.98,11.43-20.23c14.53-4.68,25.04-18.31,25.04-34.4Z"/>
    <g>
      <path class="cls-2" d="M94.48,40.03l-.2-.34c-.82-1.24-1.96-2.22-3.41-2.93l-1.08-.49c-.59-.28-1.2-.57-1.8-.89-.74-.37-1.51-.75-2.19-1.25-.48-.36-.86-.77-1.14-1.26-.21-.33-.27-.64-.2-.96l.03-.15c.11-.53.21-1,.52-1.34.14-.14.22-.3.28-.43.02-.05.05-.09.06-.12.03-.05.09-.1.11-.12.2-.12.4-.23.59-.27.35-.08.69-.14,1.06-.19.19-.03.37-.06.53-.09l.58-.06h.06c.3-.09.63-.02.95.05.23.06.43.11.58.21.18.13.39.23.61.27.3.08.55.22.79.46.24.24.46.41.69.54.35.24.77.26,1.21.04.31-.19.36-.49.39-.65l.08-.55c.08-.36,0-.69-.08-.99-.14-.47-.43-.9-.84-1.27-.61-.54-1.25-.89-1.95-1.09-.62-.16-1.29-.31-1.93-.24-.82-.04-1.44.03-2,.22l-.77.22-.06.02c-.11.04-.23.08-.34.12-.23.08-.46.16-.71.29-.76.43-1.26.87-1.61,1.44-.22.34-.48.7-.73,1.05-.77,1.11-1.09,2.39-.95,3.82.07.66.29,1.27.65,1.81,1.27,1.9,1.52,2.15,3.41,3.38l.11.07c.27.17.59.34.99.39.21.02.41.09.58.2.18.13.38.21.55.28.15.06.3.12.45.18.25.09.49.18.72.3.13.06.26.14.39.21.26.15.52.3.84.38l1.36.91s0,0,0,0l.11.16c.32.43.59.8.68,1.21.04.25.1.49.17.73.19.69.19,1.43.03,2.31-.02.11-.04.21-.06.3-.02.11-.04.24-.05.27-.05.05-.32.16-.49.24-.22.09-.38.21-.51.31-.42.3-.93.47-1.59.53-.72.07-1.34.05-1.91-.06-1.27-.21-2.52-.64-3.74-1.28-.09-.05-.2-.13-.33-.22-.27-.19-.48-.42-.64-.73-.23-.4-.74-.57-1.21-.4l-.29.1-.07.03c-.66.35-.89.97-1.02,1.45-.08.24,0,.45.02.54.06.22.16.41.28.53.49.59,1,1.2,1.66,1.69.53.38,1.12.62,1.58.79,1.76.69,3.18,1,4.58,1,.06,0,.13,0,.19,0,.47,0,.91-.09,1.34-.18.2-.04.4-.08.6-.11.15-.01.27-.07.37-.12.21-.12.42-.23.64-.34.54-.28,1.1-.57,1.63-1,.34-.31.69-.65.88-1.15.11-.25.28-.47.47-.73.36-.52.53-1.05.53-1.64,0-.3.03-.62.06-.92.03-.35.03-.71,0-1.07-.15-1.08-.52-2.18-1.12-3.39Z"/>
      <path class="cls-2" d="M119.95,35.67c-.03-.11-.06-.22-.09-.33-.07-.25-.14-.49-.16-.69,0-.2-.05-.39-.14-.59-.17-.34-.26-.72-.36-1.15-.08-.27-.19-.49-.3-.72-.04-.06-.08-.12-.12-.18-.06-.09-.12-.18-.15-.25-.41-.94-1.05-1.68-1.68-2.41-.11-.13-.22-.25-.31-.36-.14-.18-.3-.3-.44-.41l-.24-.18c-.32-.24-.65-.5-1-.69-.36-.21-.75-.35-1.12-.49-.13-.05-.26-.1-.39-.15l-.57-.22c-1.16-.5-2.36-.77-3.65-.84-.55-.04-1.02.02-1.46.21-.16.08-.37.14-.54.19-.2.04-.39.09-.59.14-.5.12-.98.24-1.47.31-.95.14-1.79.56-2.56.98-.93.48-1.9,1.02-2.66,1.89l-.61.64c-.8.84-1.45,1.79-1.99,2.93-.42.95-.65,1.9-.83,2.79-.06.28-.08.54-.09.79,0,.16-.02.33-.04.5-.08.6-.06,1.13.08,1.63.03.11.04.24.06.37,0,.08.02.16.03.24l.1.79c.13.76.29,1.57.62,2.32.18.86.6,1.59,1.01,2.29.09.16.18.31.27.47.06.14.15.28.27.4l.23.21c.24.22.49.45.78.66l.16.11c.37.26.72.51.96.84.19.28.46.5.73.59.4.15.72.35.97.61.13.13.29.19.41.23.17.08.33.16.5.25.54.28,1.1.57,1.82.62.02,0,.08.02.12.03.05.02.11.03.16.05.77.19,1.44.27,2.04.24.1,0,.2,0,.31.01.23.02.45.02.68.02.11,0,.21,0,.32,0,.23,0,.46,0,.71-.05.75-.13,1.47-.32,2.16-.51.12-.01.22-.06.29-.09.55-.2,1.02-.5,1.48-.79.2-.12.39-.25.6-.37.2-.11.34-.26.47-.39.06-.06.11-.12.19-.18l1.19-1.08c.45-.42.92-.85,1.26-1.45.03-.02.05-.04.09-.08.34-.38.55-.78.75-1.17.18-.37.36-.71.59-.97.16-.16.25-.38.33-.58.14-.38.24-.78.33-1.15.29-.98.58-2.11.48-3.34l.18-.12v-.24c0-.12,0-.25,0-.37,0-.27.01-.54-.01-.84-.03-.3-.07-.6-.14-.93ZM116.75,41.43l-.18.41c-.46.9-1.01,1.67-1.66,2.32-.03.03-.05.05-.08.07-.08.06-.18.14-.26.26-.23.34-.57.58-.93.83l-.21.15c-.36.25-.75.42-1.21.55-.51.13-1.01.29-1.5.45-.25.08-.49.16-.73.23-.32.1-.62.19-.95.25-.9.22-1.84.19-2.9-.1-.04,0-.09-.02-.13-.03-.12-.03-.25-.07-.4-.07-.32-.04-.63-.16-.97-.28-.14-.05-.27-.1-.4-.14-1.02-.36-1.85-1.02-2.46-1.56-.1-.08-.19-.17-.28-.26-.15-.15-.31-.3-.51-.45-.21-.14-.4-.34-.59-.62-.51-.75-.84-1.43-1.04-2.18l-.19-.56c-.53-1.81-.51-3.6.06-5.31.32-.97.7-1.69,1.22-2.29l.35-.48c.23-.3.51-.64.91-.83l.12-.07c.09-.06.21-.13.33-.25.18-.2.43-.33.7-.47.07-.04.14-.07.21-.11.4-.21.71-.29,1.06-.24.36.04.74-.03,1.12-.22.15-.09.28-.17.46-.23.14-.06.28-.11.39-.13.14-.02.27-.05.41-.08.59-.11,1.14-.22,1.69-.15.3.03.69.05,1.1-.13.39-.17.82-.09,1.26.03.23.06.45.11.65.22.52.26,1.06.46,1.58.65.15.06.31.11.46.17.56.22,1.03.59,1.42.92.58.5,1.12,1.12,1.63,1.91.05.08.09.13.11.22.07.19.14.38.21.57.17.44.33.86.42,1.32.06.26.14.55.25.82.12.27.19.59.19.94v.84c.08.86-.15,1.88-.7,3.13Z"/>
      <path class="cls-2" d="M135.44,46.64c-.82-.34-1.93-.71-3.17-.51-.18.03-.37.03-.56,0-.29-.04-.56-.04-.83-.04h-2.22c-.28,0-.57,0-.87.07-.43.09-.86.11-1.31.13l-.36.02c-.15,0-.3.01-.46.02-.39,0-.79.02-1.21.11h-.11s-.02,0-.03,0c0-.16,0-.33,0-.49,0-.34-.01-.67,0-.99.02-.26-.02-.51-.05-.74-.04-.27-.08-.51-.02-.74.04-.22,0-.42-.04-.56,0-.03-.02-.07-.02-.07-.03-.25-.06-.49-.06-.72,0-.83,0-1.68-.03-2.52,0-.38,0-.76,0-1.15.01-.94.02-1.91-.17-2.89v-.06s-.02-.09-.02-.15v-3.58c0-.21,0-.39.05-.57.19-.75.04-1.47-.12-2.11-.04-.24-.16-.43-.26-.58l-.04-.06c-.15-.31-.6-.4-.87-.26-.53.29-.84.66-.96,1.12-.13.53-.27,1.08-.27,1.65,0,.24,0,.47-.02.71,0,.25-.02.49-.02.74,0,.43-.03.86-.09,1.29-.08.55-.1,1.02-.03,1.43.11.67.13,1.33.14,2.03,0,.24,0,.47.02.69,0,.09,0,.19,0,.28,0,.31-.01.62.04.93.06.48.03.98,0,1.49,0,.06,0,.12,0,.18,0,.21-.01.45.04.68.16.78.15,1.57.12,2.31-.02.67-.01,1.36,0,2.02,0,.33,0,.66,0,.99,0,.46,0,.98.22,1.48.04.12.04.26.04.42,0,.4.12.78.37,1.16.24.34.55.52.89.52.16,0,.34-.04.51-.12l.23-.11.09-.03c.51-.17.95-.32,1.44-.18.39.1.75.03.98-.03.34-.08.72-.12,1.16-.12.21,0,.42,0,.65-.04h.05c.44-.13.89-.13,1.37-.12h2.31s.03-.09.03-.09c.22,0,.43,0,.65,0,.47,0,.95,0,1.41.04,1.11.1,1.39-.17,1.76-.82.04-.06.07-.13.11-.18.11-.16.15-.34.18-.46.2-.61-.03-1.2-.61-1.46Z"/>
    </g>
  </g>
</svg>