<?xml version="1.0" encoding="UTF-8"?>
<svg id="OBJECTS" xmlns="http://www.w3.org/2000/svg" viewBox="0 0 216.84 266.63">
  <defs>
    <style>
      .cls-1 {
        fill: #f7e1ca;
      }

      .cls-2 {
        fill: #51302a;
      }

      .cls-3, .cls-4 {
        fill: #ffcaca;
      }

      .cls-5 {
        fill: none;
      }

      .cls-5, .cls-4 {
        stroke: #51302a;
        stroke-linecap: round;
        stroke-linejoin: round;
        stroke-width: 4.02px;
      }

      .cls-6 {
        fill: #f3f3f3;
      }

      .cls-7 {
        fill: #eab394;
      }
    </style>
  </defs>
  <circle class="cls-3" cx="108.42" cy="158.21" r="108.42"/>
  <g>
    <path class="cls-7" d="M176.81,161.4c1.17-9.29,1.36-20.72-1.28-33.26-1.46-6.92-8.02-38.05-22.2-39.67-8.69-.99-19.27,9.12-26.31,26-5.92-1.67-12.1-2.57-18.4-2.6-6.42-.04-12.7.82-18.74,2.48-7.04-16.97-17.66-27.16-26.37-26.16-14.18,1.62-20.74,32.75-22.2,39.67-2.59,12.31-2.45,23.55-1.34,32.74-.86,7.5-1.38,21.62,5.64,35.53,16.06,31.83,56.29,32.23,63.01,32.15,3.09-.04,49.43-1.34,64.32-36.57,4.98-11.77,4.69-23.21,3.87-30.32Z"/>
    <path class="cls-6" d="M172.94,191.44c4.98-11.77,4.69-23.21,3.87-30.32,1.17-9.29,1.36-20.72-1.28-33.26-1.46-6.92-8.02-38.05-22.2-39.67-8.69-.99-19.27,9.12-26.31,26-3.99-1.12-8.09-1.89-12.27-2.28-3.36,41.66,7.85,79.56,34.29,89.54,4.77,1.8,10.01,2.91,15.58,3.36,3.29-3.8,6.14-8.22,8.32-13.38Z"/>
    <path class="cls-1" d="M77.78,112.95c2.01,4.72,3.87,9.61,4.43,14.78.12,1.16.18,2.36-.19,3.46-.3.91-.88,1.69-1.52,2.35-2.52,2.61-20.41,7.99-25.93,9.72-4,1.25-6.1-2.75-6.18-6.09-.19-7.85,1.58-21.82,10.27-32.56,2.57-3.18,7.28-8,12.15-2.64,2.83,3.11,5.6,7.77,6.96,10.98Z"/>
    <path class="cls-1" d="M138.53,112.95c-2.01,4.72-3.87,9.61-4.43,14.78-.12,1.16-.18,2.36.19,3.46.3.91.88,1.69,1.52,2.35,2.52,2.61,20.41,7.99,25.93,9.72,4,1.25,6.1-2.75,6.18-6.09.19-7.85-1.58-21.82-10.27-32.56-2.57-3.18-7.28-8-12.15-2.64-2.83,3.11-5.6,7.77-6.96,10.98Z"/>
    <circle class="cls-1" cx="62.18" cy="184.49" r="9.74" transform="translate(-131.64 202.84) rotate(-76.78)"/>
    <circle class="cls-1" cx="154.66" cy="184.49" r="9.74" transform="translate(-85.16 163.4) rotate(-45)"/>
    <circle class="cls-2" cx="145.12" cy="173.48" r="9.13" transform="translate(-61.74 82.03) rotate(-26.24)"/>
    <circle class="cls-2" cx="71.72" cy="173.48" r="9.13" transform="translate(-69.3 49.58) rotate(-26.24)"/>
    <path class="cls-6" d="M150.47,174.19c-2.83.64-4.01,1.82-4.65,4.65-.17.76-1.26.76-1.43,0-.64-2.83-1.82-4.01-4.65-4.65-.76-.17-.76-1.26,0-1.43,2.83-.64,4.01-1.82,4.65-4.65.17-.76,1.26-.76,1.43,0,.64,2.83,1.82,4.01,4.65,4.65.76.17.76,1.26,0,1.43Z"/>
    <path class="cls-6" d="M77.09,174.19c-2.83.64-4.01,1.82-4.65,4.65-.17.76-1.26.76-1.43,0-.64-2.83-1.82-4.01-4.65-4.65-.76-.17-.76-1.26,0-1.43,2.83-.64,4.01-1.82,4.65-4.65.17-.76,1.26-.76,1.43,0,.64,2.83,1.82,4.01,4.65,4.65.76.17.76,1.26,0,1.43Z"/>
    <g>
      <path class="cls-2" d="M113.37,174.26c0,1.46-2.21,2.64-4.95,2.64s-4.95-1.18-4.95-2.64,2.21-2.64,4.95-2.64,4.95,1.18,4.95,2.64Z"/>
      <path class="cls-5" d="M95.8,181.11c1.03,2.1,3.1,3.6,5.54,3.84.23.03.47.05.71.05,2.6,0,4.87-1.42,6.06-3.54.2-.33.67-.33.85,0,1.18,2.11,3.45,3.54,6.04,3.54.17,0,.34-.01.52-.01,2.37-.18,4.41-1.53,5.53-3.48"/>
      <path class="cls-4" d="M116.17,185.66h0c0,5.89-3.48,10.66-7.75,10.66s-7.75-4.76-7.75-10.64v-.05c.25.04.52.05.78.05,2.84,0,5.33-1.56,6.62-3.87.21-.36.73-.36.93,0,1.29,2.31,3.77,3.87,6.61,3.87.19,0,.38-.01.57-.01Z"/>
    </g>
    <g>
      <path class="cls-2" d="M138.76,159.71c-.08.35-.35.63-.82.81-1.25.48-2.61.77-3.95.71-1.24-.06-2.51-.51-3.33-1.44-1.56-1.76-.67-4.8,1.74-5.17.96-.15,1.95.12,2.82.57,1.49.76,2.71,2.04,3.4,3.57.16.35.21.68.15.95Z"/>
      <path class="cls-2" d="M78.11,160.06c.11.34.4.6.88.74,1.28.38,2.67.55,4,.38,1.23-.16,2.46-.71,3.21-1.71,1.41-1.88.27-4.84-2.15-5.01-.97-.07-1.93.28-2.76.79-1.43.88-2.54,2.26-3.1,3.84-.13.37-.15.69-.07.96Z"/>
    </g>
  </g>
  <g>
    <path class="cls-6" d="M144.56,36.14c0-19.96-16.18-36.14-36.14-36.14s-36.14,16.18-36.14,36.14c0,16.39,10.91,30.22,25.86,34.65l9.95,19.98,11.43-20.23c14.53-4.68,25.04-18.31,25.04-34.4Z"/>
    <g>
      <g>
        <path class="cls-2" d="M113.02,30.16c.03.27.03.53-.2.73l-.2.2c-.33.43-.83.56-1.33.63-.23.03-.46.03-.7.03-.7-.03-1.39-.1-2.09.13-.63.03-1.26.23-1.89.2-.23,0-.36.13-.43.36-.1.4-.17.8-.17,1.19-.03.83-.03,1.66-.03,2.49.03.5,0,1-.1,1.49-.13.63-.13,1.26,0,1.89.07.3.07.6.03.9-.13.8-.17,1.59-.13,2.39,0,.76-.03,1.53-.03,2.29,0,.23-.03.46-.03.7,0,1.16.03,2.32.03,3.48,0,.36-.03.73-.03,1.09,0,.27-.07.53-.2.76-.13.27-.43.43-.73.43-.13,0-.27-.07-.4-.07-.5.07-.73-.27-.86-.66-.1-.36-.17-.73-.2-1.09-.03-.63-.03-1.26-.03-1.89v-2.09c-.03-.73,0-1.46.1-2.19.03-.27.03-.53.03-.8,0-.9.03-1.79.13-2.69.03-.17.03-.33,0-.5-.1-.83-.1-1.66.03-2.49.1-.7.13-1.39.07-2.09-.07-.7-.03-1.39.1-2.09.03-.13.03-.27.03-.4,0-.1-.03-.2-.1-.27-.07-.07-.17-.13-.27-.13-.66-.07-1.33-.2-1.99-.2-.17,0-.33-.03-.5-.03-.23,0-.46.03-.7.07-.23.07-.46.07-.7,0-.07-.03-.13-.03-.2-.03-.63.17-1.26-.07-1.89-.1-.4-.03-.8-.1-1.19-.2-.17-.03-.3-.13-.4-.27-.23-.23-.4-.53-.46-.86-.03-.17-.03-.33.03-.5.13-.3.33-.56.6-.76.07-.07.17-.1.27-.1.17-.03.33-.03.5-.03l2.59-.1v-.03h1c1.46.03,2.92-.07,4.38-.27.2-.03.4-.03.6,0,.33.07.66.07,1,.03.56-.07,1.13-.1,1.69-.13.86-.1,1.73-.07,2.59.1l.6.07c.2.03.4.1.6.17.53.13.9.6.93,1.16l.27.07Z"/>
        <path class="cls-2" d="M104.8,52.03c-.12,0-.23-.03-.31-.05-.03,0-.05-.01-.07-.02-.38.04-1.01-.06-1.31-.98-.11-.41-.19-.81-.22-1.2-.03-.66-.03-1.31-.03-1.93v-2.09c-.03-.73,0-1.5.1-2.25.03-.23.03-.48.03-.73,0-1.04.04-1.91.14-2.74.03-.15.03-.25,0-.36-.12-.95-.1-1.81.03-2.65.1-.7.12-1.35.06-1.97-.07-.74-.04-1.48.11-2.22.02-.09.02-.17.03-.26-.23-.02-.43-.05-.63-.08-.44-.06-.85-.11-1.26-.11-.1,0-.2,0-.3-.02-.26-.03-.52,0-.81.04-.31.08-.61.08-.92,0h-.04c-.49.1-.95.02-1.37-.04-.2-.03-.4-.06-.58-.07-.43-.04-.86-.11-1.28-.21-.24-.05-.46-.19-.63-.41-.29-.3-.49-.67-.57-1.08-.06-.28-.04-.52.06-.76.17-.39.42-.71.73-.94.14-.12.32-.2.51-.21.2-.03.38-.03.55-.03l2.59-.13h1c1.39.03,2.8-.05,4.32-.26.24-.04.49-.04.73,0,.27.05.54.06.87.03.57-.07,1.15-.1,1.71-.13.88-.1,1.8-.07,2.7.11l.56.06c.26.04.49.12.69.19.58.14,1.03.62,1.19,1.22l.28.07.04.31c.03.22.09.75-.36,1.14l-.15.15c-.45.56-1.1.71-1.61.78-.26.04-.51.04-.76.04h-.23c-.6-.04-1.17-.07-1.71.11l-.12.02c-.24.01-.48.05-.74.09-.37.06-.76.12-1.16.11,0,0,0,.02,0,.03-.1.39-.15.75-.15,1.07-.03.84-.03,1.68-.03,2.49.03.5,0,1.05-.11,1.58-.12.57-.12,1.14,0,1.71.07.31.08.66.04,1.04-.12.74-.17,1.49-.13,2.32,0,.4,0,.79-.02,1.17,0,.38-.02.76-.02,1.13,0,.13,0,.25-.02.38,0,.11-.02.21-.02.32,0,.58,0,1.16.02,1.74,0,.58.02,1.17.02,1.75,0,.19,0,.38-.02.57,0,.18-.02.35-.02.53,0,.35-.09.69-.26.99-.2.39-.64.66-1.13.66ZM104.37,51.04h.03c.12,0,.23.03.31.05.03,0,.06.02.09.02.13,0,.27-.07.32-.18.1-.18.15-.37.15-.56s0-.38.02-.57c0-.18.02-.35.02-.53,0-.58,0-1.16-.02-1.74,0-.58-.02-1.17-.02-1.75,0-.13,0-.25.02-.38,0-.11.02-.21.02-.32,0-.39,0-.77.02-1.16,0-.38.02-.76.02-1.13-.04-.87,0-1.68.14-2.46.03-.26.02-.5-.03-.72-.15-.69-.15-1.4,0-2.09.09-.45.12-.91.09-1.37,0-.85,0-1.7.03-2.54,0-.38.06-.81.18-1.29.13-.46.45-.71.88-.71.34.02.68-.04,1.03-.09.25-.04.51-.08.78-.1.69-.22,1.35-.18,1.99-.15h.21c.2,0,.41,0,.61-.02.54-.07.83-.2,1.03-.45l.04-.05.2-.2s.03-.03.05-.05l-.23-.06-.02-.34c-.02-.37-.25-.66-.58-.74-.21-.07-.4-.13-.56-.16l-.57-.06c-.85-.16-1.67-.19-2.48-.1-.57.03-1.14.07-1.69.13-.43.04-.8.03-1.14-.04-.13-.02-.28-.02-.43,0-1.58.22-3.04.3-4.47.27h-.68l-.29.03-2.59.1c-.16,0-.3,0-.42.02l-.08.02c-.19.14-.35.34-.45.58-.01.03-.03.09,0,.22.05.24.16.45.34.63l.04.05c.04.05.08.08.12.09.39.1.77.16,1.14.19.22.01.45.05.67.08.38.06.74.12,1.07.03l.12-.02c.08,0,.21,0,.35.06.14.03.28.03.42,0h.06c.34-.06.7-.1,1.06-.07.07,0,.14.01.2.01.47,0,.94.06,1.39.12.22.03.43.06.65.08h0c.23,0,.44.17.54.26.15.15.24.37.24.59,0,.15,0,.32-.05.51-.12.63-.15,1.28-.09,1.93.07.7.04,1.41-.07,2.2-.12.76-.13,1.54-.03,2.37.04.19.04.42,0,.64-.08.76-.12,1.59-.12,2.6,0,.28,0,.56-.04.85-.1.7-.13,1.41-.1,2.11v2.11c0,.61,0,1.25.03,1.87.03.32.09.66.18,1,.12.36.24.34.36.33h.03ZM103.38,32.58s.03,0,.05,0c-.02,0-.03,0-.05,0ZM103.37,32.58s0,0,0,0c0,0,0,0,0,0h0ZM106.66,32.52h0Z"/>
      </g>
      <g>
        <path class="cls-2" d="M115.78,38.96c0-1.39-.03-2.79-.03-4.18,0-1.53,0-3.05.17-4.58.03-.3.17-.6.4-.8.3-.27.53-.23.73.1.27.46.4,1,.4,1.53-.03,1.86,0,3.72,0,5.57,0,.3.03.6.07.9.07.5.07,1,0,1.49-.03.23-.07.46-.07.7v6.07c0,.56.2,1.09.3,1.66.13.86.23,1.73.27,2.59,0,.13,0,.27-.03.4-.03.3-.27.56-.56.63-.17.03-.33.03-.5,0-.33-.03-.6-.3-.66-.63-.1-.5-.2-1-.23-1.49-.03-.46-.03-.93-.03-1.39,0-.1,0-.2-.03-.3-.2-.6-.13-1.19-.13-1.79v-6.47h-.03Z"/>
        <path class="cls-2" d="M117.15,51.52c-.11,0-.22-.01-.34-.03-.48-.05-.92-.46-1.03-.99-.1-.5-.2-1.03-.24-1.55-.03-.48-.03-.96-.03-1.42,0-.06,0-.12,0-.15-.18-.55-.17-1.08-.16-1.59,0-.12,0-.23,0-.35v-6.01l-.03-.46c0-.69,0-1.39-.02-2.08,0-.7-.02-1.4-.02-2.1,0-1.51,0-3.08.17-4.63.05-.44.25-.84.56-1.1.25-.22.51-.32.77-.28.26.04.48.2.65.49.31.53.46,1.14.46,1.76-.02,1.24-.01,2.5,0,3.71,0,.62,0,1.24,0,1.86,0,.28.03.57.06.85.07.53.07,1.07,0,1.6-.03.22-.06.43-.06.64v6.07c0,.32.08.64.16.98.05.2.09.4.13.6.15.99.24,1.86.27,2.65,0,.16,0,.32-.04.5-.07.48-.44.89-.92,1-.12.02-.24.04-.35.04ZM116.24,38.5h.03v6.93c0,.12,0,.25,0,.37-.01.45-.02.87.11,1.28.06.17.06.33.06.44,0,.47,0,.91.03,1.36.03.47.13.94.22,1.44.03.14.14.25.26.26.15.03.26.03.36,0,.09-.02.18-.12.2-.23v-.06c.03-.08.03-.17.03-.29-.03-.74-.11-1.57-.26-2.52-.03-.17-.07-.35-.12-.53-.09-.38-.19-.77-.19-1.2v-6.07c0-.27.04-.53.07-.76.06-.45.06-.91,0-1.37-.04-.31-.07-.63-.07-.96,0-.62,0-1.24,0-1.86,0-1.22-.01-2.48,0-3.73,0-.45-.12-.9-.34-1.29,0,0,0,0,0,0,0,0-.01.01-.02.02-.14.12-.22.3-.25.5-.16,1.5-.16,3.04-.16,4.53,0,.7,0,1.39.02,2.09,0,.54.01,1.09.02,1.63Z"/>
      </g>
    </g>
  </g>
</svg>